<svg id="Слой_1" xmlns="http://www.w3.org/2000/svg" width="239" height="831" viewBox="-178 5.9 239 831" ><style>.st0{fill:#222121}.st1{fill:none;stroke:#000;stroke-width:1.68;stroke-opacity:.3}.st3{fill:#fbcfbb}.st4{fill:none;stroke:#c89983;stroke-width:.5}.st5,.st6,.st8{fill:#242222;stroke:#070707;stroke-width:1.68}.st6,.st8{fill:none;stroke:#000}.st6{stroke-linecap:round;stroke-linejoin:round}.st8{stroke-opacity:.4373}.st10{fill-opacity:.44}.st11{fill:#fbcfbb;stroke:#c89983;stroke-width:1.68}.st17{fill:#c89983}.st25{fill:#c78b83}.st27{fill:#fbcfbb;stroke:#c89983;stroke-width:1.1859}.st37{fill:#aa8e72}.st38{fill:#fff}.st41{fill:#2c2c2c}.st42{fill:none;stroke:#c89983;stroke-width:.7906}</style><g id="Page-1_1_"><g id="Artboard" transform="translate(-9314 -2920)"><g id="larsen" transform="translate(9314 2921)"><g id="Page-1" transform="translate(0 106.713)"><g id="Stroke-27"><path id="path-1" class="st0" d="M-162 716c-.3.7-.4 1.6-.4 2.6s.1 2 .4 3c2.9 4.9 10.1 7.3 21.7 7.3s20.5-2.7 26.9-8.2c.2-1.2.4-.8.4-3.5 0-2.6-.7-2.7-.8-3.9-5.8 5.2-14.1 7.9-26.6 7.3-12.4-.5-19.6-2-21.6-4.6z"/><path class="st1" d="M-161.6 717.5c0 .3-.1.7-.1 1 0 .9.1 1.8.4 2.7 2.7 4.5 9.7 6.8 20.9 6.8 11.3 0 20-2.6 26.1-7.8 0-.1.1-.3.2-.6.1-.5.2-1 .2-2.4 0-1.1-.1-1.7-.3-2.3 0 0 0-.1-.1-.1-6.2 5-14.6 7.2-26.2 6.7-10.9-.5-18-1.7-21.1-4z"/></g><g id="Stroke-71"><path id="path-2" class="st0" d="M34.6 707c1.2.4 1.9.9 2.2 1.3.3.4.3 2.2 0 5.2-9.3 4-21.1 5.8-35.6 5.2-5-.2-12.6-.5-18.1-2.2-5.8-1.7-12.1-6.8-18.4-8.2-9.2-2.1-17.3-1.7-30-3.5-1.9-.3-3.4-.8-4.3-3.8-.6-2-.7-4.3-.4-6.9L34.6 707z"/><path class="st1" d="M34.4 707.9L-69.2 695c-.2 2.1 0 4.1.5 5.8.7 2.3 1.5 2.9 3.6 3.2 4.7.7 7.2.9 15.2 1.5 4.4.4 6.9.6 9.6 1 1.8.3 3.5.6 5.3 1 .6.1 1.2.3 1.8.5 2.3.8 4.3 1.7 8.2 3.8 4.7 2.5 6.3 3.3 8.5 4 4.4 1.3 9.5 1.8 17.9 2.1 14.1.6 25.7-1.1 34.7-4.9.2-2.4.2-4 .1-4.2-.3-.2-.9-.6-1.8-.9z"/></g><path id="Stroke-79" d="M-108.7 690.7c.8 5.9-.6 11.1-.8 11.6s-1.5 2.3-3.8 5.2c-.3-2.7-.4-4.7-.4-6s.1-3 .4-5.2c1.4-1 2.4-1.9 2.9-2.6.6-.7 1.1-1.7 1.7-3z" fill="#575757" stroke="#3c3c3c" stroke-width="1.68"/><g id="Rectangle"><path id="path-3" class="st3" d="M-65.5 652.9h33.2v20.2h-33.2z"/><path class="st4" d="M-65.2 653.1h32.7v19.7h-32.7z"/></g><g id="Rectangle_1_"><path id="path-4" class="st3" d="M-141.1 652.9h28.1v20.2h-28.1z"/><path class="st4" d="M-140.8 653.1h27.6v19.7h-27.6z"/></g><path id="color-shoes-2" class="st5" d="M-64.4 667.3c.1-3 .1-4.3 0-3.9 0 .1-6-.4-6.5 3-.2 1.1 2.5 3.6 2.6 6.1.1 2.2-1.2 6.5-1.3 12.1-.1 2.1-.1 5.2 0 9.5 2.3 1 4.1 1.5 5.2 1.7 11.7 1.9 20.3 2.8 25.6 4.3 11.2 3.2 20.6 9.4 28.2 10.4 11.8 1.6 24.7 2.2 38.1 0 2.2-.4 6.5-1.3 6.5-2.2 0-.9.9-4.8-1.7-7.8s-3.9-3.5-23.4-10C2.3 688.3.1 682-6.3 675.8c-3.2-3.1-8.4-8.2-15.7-15.2-.4-.3-1.6.4-2 0-.6-.6-1.7-1.9-2.6-3-1-1.3-2.1-2.4-8.2-.4-3.1 1-5 3.4-5.6 7.4-5.2 4-9.7 5.9-13.4 5.6-4-.1-7.5-1.1-10.6-2.9z"/><path id="Fill-21" d="M-14 696.2s.3-.9.7-2.4c.5-1.5 1.1-3.8 1.9-6.4.4-1.3.8-2.8 1.2-4.3.2-.8.4-1.5.5-2.3.1-.4.1-.8.2-1.2v-.3V679v.1-.1l-.1-.2v-.1-.1l-.1-.1c-.1-.1-.1-.2-.2-.2-.1-.2-.2-.3-.4-.5-.3-.3-.5-.7-.8-1-.6-.7-1.2-1.3-1.8-2a71.7 71.7 0 0 0-3.9-3.9c-1.3-1.3-2.7-2.5-4-3.7-1.4-1.2-2.7-2.3-4.1-3.3-.7-.5-1.4-1-2.1-1.4-.2-.1-.3-.2-.5-.3-.2-.1-.3-.2-.5-.2-.2-.1-.4-.2-.6-.2-.2-.1-.3-.1-.5-.2-1.4-.4-2.8-.3-4.1 0-1.3.3-2.5.8-3.4 1.3-1 .5-1.8 1-2.5 1.4-.7.4-1.2.8-1.6 1-.4.2-.5.4-.5.4l.5-.5c.3-.3.8-.7 1.4-1.2.6-.5 1.4-1.1 2.4-1.7 1-.6 2.1-1.2 3.5-1.7 1.4-.4 3-.7 4.7-.3.2.1.5.1.6.2.2.1.4.1.6.2h.2l.2.1.3.1.6.3c.8.4 1.5.9 2.2 1.4 1.5 1 2.9 2.1 4.3 3.3 1.4 1.2 2.8 2.4 4.1 3.7 1.3 1.3 2.6 2.6 3.9 4l1.8 2.1c.3.4.6.7.8 1.1.1.2.3.4.4.6.1.1.1.2.2.3l.1.2.1.2.1.2v1.5c-.1.5-.1.9-.2 1.3-.2.8-.4 1.6-.7 2.4-.5 1.5-1 2.9-1.5 4.2-.5 1.3-1 2.5-1.4 3.5-.4 1-.8 1.9-1.1 2.7-.3.7-.6 1.3-.8 1.7 0 .3-.1.6-.1.6"/><path id="color-shoes-1" class="st5" d="M-140.8 670.5c-2.4 8.3-5 15-7.8 20-4.2 7.5-9.3 9.6-11.3 13.9-1.3 2.9-1.9 6.9-1.7 12.2 3.8 2.9 11.8 4.3 24.3 4.3s20.4-2.3 23.8-7c-.6-8.4-.6-14 0-17 .4-1.9 2.1-1.8 3.5-3.5.7-.9 1.3-2.6 1.3-4.3 0-.7-1.3-4-2.2-9.6-.3-2.1-.6-6-.9-11.7-2.4-3.8-4.4-6.1-6.1-7-1.6-.9-3-.3-4 1.6-1.5-1.7-3.3-2.4-5.5-2.1-2.2.3-4.4 1.6-6.5 3.8-1.8-.3-3.1-.1-3.9.6s-1.8 2.8-3 5.8z"/><path id="Stroke-25" class="st6" d="M-116.7 665.1c-5 .2-8.7.8-11.2 1.7-2.5.9-6.2 3-11.2 6.4l20.2-2.6c-6.8 1-11.6 2.1-14.5 3.4-2.9 1.3-5 3.3-6.2 6l20.2-1.3c-6.7.6-11.5 1.4-14.5 2.6-3 1.2-6.4 3.4-10.1 6.8l24.2-3.4c-11.4-4.3-18-5.8-19.8-4.7-1.8 1.1 5 0 20.2-3.4-3.4-2.5-6.1-3.9-7.9-4.3-1.8-.4-5.8-.2-11.9.4"/><path id="Stroke-73" class="st6" d="M-32.7 666.5c4.1-2.3 8-3.3 11.8-3 3.8.3 6.3 1.9 7.5 4.7-.6-.3-1.8.4-3.5 2.1-1.8 1.7-3.1 4.3-3.9 7.7 3.7-3.3 6.7-5.3 8.8-6s3.6-.1 4.4 1.7c-2.2 1.8-3.7 3.3-4.4 4.3-.7 1-1.3 2.4-1.8 4.3 2.6-2 4.6-3.3 6.1-3.9s3.1-.5 4.8 0c-3.3-2.2-5.8-3.2-7.5-3-2.5.3-.6-3.9-1.3-6-.7-2.1-6.4-1.5-9.6-.9-2.1.4-4.3 1.9-6.6 4.3 2.9-7.4 6.1-11.5 9.6-12.4.4-.1 2 .7 1.3 2.6-.7 1.8.4-.4-3.5 3.4"/><path id="Fill-75" d="M-122.2 663.8s-.1.6-.2 1.5c-.2 1-.4 2.4-.7 4.1-.1.8-.3 1.7-.5 2.7-.2 1-.3 2-.5 3s-.3 2.1-.5 3.2-.3 2.2-.4 3.3c-.1 1.1-.1 2.2 0 3.2 0 .5.1 1 .3 1.4.1.2.2.3.3.4l.1.1.1.1.3.2c1 .6 1.7 1.3 2.4 2s1.3 1.4 1.8 2.1c.5.7 1 1.3 1.4 1.9.4.6.7 1.1 1 1.5.3.4.4.8.6 1l.2.4s-.4-.4-1-1.1c-.3-.4-.7-.8-1.2-1.3l-1.6-1.6c-.6-.6-1.2-1.2-1.9-1.8-.7-.6-1.5-1.2-2.3-1.6l-.3-.2c-.1-.1-.2-.1-.3-.2-.1-.1-.2-.1-.2-.2-.3-.3-.5-.6-.6-.9-.3-.6-.4-1.2-.5-1.8-.1-1.2-.1-2.4 0-3.5.1-1.2.3-2.3.4-3.4.2-1.1.4-2.2.7-3.2.2-1 .5-2 .8-3 .2-.9.5-1.8.8-2.6.5-1.6 1-3 1.3-3.9 0-1.3.2-1.8.2-1.8"/><path id="Fill-77" d="M-133.9 664.7s0 2.3-.4 5.6c-.1.8-.2 1.8-.4 2.7-.1 1-.3 2-.5 3s-.4 2.1-.7 3.2c-.3 1.1-.6 2.2-1 3.3-.4 1.1-.8 2.2-1.3 3.2l-.2.4-.2.4c-.1.2-.3.5-.4.7-.2.2-.3.5-.5.7-.2.2-.3.5-.5.7-.6.9-1.4 1.6-2.1 2.3-.7.7-1.4 1.3-2.1 1.8-.7.5-1.3.9-1.9 1.3-.6.4-1.1.6-1.6.8l-1 .5-.4.2 1.2-.9c.4-.3.8-.7 1.4-1.1.5-.4 1.1-.9 1.7-1.5.6-.6 1.2-1.2 1.8-1.9.6-.7 1.2-1.5 1.8-2.3.1-.2.3-.4.4-.6.1-.2.3-.4.4-.7.1-.2.2-.4.4-.7l.2-.3.2-.4 1.2-3c.4-1 .7-2.1 1-3.1.3-1.1.6-2.1.8-3.1.3-1 .5-2 .7-2.9.2-.9.4-1.8.6-2.6.2-.8.4-1.6.5-2.2.2-.7.3-1.2.4-1.7.3-1.3.5-1.8.5-1.8"/><g id="color-suit-2"><path id="path-5" d="M-147.1 294.5l172.3 4.8-11.6 73.5c-.2 21.1-1.1 36.9-2.8 47.6-.7 4.5-5.2 30.4-13.1 53.8-2.1 6.4-2.7 15.9-5.2 28.2-2.1 10.5 1.3 38.4-2.6 63.4-5.3 34.1-19.7 34-17.8 58.2.7 8.9-3.8 31.8-3.8 31.8-3.2 4.5-7.3 7.2-10.3 8.8-10.1 1.8-20.9 2-30.9-2.9 4-80.2 7.1-118.9 8-132.8.2-3.5 2.5-6.7 2.6-8.7.2-3.4-.6-6.8-.5-8.7.1-1.7 3.4-3.6 3.5-4.8.2-3-1.9-8-1.7-10 .3-4.4 5.1-7.5 5.2-10 .1-2.7-5.2-6.9-7-12.1-1.8-5.2.4-9.6.5-12.6.1-3.5-1.9-10.4-1.8-12.8.3-12.6.3-19.9.1-21.9-.2-1.4-1.7-3-2.6-5.2-.7-1.8-.8-4.1-.9-5.5-.1-4.9-.2-10.6-.9-16.6-.2-1.9-.2-4.8-2.2-5.2-1.9-.4-3.5 2.3-4.4 3.9-2 3.8-.8 2.9-3 14.3-2.3 11.4-2.4 6.3-4.4 23-1 8.1-6.2 21.7-8.3 40.8-.2 1.9-.4 4.1-.7 6.4-.2 2.3-5.5 5-5.8 8.3-.4 3.7.5 9.8 0 17.4-.1 1.6-1.6 2.3-1.7 4.3-.3 5.2.8 15.4 0 29.5-.4 7.4-5.4 21.7-6.5 37.8-.7 10.4 3 31.7 2.6 56.9-.1 7.1-1.7 18-4.8 32.6-3.6 2-28.3 4.7-28.3 4.7-4.7-1.1-8.5-2.9-11.2-4.7-7.6-29.6-6.9-53-7.8-69-.8-14.4 2.2-27.1 1.8-34.8-1.1-22.4-3.1-36.4-1.8-48.6 1.3-12.2 6.2-23.7 6.2-29.8-.2-17-.4-29.9-.5-38.6-.1-5.3-4-13-4.1-17.3-.2-15.7-.3-30.2-.3-43.2 0-62.8 2.2-94.2 6.5-94.2z" fill="#191c21"/><path class="st8" d="M-147.1 295.4c-.5 0-1.3 1.7-2 5.2-.8 3.9-1.5 9.7-2 17.6-1.1 15.7-1.6 39.2-1.6 70.6 0 13 .1 27.4.3 43.2 0 1.7.4 3.2 2 8.1.2.6.3 1.1.5 1.5 1.1 3.4 1.6 5.7 1.6 7.7.1 8.7.3 21.6.5 38.6 0 1.7-.3 3.8-1 6.8-.3 1.1-.6 2.4-1.1 4.1-.1.3-.2.6-.3 1.1-.1.6-.2.8-.3 1.1-.2.9-.4 1.6-.6 2.3-1.5 5.8-2.4 10.1-2.9 14.5-.8 7.7-.8 8.5 1 35.3.3 4.8.6 8.9.8 13.2.1 3 .1 4.2-1 13.9-.9 8.7-1.2 14.5-.9 20.8.1 2.2.2 4.5.4 8.3 1 26.9 2.3 40.3 7.4 60.3 3.2 2 6.7 3.5 10.6 4.4h.2c.3 0 .6-.1.9-.1 1-.1 2.1-.2 3.3-.4 3.4-.4 6.7-.8 9.9-1.3 3.9-.6 7.2-1.1 9.6-1.6 1.7-.4 3-.7 3.7-1 3-14.3 4.6-25 4.7-32 .2-10.3-.3-19.8-1.3-32.9-1.6-19.5-1.6-19.6-1.3-24 .4-6.5 1.5-12.8 3.2-20.7.3-1.5 1.8-8.2 2.2-9.8.7-3.3 1.1-5.5 1.2-7.3.4-6.6.4-12.1.1-19.9-.2-6.7-.2-7.7-.1-9.6.1-1 .4-1.8 1-2.7 0 0 .2-.3.3-.4.3-.5.4-.8.5-1.2.2-3.3.2-6.1 0-10.6-.2-4.2-.2-5.3 0-6.8.2-1.7 1.1-3 3.2-5.1 2.3-2.3 2.6-2.7 2.7-3.3.2-2.4.5-4.5.7-6.4.8-7.2 2-13.9 3.8-21.4.7-2.9 3-11.9 2.8-11.1.9-3.8 1.5-6.2 1.7-8.3.8-7.1 1.4-10.6 2-13.1.1-.5.2-.9.4-1.4.1-.3.4-1.3.4-1.4.2-.6.3-1.1.4-1.7.4-1.5.8-3.2 1.2-5.4.5-2.6.9-4.7 1.2-6.6.2-1.1.5-3.5.5-3.5.1-.8.2-1.3.4-1.8.2-.7.5-1.5 1.1-2.6 1.7-3.1 3.1-4.8 5.3-4.3 1.7.3 2.3 1.7 2.7 4.1 0 .2.1.4.1.7 0 .2 0 .3.1.6 0 .2 0 .4.1.5.5 4.7.7 8.1.8 15.8v1c0 2.2.3 3.8.8 5.2.2.6.5 1.1 1 1.8-.1-.1.8 1.4 1.1 1.8.4.7.6 1.3.7 1.8.2 2.1.2 9.4-.1 22 0 .9.1 1.7.9 5.7.1.4.2.8.2 1.2.5 2.7.7 4.5.7 5.9 0 .9-.1 1.2-.6 3.7-.7 3.6-.8 5.9.1 8.6.6 1.7 1.5 3.3 3.1 5.5.2.3.4.6.7 1 0 0 .5.7.7.9.6.7.9 1.3 1.3 1.8.9 1.3 1.3 2.4 1.3 3.4 0 .8-.4 1.5-1 2.5-.2.3-.5.7-.9 1.2-.1.1-.7.9-.9 1.2-1.6 2.1-2.3 3.5-2.4 5.1 0 .6.1 1.3.8 4.2.1.5.2.9.3 1.3.4 1.9.6 3.3.6 4.4-.1.8-.3 1.1-2 2.8-.7.6-1 1-1.3 1.4-.2.2-.2.4-.2.6 0 .6 0 1 .2 3.4.2 2 .3 3.3.2 4.7v.5c0 .6-.2 1.2-.5 2-.1.3-.2.6-.4 1.1 0 0-.4.9-.5 1.1-.8 1.9-1.2 3.2-1.2 4.5.1-2.2-1.9 26.7-2.8 41.5-1.7 26-3.4 55.5-5.1 90.7 8.6 4.1 18.2 4.7 29.8 2.7 3.8-2.1 7.2-4.7 9.8-8.4 0-.2.1-.4.1-.7.1-.7.3-1.5.4-2.4.5-2.5.9-5.1 1.3-7.8.4-2.3.7-4.5.9-6.5.8-6.1 1.1-11 .9-14-.7-9.1.7-15 4.4-22.2.6-1.1 4.4-7.9 5.5-10.2 3.8-7.5 6.3-15.3 8-26 .5-3.4.9-7 1.2-10.7.7-9 .8-16.6.7-30.9-.2-13.6-.1-17.9.7-21.8.6-3 1.1-6 1.7-9.5.3-1.6 1.1-7 1.3-8.2.8-5 1.4-8 2.3-10.7 3.5-10.4 6.5-22 9.2-33.9 1.8-8 3.2-15.5 3.8-19.8 1.7-10.6 2.6-26.5 2.8-47.5v-.1L25 300.3l-172.1-4.9z"/></g><g id="color-suit-1"><path id="path-6" d="M-86.9 29.4c-5.2 6.8-9.5 11.1-13 13-3.3 1.8-20.3 9.1-51 21.9-3 1.2-5.2 3.7-6.3 6.7-1.3 3.7-2.1 6-2.3 7-2.3 8.6-3.1 14.4-4 17.3-2 6.6-4.4 10.3-5.3 13.7-2.7 10.1-2.6 18.8-3.8 26-.7 4.6-3 8.6-3.4 12-1.4 12.7-1.2 24.3-1.4 34.6-.1 6.5-.9 12.5-.6 18 .3 7.4 3 11.8 3.8 17.3 1 8 .2 16.1 1.3 20 1.4 5.2 8.2 22.1 20.4 50.8l-10.4 71.2c16.5 15.6 35.2 24.3 56 26 3.6.3 7 .6 10.4.8 2.1.1 23.2.6 25.2-12.5 5-32.3 11.4-102.9 11.4-163.3 0-34.4-5-70-11.1-99.9-4.8-23.7-11-43.7-10.3-56.7.7-12.7 12.2-20 24.7-20s29.8 5.5 30.8 15.6c1.2 12-2.6 32.5-3.9 54.3-2.3 39.8-5.3 89-9.6 130-5.5 52.4-11.8 94.1-6.9 115.2 8.7 37.8 25.7 38 29.9 37.5 32-3.4 39.5-8.4 47.4-14.1 5.2-3.8 10.7-9.3 16.5-16.5-.8-17.4-1.9-31-3.5-40.8-1.6-9.8-4.3-20.6-8.2-32.6 3.3-6.5 5.4-11.3 6.5-14.3 6.4-17.9 9.3-30.3 11.6-36.3 1.9-5 5.8-5.4 6.6-11 .9-5.6-1.8-5.7-1.5-7.8.7-5.3 1.1-10.4 1.1-15.2 0-6.6.8-18 0-28.2-.2-2.2.7-6.7.4-9.6-.3-3.3-.7-4.5-1.5-10.4-.9-6.5-2.1-20.6-5.1-39.1-1.2-7.6-4-20.2-8.5-38-.9-3.4-3.2-6.2-6.5-7.6-29.5-12.7-46.6-20-51.2-22-3.8-1.6-6.6-4.7-10.4-9.1-.7-.8-2.2-2.1-4.3-3.9h-60z" fill="#202328"/><path class="st8" d="M-86.5 30.3c-5.1 6.7-9.5 11-13 12.9-3.4 1.8-20.3 9.1-51 22-2.7 1.1-4.8 3.4-5.8 6.2-1.3 3.7-2 6-2.3 6.9-1.4 5.2-3.7 16.5-3.7 16.4-.1.4-.2.7-.3 1-.3 1.1-.7 2.2-1.1 3.3-.6 1.7-3.7 8.8-4.2 10.4-1.5 5.7-2 9.3-2.9 18.9-.3 3.3-.5 5.1-.8 7-.3 1.8-.8 3.5-1.6 5.9-1.4 4-1.6 4.6-1.7 6-1 8.6-1.2 15.1-1.3 28.9 0 2.7 0 4.1-.1 5.6 0 2.2-.1 4-.3 7.5-.3 5.6-.4 7.7-.3 10.4.2 3.3.7 5.9 1.9 9.9.1.2.4 1.2.4 1.4.2.5.3 1 .4 1.4.5 1.7.8 3.1 1 4.5 0 .2.1.5.1.7.4 3.1.5 5.5.6 10.8.1 4.9.2 6.8.6 8.3 1.4 5.2 8.2 22.1 20.4 50.7l.1.2-10.4 71c16.3 15.3 34.7 23.8 55.2 25.5 3.5.3 7 .6 10.4.8.9.1 2.6.1 4.4 0 2.7-.2 5.4-.5 7.9-1.2 6.8-1.8 11.1-5.2 12-10.6 6-38.6 11.4-109.4 11.4-163.2 0-31-4.1-65.2-11.1-99.8-.8-3.7-1.6-7.5-2.6-11.9-.7-3-3-12.9-3.1-13.3-1.1-5-1.9-8.7-2.6-12.1C-81.6 64.2-82.3 58-82 53c.7-12.5 11.7-20.8 25.6-20.8 15.3 0 30.7 6.8 31.7 16.4.7 6.6.3 10.8-2 33-1 9-1.5 15-1.9 21.4-3.5 59.6-6 95.9-9.6 130.1-.4 3.3-.7 6.8-1.1 10.4-.6 5.9-3.2 28.3-3.7 33.6-1.3 12.1-2.2 21.1-2.8 29.1-1.5 19.5-1.4 32.7.7 41.8 3.8 16.7 9.5 27.1 16.3 32.6 4.5 3.6 8.8 4.7 12.7 4.2 26.9-2.9 36.1-6.1 47-13.9 5.1-3.7 10.5-9 16.1-16.1-.8-17.2-1.9-30.7-3.5-40.4s-4.3-20.6-8.2-32.4H35l.2-.3c3.3-6.5 5.4-11.3 6.5-14.2 4-11.4 11.1-35.1 11.6-36.3.7-1.8 1.5-3.1 3.1-4.7.1-.1.6-.7.6-.6 1.9-2 2.6-3.2 3-5.5.4-2.4.1-3.7-.6-4.9 0-.1-.5-.8-.6-1-.3-.6-.5-1.2-.4-1.9.7-5.3 1.1-10.3 1.1-15.1 0-1.8 0-2.5.2-8 .2-6.2.2-10.1.1-14.2-.1-2.1-.2-4.1-.3-5.9-.1-.9 0-1.7.2-4.4 0-.5.1-.8.1-1.2.2-1.7.2-3 .1-3.9-.1-.9-.2-1.7-.3-2.5 0-.2-.8-5.1-1.2-7.8.4 2.5-3-26.3-5.1-39.1-1.2-7.5-4-20.2-8.5-37.9-.8-3.2-3-5.8-6-7C9.2 52.5-7.9 45.1-12.6 43.2c-3.4-1.4-5.4-3.3-10.7-9.3-.7-.8-2-2-4-3.6h-59.2z"/></g><path id="Fill-5" class="st10" d="M-97.7 44.4c-.7 1.1-1.4 2.1-2.2 3.2l-1.2 1.5-1.2 1.5c-1.7 1.9-3.4 3.9-5.1 5.8-1.1 1.3-2.7 3-4.7 5.3l9.9 5.7.9.5-.9.5-11.5 6.3 5.4 16.7c1.9 5.8 3.8 11.5 5.7 17.2l2.9 8.6c1 2.9 2 5.7 2.9 8.6 2 5.7 4 11.4 6.2 17.1l3.3 8.4c1.1 2.8 2.3 5.6 3.4 8.4 2.3 5.6 4.7 11.2 7.1 16.7l7.3 16.6 7.3 16.6c-1.3-2.7-2.7-5.4-4-8.2l-3.9-8.2c-1.3-2.7-2.6-5.5-3.9-8.2l-3.8-8.3c-2.5-5.5-5-11-7.4-16.6-1.2-2.8-2.4-5.6-3.5-8.4-1.2-2.8-2.3-5.6-3.4-8.4-1.1-2.8-2.2-5.7-3.2-8.5s-2.1-5.7-3.1-8.6c-2-5.7-4-11.5-5.9-17.2l-2.8-8.6c-.9-2.9-1.9-5.8-2.8-8.6-1.8-5.8-3.7-11.6-5.4-17.3l-.2-.6.5-.3 11.3-5.9-9.5-5.6-.5-.3.4-.4 5.3-5.6c1.8-1.9 3.5-3.7 5.2-5.6l1.3-1.4c.4-.5.8-1 1.2-1.4.8-1 1.5-2 2.2-3.1 1.4-2.1 2.8-4.3 4.2-6.4-1.1 2.1-2.4 4.4-3.8 6.5z"/><path id="Stroke-9" class="st11" d="M-86.5 10.1v21.4c15 47 27 66.6 36.1 58.9s17-27.1 23.9-58V5.9l-60 4.2z"/><linearGradient id="Path-228_1_" gradientUnits="userSpaceOnUse" x1="-352.576" y1="734.514" x2="-351.751" y2="734.79" gradientTransform="matrix(59.1935 0 0 -73.4202 20809.244 53978.07)"><stop offset="0" stop-color="#fbcfbb"/><stop offset="1" stop-color="#c89983"/></linearGradient><path id="Path-228" d="M-85.6 15.1c12 20.4 19.2 29.8 21.4 28.1 3.4-2.5 20.2-4.2 20.2-.8 0 3.4-.1 4.4-2.1 11.3s-4.6 4.7-5 13.4 3.5 30.1 13 15.5c6.3-9.7 10.3-27.5 11.8-53.4V14.3l-59.3.8z" fill="url(#Path-228_1_)"/><path id="Fill-11" d="M-45.3 85.7s.2-.4.6-1c.4-.6.9-1.5 1.5-2.5s1.3-2.2 2-3.5c.3-.7.7-1.3 1-2 .2-.3.3-.7.5-1.1l.2-.5.1-.3v-.2c.1-.5 0-1.3-.1-2-.1-.8-.2-1.6-.1-2.5 0-.2.1-.4.1-.6 0-.1 0-.2.1-.3l.1-.3c.2-.4.3-.7.5-1 .3-.6.7-1.2 1.1-1.7.7-1 1.3-1.8 1.8-2.3l.8-.8-.5 1c-.3.6-.7 1.5-1.2 2.6-.2.5-.5 1.1-.7 1.7l-.3.9c0 .1 0 .2-.1.3v.7c0 .6.1 1.3.3 2.1.1.8.3 1.6.1 2.7 0 .1-.1.3-.1.4l-.1.3-.3.6c-.2.4-.4.7-.6 1.1-.4.7-.8 1.4-1.2 2-.4.6-.8 1.3-1.3 1.8-.4.6-.8 1.1-1.2 1.5-.4.5-.8.9-1.1 1.2-.3.4-.7.7-.9.9-.3.3-.5.4-.6.6-.4.1-.4.2-.4.2" fill="#979797"/><path id="Fill-13" class="st10" d="M5.6 247.5s.1.2.2.6c.2.4.4 1 .6 1.7.2.7.6 1.7.8 2.7.3 1.1.5 2.3.7 3.7.1 1.4.2 2.9-.1 4.5l-.3 1.2v.4l-.1.3v.2l-.1.2c-.1.1-.1.3-.2.3-.3.4-.8.7-1.2.9-.5.2-.9.3-1.4.4-.9.1-1.8.1-2.7 0-.9-.1-1.7-.2-2.5-.2-.4 0-.7.1-.8.2v.4c.1.6.5 1.4.9 2.2.8 1.5 1.8 2.9 2.9 4.2 1.1 1.3 2.3 2.5 3.5 3.6 1.2 1.1 2.4 2.1 3.6 3 1.2.9 2.4 1.8 3.4 2.5 1.1.7 2.1 1.4 3 2 .9.6 1.7 1.1 2.3 1.5 1.3.8 2.1 1.3 2.1 1.3l-.6-.3c-.4-.2-.9-.4-1.6-.7-.7-.3-1.6-.7-2.5-1.3-.5-.3-1-.5-1.5-.8-.5-.3-1.1-.6-1.7-.9-.6-.3-1.2-.7-1.8-1.1-.6-.4-1.2-.8-1.9-1.2-1.3-.9-2.6-1.8-3.9-2.9-1.3-1.1-2.6-2.3-3.8-3.6-1.2-1.3-2.3-2.9-3.2-4.5-.4-.8-.9-1.7-1.1-2.8v-.5c0-.1 0-.3.1-.5 0-.2.1-.4.2-.6.1-.2.3-.3.4-.5.3-.2.7-.3.9-.4.3-.1.5-.1.8-.1 1 0 1.8.1 2.7.2.8.1 1.6.2 2.4.1.4 0 .7-.1 1-.2.3-.1.5-.3.7-.5.1 0 .1-.1.1-.1l.1-.1v-.1l.1-.3v-.1s0-.1 0 0v-.1c.1-.3.2-.7.3-1.1.3-1.4.4-2.8.4-4.1-.1-2.6-.5-4.8-.8-6.4-.2-.8-.3-1.4-.4-1.8v-.5"/><path id="Fill-15" class="st10" d="M-9.8 389.5s0 1.1.1 3.2.2 5.1.4 9c.1 3.9.3 8.6.5 14 .1 2.7.2 5.6.3 8.6.1 3 .1 6.2.2 9.5.1 6.6.2 13.8.3 21.4 0 7.6 0 15.6-.2 23.9-.2 8.3-.5 16.9-1.1 25.6-.6 8.7-1.5 17.5-2.7 26.3-.6 4.4-1.2 8.8-1.9 13.1-.4 2.2-.7 4.4-1.1 6.5v.4c0-.2 0 0 0 0v-.2c0-.1-.1-.1-.1-.1l.1.1c.1 0 .2.1.3.1.4.2 1 .3 1.5.5.3.1.5.2.8.3.3.1.6.2.9.5.2.1.3.3.5.5s.3.6.2 1V554l-.1.2c0 .1-.1.3-.2.5-.2.6-.5 1.1-.8 1.6-.3.5-.6 1-.9 1.4-.6.9-1.2 1.8-1.7 2.7-.6.9-1.1 1.8-1.5 2.8-.2.5-.4.9-.6 1.4l-.6 1.5c-.4 1.1-1 2-1.4 2.9-.4.9-.7 1.9-.9 2.9-.5 2-.8 4.1-1.1 6.1-.2 1-.3 2-.5 3.1l-.1.8v.4l-.1.4c0 .1 0 .2-.1.4l-.1.4c-.1.3-.2.6-.3.8-.4 1-1 1.9-1.5 2.8-.6.8-1.1 1.7-1.6 2.5-1.1 1.7-2 3.4-2.8 5.1-.8 1.8-1.4 3.5-2 5.3-.3.9-.5 1.8-.7 2.7l-.6 2.7c-.4 1.8-.8 3.6-1.1 5.3-.7 3.5-1.4 6.9-2 10.2-2.4 13-4.3 23.9-5.6 31.6-1.3 7.6-2.1 12-2.1 12s.2-1.1.4-3.1c.3-2.1.7-5.1 1.3-8.9.6-3.8 1.3-8.5 2.1-13.8.8-5.3 1.8-11.3 2.9-17.9.6-3.3 1.2-6.7 1.8-10.2.3-1.8.7-3.5 1.1-5.4l.6-2.7c.2-.9.5-1.8.7-2.8.5-1.8 1.2-3.7 2-5.5.8-1.8 1.7-3.6 2.8-5.3.5-.8 1.1-1.7 1.6-2.5s1-1.7 1.4-2.6c.1-.2.2-.4.2-.6l.1-.3c0-.1.1-.2.1-.4l.1-.4V581.8l.1-.8c.1-1 .3-2 .5-3.1.3-2.1.7-4.1 1.1-6.2.2-1 .5-2.1 1-3.2s1-1.9 1.4-2.9l.6-1.5c.2-.5.4-1 .7-1.5.5-1 1-2 1.6-2.9.6-.9 1.2-1.8 1.7-2.8.3-.5.6-.9.8-1.4.3-.4.5-.9.7-1.3 0-.1.1-.2.1-.3l.1-.2v-.1s0-.2 0 0v.2l-.1-.1c-.1-.1-.3-.2-.6-.3-.2-.1-.5-.2-.7-.2-.5-.2-1-.3-1.6-.5-.1-.1-.3-.1-.5-.2s-.3-.2-.5-.4c-.1-.1-.2-.2-.3-.5 0-.1-.1-.4 0-.4v-.2l.1-.4c.4-2.2.7-4.3 1.1-6.5.7-4.3 1.3-8.7 1.9-13.1 1.2-8.8 2.1-17.5 2.8-26.2.6-8.7 1-17.2 1.2-25.5.2-8.3.3-16.3.4-23.9V434c-.1-6.6-.1-12.7-.2-18.1-.1-5.4-.1-10.1-.2-14-.3-8-.4-12.4-.4-12.4"/><path id="Fill-17" class="st10" d="M-115.9 391.1s-.7 4.3-1.9 11.9c-.6 3.8-1.3 8.4-2.2 13.7-.8 5.3-1.7 11.3-2.7 17.8-1 6.5-2 13.6-3 21-1 7.5-2 15.4-2.8 23.5-.9 8.2-1.6 16.6-1.9 25.2-.4 8.6-.6 17.4-.8 26.2-.1 4.4-.2 8.8-.3 13.1 0 2.2-.1 4.4-.1 6.5V553.2c0 .3-.1.6-.1.9 0 .3-.1.6-.2.9-.1.6-.3 1.1-.5 1.6-.7 2.1-1.5 4.1-2 6.1-.3 1-.5 2-.6 3 0 .3-.1.5-.1.8V568.4l.1.4c.4 2 1.1 4 1.6 6 .3 1 .5 2.1.6 3.2 0 .3.1.5.1.8 0 .3 0 .5.1.8v1.6c0 8.2-.1 16.2-.1 23.7-.1 7.5-.1 14.7-.1 21.3 0 6.6-.1 12.6-.2 18s-.1 10-.2 13.9c-.1 7.7-.2 12.1-.2 12.1s-.1-4.4-.2-12.1c0-3.8-.1-8.5-.2-13.9-.1-5.3-.1-11.4-.2-18 0-6.6-.1-13.7-.1-21.3 0-7.5-.1-15.5-.1-23.7v-.8-.7c0-.2 0-.5-.1-.7 0-.2 0-.5-.1-.7-.1-1-.3-2-.6-3l-.9-3c-.3-1-.6-2-.8-3.1l-.1-.4-.1-.4c0-.3 0-.6-.1-.8v-.1V566.8c0-.3 0-.6.1-.8.1-1.1.3-2.2.6-3.3.6-2.1 1.4-4.1 2-6.1.2-.5.3-1 .4-1.5 0-.2.1-.5.1-.7 0-.2.1-.4.1-.7v-.4V550.5c0-2.2.1-4.4.1-6.5l.3-13.2c.2-8.8.5-17.6.9-26.2.4-8.7 1.2-17.1 2.1-25.3.9-8.2 2-16.1 3.1-23.5 1.1-7.5 2.2-14.5 3.3-21 .5-3.3 1-6.4 1.6-9.3.5-3 1-5.8 1.5-8.4 1-5.3 1.8-9.9 2.5-13.6.7-3.8 1.3-6.7 1.7-8.8.5-2.5.7-3.6.7-3.6"/><path id="Fill-31" class="st10" d="M-31.4 207.4c1.2-2.8 2.3-5.7 3.4-8.5l3.3-8.6c1.1-2.9 2.2-5.7 3.2-8.6 1-2.9 2.1-5.8 3-8.7 1-2.9 1.8-5.8 2.7-8.8 1.7-5.9 3.4-11.8 5-17.7L-.9 111 4 93.3l5-17.2-14.6-6-.7-.3.6-.5 2.4-2.1c.4-.3.8-.7 1.3-.9.2-.1.5-.3.7-.4.2-.1.5-.3.7-.4 1-.5 2-.8 2.9-1.2 1-.4 2.7-.8 2.7-.9-.8-1.6-1.9-4-3.4-7.1-1.2-2.5-2.4-5-3.5-7.5 1.3 2.4 2.6 4.9 3.8 7.3l3.8 7.3.2.3-.3.1c-1 .4-2 .7-2.9 1.1-1 .4-1.9.8-2.8 1.2-.9.4-1.7 1.1-2.5 1.7-.5.4-1.1 1-1.7 1.6L10 75.1l.5.2-.2.6L8 84.8l-2.4 8.9C4 99.6 2.4 105.6.8 111.5c-1.6 5.9-3.2 11.9-4.9 17.8l-5 17.7c-1.7 5.9-3.4 11.8-5.2 17.7-.9 2.9-1.8 5.9-2.8 8.8-1 2.9-2.1 5.8-3.2 8.7-1.1 2.9-2.3 5.7-3.4 8.6-1.2 2.8-2.4 5.7-3.6 8.5-1.2 2.8-2.5 5.6-3.7 8.4-1.2 2.8-2.5 5.6-3.8 8.4l3.4-8.7z"/><path id="Fill-33" class="st10" d="M42.4 70.2l-4.9 18.5c-.4 1.5-.8 3.1-1.2 4.6L35.2 98l-2.1 9.3c-.7 3.1-1.3 6.3-1.8 9.4-.5 3.1-.9 6.3-1.4 9.5l-2.7 19-2.7 19-2.8 19-2.8 19c-.2 1.4.1 3 .1 4.7 0 .4 0 .9-.1 1.3 0 .1-.1.5-.2 1.2-.1.8-.3 1.6-.5 2.4-.7 3.1-1.5 6.2-2.4 9.3L5 243.9l-.7 1.4c-.1.2-.2.5-.3.7l-.3.7c-.4.9-.7 1.9-1.1 2.9-.7 2-1.1 4-1.9 6.1-.2.5-.4 1-.7 1.5l-.3.6-.3.3-.5.5c-.5.4-1 .7-1.4.9-.4.3-.8.5-1.1.9-.3.3-.6.7-.9 1.1l-1 1.3-1.9 2.5-29.8 39.2 2.4.6c1.2.4 2.3.7 3.5 1.2 1.1.4 2.3.9 3.4 1.4 1.1.5 2.2 1 3.3 1.6 1.1.6 2.2 1.2 3.2 1.8 1 .6 2.1 1.3 3.1 1.9.3.2.5.3.8.5l.7.5c.5.3 1 .8 1.5 1.2.5.4.9.8 1.4 1.3.5.4.9.9 1.3 1.3.8.9 1.6 1.9 2.4 2.8.4.5.7 1 1.1 1.5.4.5.7 1 1 1.5.3.5.7 1 1 1.5.3.5.6 1 .9 1.6l.9 1.6c.3.5.6 1.1.8 1.6.3.5.6 1.1.8 1.6.3.5.5 1.1.8 1.6l1.5 3.3c.5 1.1.9 2.2 1.4 3.4.1.3.3.6.4 1.2.2-2.3.4-4.4.7-6.3.2-1.4.4-2.9.7-4.3.3-1.4.6-2.9 1.1-4.3.1-.4.3-.7.4-1 .1-.3.3-.7.5-1 .3-.7.7-1.3 1.1-1.9.7-1.3 1.5-2.5 2.3-3.7.8-1.2 1.6-2.4 2.5-3.6.8-1.2 1.7-2.3 2.6-3.5 1.7-2.3 3.5-4.6 5.3-6.9.9-1.1 1.8-2.3 2.7-3.4l2.7-3.4.7-.8.4-.4c.2-.1.3-.2.5-.3.6-.4 1.3-.7 1.9-1 1.3-.7 2.5-1.4 3.6-2.4 1.1-.9 1.8-2.2 2.5-3.5.6-1.3 1.2-2.6 1.7-4-.5 1.4-1 2.7-1.6 4-.6 1.3-1.3 2.6-2.4 3.6-1.1 1-2.3 1.8-3.6 2.5-.6.4-1.3.7-1.9 1.1-.2.1-.3.2-.4.3-.3.2-.3.3-.4.3l-.7.9-2.7 3.4c-.9 1.1-1.8 2.3-2.7 3.4-1.8 2.3-3.5 4.6-5.2 7-.8 1.2-1.7 2.3-2.5 3.5l-2.4 3.6c-.8 1.2-1.5 2.4-2.3 3.7-.4.6-.7 1.3-1 1.9-.2.3-.3.6-.4 1-.1.3-.3.7-.4 1-.5 1.3-.8 2.7-1 4.1-.3 1.4-.5 2.8-.6 4.3-.3 2.9-.6 5.7-.8 8.6l-.3 2.7-.9-2.3c-.4-1.1-.8-2.3-1.3-3.4s-.9-2.2-1.4-3.3l-1.5-3.3c-.3-.5-.5-1.1-.8-1.6-.3-.5-.5-1.1-.8-1.6-.3-.5-.6-1.1-.8-1.6l-.9-1.6-.9-1.5c-.3-.5-.6-1-1-1.5-.3-.5-.7-1-1-1.5-.4-.5-.7-1-1.1-1.4-.7-.9-1.5-1.8-2.3-2.7-.4-.4-.8-.9-1.2-1.3-.4-.4-.9-.8-1.3-1.2-.5-.4-.9-.7-1.4-1.1l-.7-.5c-.2-.1-.5-.3-.7-.5-1-.7-2-1.3-3.1-1.9-1-.6-2.1-1.2-3.1-1.7-1.1-.6-2.1-1.1-3.2-1.6s-2.2-.9-3.3-1.4c-1.1-.4-2.2-.8-3.4-1.1-1.1-.3-2.3-.6-3.5-.9l-1.2-.3.7-.9 30.3-40.2 1.9-2.5.9-1.3c.3-.4.7-.9 1.1-1.3.4-.4.9-.8 1.4-1.1.5-.3.9-.6 1.2-.8.1 0 .2-.1.3-.3l.2-.3.2-.4c.2-.4.4-.9.6-1.3.7-1.8 1.2-3.9 1.9-5.9.3-1 .7-2 1.1-3l.3-.7c.1-.3.2-.5.3-.7l.7-1.4 10.8-22.7c.8-2.9 1.7-6 2.4-9.1.2-.8.3-1.5.5-2.3l.1-.9c.1-.6.1-1 .1-1.4 0-1.5-.3-3.1-.1-4.9l2.9-19 2.9-19 2.9-19 2.9-19c.5-3.2 1-6.3 1.5-9.5.6-3.2 1.3-6.3 2-9.4.7-3.1 1.5-6.2 2.3-9.3l1.2-4.6c.4-1.6.9-3.1 1.3-4.6l5.4-18.4z"/><g id="Stroke-35"><path id="path-8" d="M-86.9 29.5c7.1 11 12.6 19.1 16.5 24.3 5.8 7.8 13.7 15.7 16 19.5 2.3 3.9.1 6.9 1.3 9.1.8 1.5 2.5 2.3 5.2 2.6.6-1.4.7-2.5.4-3.5-1.1-4-3.2-8.6-2.2-12.2 2.1-7.2 4.8-7.4 10-13s11.3-23 13-26.9c.3-.7 4.4 6.9 3.4 21.7-1.1 16.8-3.1 62.1-9.5 135.4-1 11.9-3 29.2-5.1 50.8-1.2 12.4-2.5 34.4-7 66h-20.3c2-43.6 3.5-65.6 3.5-66 0-8.7.5-39.5-3.5-79.9-1.5-15.8-6.2-41.2-13.3-73.1-4.3-19.1-5.5-25.6-8-39.9-.3-1.8-2.1-11-2.1-13 0-2.1.9-1.6 1.7-1.9z" fill="#c3091f"/><path d="M-87.3 30.4s0 .1 0 0c-.5.1-.5.1-.5 1.1 0 .8.3 3.1.9 6.3.1.3.1.6.2.9.3 1.7 1 5.6 1 5.6 3 16.8 4.1 22.8 8 39.9 7.1 31.8 11.8 57.3 13.3 73.2 2.8 29 3.6 51.7 3.5 76.8v3.1c0-1.5-1.9 33.3-3.4 65.1h18.6c1.9-13.5 3.4-26 4.6-39 .5-5.8 2-22.8 2.3-25.7v-.5c0 .3 4.4-42.8 5.1-50.8 2.8-32.4 5-61.3 6.8-88.9.9-14.6 2.7-45.3 2.8-46.5.4-6.4-.1-12-1.2-16.4-.4-1.4-.8-2.6-1.2-3.5-1.2 2.9-3.8 9.5-5.1 12.6-1.7 3.8-3.2 6.9-4.7 9.4-1 1.6-1.9 2.9-2.7 3.8-1 1.1-2 2-3.1 3.1.1-.1-2 1.8-2.5 2.2-2.1 2-3.2 3.8-4.2 7.3-.5 1.7-.2 3.8.7 6.9.2.5.3 1 .5 1.8.6 1.8.7 2.2.9 3 .3 1.2.2 2.5-.5 4l-.2.6-.6-.1c-2.9-.3-4.9-1.3-5.8-3-.5-1-.6-1.7-.4-3.8.2-2.4.1-3.7-.9-5.3-.7-1.2-2.1-2.9-4.3-5.6-.3-.3-5.1-5.9-6.7-7.7-1.8-2.1-3.3-4-4.6-5.7-.1-.2-.2-.3-.3-.4-4-5.1-9.4-13-16.3-23.8zm50.2 207.1z" fill="none" stroke="#000" stroke-width="1.68" stroke-opacity=".44"/></g><path id="Fill-37" class="st10" d="M-86 32.6l.8 3.2c.5 2.1 1.1 4.3 1.6 6.4.5 2.1 1 4.3 1.5 6.4.5 2.1 1 4.3 1.5 6.4.5 2.1.9 4.3 1.4 6.4.5 2.1.9 4.3 1.4 6.4.4 2.1.9 4.3 1.3 6.4l1 5.2 2.8-2.6c1.3-1.2 2.5-2.3 3.8-3.5 1.3-1.2 2.5-2.3 3.8-3.4 1.3-1.1 2.6-2.3 3.9-3.4-1.2 1.3-2.3 2.5-3.5 3.8-1.2 1.2-2.4 2.5-3.6 3.7-1.2 1.2-2.4 2.5-3.6 3.7l-3.6 3.7-.9.9-.3-1.3-1.4-6.4c-.5-2.1-.9-4.3-1.4-6.4-.5-2.1-.9-4.3-1.4-6.4-.4-2.1-.9-4.3-1.3-6.4-.4-2.2-.9-4.3-1.3-6.5s-.8-4.3-1.2-6.5c-.4-2.2-.8-4.3-1.1-6.5l-.5-3.2c-.2-1.1-.3-2.2-.5-3.3.2 1.1.5 2.1.8 3.2z"/><path id="Fill-39" class="st10" d="M-37.5 59c.5.1 1.1.2 1.6.7l.2.2.1.1.1.1c.1.1.1.2.2.4s.3.5.4.7c.5 1 .9 1.9 1.4 2.9.4 1 .9 2 1.3 2.9l1.3 3 1.2 3 1.2 3 .4-5.3c.2-1.4.3-2.8.5-4.2l.5-4.2.5-4.2.6-4.2.6-4.2c.2-1.4.4-2.8.7-4.2 0 1.4-.1 2.8-.2 4.3-.1 1.4-.1 2.8-.2 4.2l-.3 4.2-.3 4.2-.4 4.2c-.1 1.4-.3 2.8-.4 4.2l-.4 4.2-.5 4.2-.4 3.5-1.2-3.3-1.1-3-1.1-3-1.1-3-1.1-3-1.1-3-1.1-3c-.1-.2-.2-.5-.3-.7-.1-.1-.1-.2-.2-.4v-.1c-.1-.1-.1-.2-.1-.2-.3-.3-.7-.6-1.2-.7-.5-.1-1-.2-1.5-.2h-1.6c.8 0 1.9-.2 3-.1z"/><path id="Fill-41" class="st10" d="M-50 86.7c-1.1 1.2-2.7 2.9-4.6 5.3-.9 1.2-1.9 2.6-2.6 4.2l-.3.6-.1.3v.3c0 .4 0 .9.1 1.4l.3 3c.4 4.2.8 9 1.1 14.2.3 5.2.6 10.8.7 16.8.1 6 .2 12.3.1 18.8 0 1.6-.1 3.3-.1 4.9 0 .8 0 1.7-.1 2.5v2.5c0 3.3.3 6.7.5 10 .3 3.4.6 6.8.9 10.3.3 3.4.5 6.9.7 10.4.3 6.9.3 13.9 0 20.8-.1 1.7-.3 3.5-.5 5.1-.3 1.7-.5 3.3-.8 5-.6 3.3-1.1 6.5-1.4 9.7-.7 6.5-1.4 12.7-2.1 18.6-.7 5.9-1.3 11.5-1.9 16.7-.6 5.2-1.1 9.9-1.6 14.1-.5 4.2-.9 7.8-1.3 10.9-.7 6-1.2 9.5-1.2 9.5s.3-3.5.8-9.5c.3-3 .6-6.7 1-10.9s.8-9 1.3-14.1c.5-5.2 1-10.8 1.6-16.7.6-5.9 1.2-12.2 1.8-18.6.3-3.3.8-6.6 1.3-9.9.3-1.7.5-3.3.8-5 .2-1.7.4-3.3.5-5 .3-6.8.3-13.7 0-20.6-.2-3.4-.4-6.9-.6-10.3-.3-3.4-.6-6.9-.8-10.3-.3-3.4-.5-6.8-.5-10.2v-2.6c0-.8.1-1.7.1-2.5 0-1.6.1-3.3.1-4.9.1-6.5.2-12.8.2-18.7 0-5.9-.2-11.6-.4-16.8-.2-5.2-.5-9.9-.8-14.1-.1-1.1-.1-2.1-.2-3.1V97s0-.1.1-.2l.1-.2.3-.6c.8-1.7 1.8-3 2.8-4.2.9-1.2 1.9-2.2 2.7-3 .7-.9 2.1-2.2 2-2.1z"/><path id="Fill-43" class="st10" d="M-69.7 75.6s.3.1.8.3c.5.2 1.2.5 2 .8 1.6.7 3.7 1.8 5.7 3s3.9 2.5 5.3 3.6c.7.5 1.3 1 1.6 1.4.4.3.6.6.6.6s-.3-.1-.8-.3c-.5-.2-1.2-.5-2-.8-1.6-.7-3.7-1.8-5.7-3s-3.9-2.5-5.3-3.6c-.7-.5-1.3-1-1.6-1.4l-.6-.6"/><path id="Fill-45" class="st10" d="M-32.3 71.1c0-.1 0-.1 0 0s0 .3-.1.5c0 .4 0 1.1-.1 1.9 0 .8-.1 1.8-.1 2.9 0 .6-.1 1.2-.1 1.8 0 .3 0 .6-.1 1 0 .3-.1.7-.1 1-.2 1.4-.4 2.9-.8 4.5-.3 1.6-.7 3.2-1.2 4.9-.4 1.7-.9 3.4-1.4 5.2-.5 1.7-1 3.5-1.6 5.3-.6 1.8-1.1 3.5-1.7 5.2-.6 1.7-1.2 3.4-1.7 5.1-.6 1.6-1.1 3.2-1.7 4.7-.5 1.5-1.1 2.9-1.6 4.2-1 2.6-1.8 4.7-2.5 6.2-.6 1.5-1 2.3-1 2.3s.2-.9.7-2.5c.2-.8.5-1.7.8-2.8.3-1.1.7-2.3 1.1-3.6.4-1.3.8-2.8 1.3-4.3s.9-3.1 1.5-4.8c1-3.3 2.1-6.8 3.2-10.3.6-1.8 1.1-3.5 1.6-5.2l1.5-5.1c.5-1.7 1-3.3 1.4-4.8.2-.8.4-1.5.6-2.2.2-.7.3-1.4.5-2.1.1-.3.1-.7.2-1 .1-.3.1-.6.1-.9l.3-1.8c.2-1.1.3-2.1.5-2.9.1-.8.3-1.4.3-1.8.1-.3.1-.5.2-.6-.1 0-.1-.1 0 0 0-.1 0-.1 0 0 0-.1 0-.1 0 0 0-.1 0-.1 0 0"/><path id="Fill-47" class="st10" d="M-34.8 64.7s0 .6-.2 1.8c-.1.6-.1 1.2-.2 2s-.2 1.7-.4 2.6c-.1 1-.3 2-.5 3.1s-.4 2.2-.7 3.4c-.3 1.2-.6 2.4-1 3.6-.4 1.2-.8 2.4-1.3 3.6-.5 1.2-.9 2.4-1.4 3.6-.5 1.2-.9 2.3-1.4 3.4-.5 1.1-.9 2.2-1.4 3.2-.4 1-.9 2-1.3 2.8-.8 1.8-1.5 3.2-2 4.2l-.8 1.6s.2-.6.5-1.7.8-2.6 1.4-4.5c.3-.9.6-1.9 1-3 .4-1 .7-2.1 1.2-3.3.4-1.1.8-2.3 1.3-3.5.4-1.2.9-2.4 1.3-3.6.5-1.2.9-2.4 1.3-3.6l.6-1.8c.2-.6.4-1.2.5-1.7.3-1.1.7-2.3.9-3.3.3-1.1.6-2.1.8-3 .5-1.9.9-3.4 1.2-4.5.4-.8.6-1.4.6-1.4"/><path id="Fill-49" class="st10" d="M-60.5 192.4s.1.3.3.8c.2.5.5 1.2.8 2l.3.6c.1.2.2.4.3.5l.1.1.1.1.3.3c.2.2.3.4.5.6.4.4.8.7 1.2 1.1l.7.7c.2.3.5.6.6 1 .2.4.2.8.2 1.2v.5c0 .2-.1.4-.1.6-.1.7-.4 1.3-.7 1.8-.6 1.1-1.4 1.9-2.1 2.4-.4.3-.7.5-1 .7-.3.2-.6.4-.8.5-.2.1-.4.2-.5.3-.1.1-.2.1-.2.1s.2-.2.5-.6c.2-.2.4-.4.6-.7.2-.3.5-.6.7-.9.3-.3.5-.7.8-1.1.3-.4.5-.9.7-1.3.2-.5.3-.9.4-1.4v-.7c0-.2 0-.4-.1-.6-.1-.3-.5-.7-.9-1.1-.4-.4-.8-.9-1.2-1.3-.2-.2-.3-.5-.5-.7-.1-.1-.1-.2-.2-.3l-.1-.2-.1-.1v-.2c-.2-.3-.2-.6-.3-.8-.1-.3-.1-.5-.1-.7-.2-.9-.2-1.7-.2-2.2v-1"/><path id="Fill-51" class="st10" d="M-46.2 289.9h-.7c-.4 0-1.1 0-1.8-.1-.8-.1-1.6-.2-2.6-.5-.5-.1-.9-.3-1.4-.5-.2-.1-.5-.2-.7-.4-.2-.1-.5-.3-.7-.4-.9-.6-1.6-1.3-2.3-2-.7-.7-1.3-1.3-1.7-1.9-.5-.6-.8-1.1-1.1-1.5-.2-.4-.4-.6-.4-.6s.2.1.6.4c.4.2.9.6 1.5 1s1.3.9 2.1 1.5c.4.3.7.6 1.1.8.4.3.8.6 1.2.8.2.1.4.2.6.4l.6.3 1.2.6c.8.4 1.6.7 2.3 1 .7.3 1.3.6 1.7.7.3.2.5.4.5.4"/><path id="Fill-53" class="st10" d="M59.6 166.4s-.2.4-.7 1.2c-.4.8-1.1 1.8-1.9 3.1-.4.6-.8 1.3-1.3 2s-.9 1.5-1.4 2.3c-1 1.6-2.1 3.2-3.1 4.9-.3.4-.5.8-.7 1.3-.2.4-.5.8-.7 1.3-.5.8-.9 1.7-1.3 2.5s-.9 1.6-1.3 2.4c-.4.8-.8 1.5-1.1 2.1-.7 1.3-1.3 2.4-1.7 3.2-.4.8-.7 1.2-.7 1.2s.1-.5.4-1.3c.3-.8.6-2 1.1-3.4.3-.7.5-1.5.9-2.3.3-.8.7-1.6 1-2.5.4-.9.8-1.7 1.2-2.6.2-.4.5-.9.7-1.3.2-.4.5-.9.8-1.3 1.1-1.7 2.2-3.4 3.3-4.8.6-.7 1.1-1.5 1.6-2.1.5-.7 1-1.3 1.5-1.9 1-1.1 1.8-2.1 2.4-2.7.7-1 1-1.3 1-1.3"/><path id="Fill-55" class="st10" d="M27.1 159.7s1.3.5 3.6 1.2c1.2.4 2.6.8 4.2 1.3 1.6.4 3.5.9 5.5 1.2.5.1 1 .1 1.5.1h.8c.3 0 .5 0 .8-.1 1.1-.2 2.2-.5 3.3-.8 2.2-.7 4.6-1.7 7.1-2.6.6-.2 1.3-.4 2-.6.7-.2 1.4-.3 2.3-.2.1 0 .2.1.4.1.1 0 .1 0 .2.1.1 0 .1.1.2.1s.1.1.2.1l.2.2c.1.1.2.3.3.4 0 .1.1.2.1.2V161.3c0 .1-.1.2-.1.3 0 .1-.1.2-.1.3l-.1.3c-.1.2-.1.4-.2.5-.2.3-.3.7-.5 1-1.4 2.5-3.1 4.7-4.7 7-1.7 2.2-3.5 4.4-5.2 6.5-1.8 2.1-3.6 4.2-5.3 6.1-1.7 2-3.5 3.8-5.1 5.6-1.7 1.7-3.3 3.4-4.8 4.8-1.6 1.4-3.1 2.6-4.6 3.5-1.4.9-2.8 1.6-4 2-1.2.4-2.1.5-2.8.5h-1 .3c.2 0 .4 0 .7-.1.6-.1 1.6-.3 2.7-.8s2.4-1.2 3.7-2.2c1.3-1 2.8-2.3 4.3-3.7 1.5-1.5 3-3.1 4.6-4.9 1.6-1.8 3.2-3.7 4.9-5.7 1.7-2 3.4-4.1 5.2-6.2 1.7-2.1 3.5-4.3 5.1-6.5 1.7-2.2 3.3-4.5 4.7-6.8.2-.3.3-.6.4-.9.1-.1.1-.3.2-.4l.1-.2v-.1c0-.1 0-.1.1-.2v-.4.1h-.1c-.4-.1-1.1 0-1.7.1-.6.1-1.2.3-1.8.5-2.4.8-4.8 1.7-7.2 2.3-1.2.3-2.3.6-3.5.7-.3 0-.6 0-.9.1h-.8c-.6 0-1.1-.1-1.6-.2-2.1-.4-3.9-1-5.6-1.5-1.6-.6-3-1.1-4.1-1.6-1.1-.5-2-.9-2.6-1.1-1-.1-1.3-.3-1.3-.3"/><path id="Fill-57" class="st10" d="M17.2 212.9s.2 0 .6.1c.4 0 .9.1 1.6.2 1.3.1 3.3.3 5.6.1 1.1-.1 2.4-.2 3.6-.6.6-.2 1.2-.4 1.7-.8.6-.3 1.1-.7 1.7-1.1 1.1-.8 2.3-1.8 3.4-2.8 1.1-1 2.2-2.1 3.2-3.2s1.9-2.3 2.5-3.5c.1-.3.2-.6.2-.8v-.1-.1-.1c.2.1 0 0 .1 0h-.1l-.3-.1h-.2-1c-.6.1-1.3.2-1.9.5l-.9.3c-.3.1-.6.2-.9.4-1.2.5-2.3 1.1-3.4 1.6-.5.3-1 .5-1.5.8-.5.2-.9.5-1.3.7-.8.5-1.5.9-2.1 1.2-1.2.7-1.9 1-1.9 1s.2-.1.4-.4c.3-.2.7-.6 1.2-1s1.2-.9 2-1.5 1.7-1.2 2.6-1.8c1-.6 2.1-1.3 3.3-1.9 1.2-.6 2.5-1.2 4.1-1.5.2 0 .4-.1.6-.1h.7c.1 0 .3 0 .4.1h.4l.3.1h.2l.2.1.2.1.2.2c.1.1.2.3.3.4.1.2.1.3.1.5v.4c0 .6-.2 1-.3 1.4-.3.8-.8 1.5-1.2 2.2-.5.7-1 1.3-1.5 1.9-1.1 1.2-2.2 2.3-3.3 3.3l-1.8 1.5c-.6.5-1.2.9-1.8 1.3-.6.4-1.2.8-1.9 1.1-.7.3-1.4.6-2.1.7-.7.2-1.4.3-2 .3-.7 0-1.3.1-1.9 0-1.2 0-2.3-.2-3.2-.3-.9-.1-1.8-.3-2.4-.5-.7-.2-1.2-.3-1.5-.4-.8.2-1 .1-1 .1"/><path id="Fill-59" class="st10" d="M28.5 218.8s.5-.3 1.4-.8c.9-.5 2.1-1.1 3.7-1.8.8-.3 1.6-.7 2.5-1.1.9-.4 1.9-.7 2.9-1.1 1-.3 2.1-.7 3.2-.9.5-.1 1.1-.3 1.7-.4.6-.1 1.1-.2 1.7-.3 1.1-.2 2.3-.3 3.5-.3h.9c.3 0 .6 0 .9.1h.4l.4.1c.3 0 .6.1.8.1 1.1.2 2.2.6 3.1 1.1.9.5 1.7 1.2 2.3 1.9.6.7.9 1.5 1.2 2.1.2.7.4 1.3.5 1.8 0 .3.1.5.1.7v.9s0-.1-.1-.4c0-.1-.1-.3-.1-.5-.1-.2-.1-.4-.2-.6-.2-.5-.4-1-.7-1.6-.3-.6-.8-1.2-1.3-1.7-.6-.6-1.3-1-2.1-1.4-.8-.4-1.8-.6-2.7-.8-.2 0-.5-.1-.7-.1H51.1 49.4c-1.1 0-2.2.1-3.3.3-1.1.1-2.2.4-3.2.6-1.1.2-2.1.5-3.1.8-.5.1-1 .3-1.5.4-.5.1-1 .3-1.4.4-.9.3-1.8.5-2.6.8-1.6.5-3 .9-3.9 1.2-1.3.3-1.9.5-1.9.5"/><path id="Fill-61" class="st10" d="M-173.8 149.6s.1.2.2.6c.2.4.4 1 .7 1.7.6 1.5 1.4 3.6 2.3 6.2.5 1.3 1 2.7 1.6 4.1.6 1.5 1.2 3 1.9 4.5l2.1 4.8c.8 1.6 1.6 3.2 2.5 4.7.5.8 1 1.5 1.5 2.2.5.7 1.1 1.4 1.6 2.1 1.1 1.4 2.2 2.8 3.3 4 1.1 1.3 2.2 2.5 3.3 3.7 1.1 1.2 2.1 2.3 3 3.3 1.9 2 3.4 3.7 4.5 4.9 1.1 1.2 1.7 1.9 1.7 1.9s-.7-.6-1.9-1.6c-.6-.5-1.4-1.1-2.2-1.9-.8-.7-1.8-1.6-2.8-2.5-1-.9-2.1-2-3.2-3.1s-2.3-2.3-3.5-3.6c-1.2-1.3-2.4-2.6-3.5-4-.6-.7-1.1-1.4-1.7-2.2-.6-.7-1.1-1.5-1.6-2.3-1-1.6-1.8-3.3-2.6-4.9-.8-1.6-1.4-3.3-2-4.9-.6-1.6-1.1-3.2-1.6-4.7s-.9-2.9-1.3-4.2c-.4-1.3-.7-2.5-1-3.6-.3-1.1-.5-2-.7-2.8-.2-.8-.3-1.4-.4-1.8-.2-.4-.2-.6-.2-.6"/><path id="Fill-63" class="st10" d="M-158.7 129s.3.3.9.8c.6.5 1.3 1.2 2.3 2.1 1 .9 2.1 1.8 3.3 2.8.6.5 1.3.9 2 1.3.1.1.4.2.5.3l.5.3c.4.2.7.4 1.1.5.8.4 1.5.7 2.3 1 .8.3 1.5.7 2.3 1 1.5.6 2.8 1.2 4 1.8.6.3 1.1.5 1.6.7.5.2.9.4 1.2.6.7.3 1.1.6 1.1.6s-.4-.1-1.2-.2c-.7-.2-1.8-.4-3-.7-.6-.2-1.3-.4-2-.6-.7-.2-1.5-.5-2.2-.7-1.5-.5-3.1-1.2-4.7-1.9l-1.2-.6-.6-.3c-.2-.1-.3-.2-.6-.3-.8-.5-1.4-1-2.1-1.6-1.2-1.1-2.3-2.3-3.1-3.3-.4-.5-.8-1-1.1-1.4-.3-.4-.6-.8-.8-1.1-.2-.3-.4-.6-.5-.8.1-.2 0-.3 0-.3"/><path id="Fill-65" class="st10" d="M-151.2 212.1s-.3.1-.7.2c-.5.1-1.2.3-2.1.6-.9.2-2 .5-3.3.7-.6.1-1.3.2-2.1.3-.4 0-.7.1-1.2.1h-.6c-.2 0-.4-.1-.6-.1-1.6-.3-3.3-.8-5-1.5-1.7-.7-3.5-1.5-5.2-2.8-.4-.3-.8-.7-1.2-1.1-.4-.4-.8-.9-.9-1.7 0-.2-.1-.4 0-.6v-.3c0-.1.1-.2.1-.3l.1-.1s.1-.1 0-.1l.1-.2.2-.2.2-.2c.5-.5 1-.8 1.5-1.1 1-.6 2-.9 3.1-1.3 1-.3 2.1-.6 3.1-.8 2.1-.5 4.2-.8 6.3-1 1.1-.1 2.1-.2 3.1-.3.5 0 1 0 1.6-.1h1.6c2.2.3 4 1.2 5.6 2.1 1.6.9 3 1.9 4.3 2.9 1.3 1 2.4 1.9 3.4 2.8 1 .8 1.8 1.6 2.5 2.3.7.6 1.2 1.2 1.6 1.5.4.3.5.5.5.5s-.8-.6-2.3-1.8c-.7-.6-1.7-1.2-2.7-2-1.1-.7-2.2-1.6-3.6-2.5-1.3-.9-2.8-1.8-4.4-2.6l-1.2-.6c-.4-.2-.8-.4-1.3-.5-.9-.3-1.8-.6-2.6-.6H-153.9c.1 0 0 0 0 0H-154.7c-.5 0-1 .1-1.5.1l-3 .3c-2 .2-4.1.6-6.2 1-1 .2-2 .5-3 .8-1 .3-1.9.6-2.8 1.1-.4.2-.8.5-1.1.7l-.1.1-.1.1-.1.2s.1-.1 0 0v.4c0 .3.3.6.5 1 .3.3.6.6 1 .9 1.5 1.2 3.2 2.1 4.8 2.8 1.6.7 3.2 1.4 4.7 1.7.2 0 .4.1.6.1.2 0 .3.1.5.1h1.1c.7 0 1.4 0 2-.1 1.3-.1 2.4-.2 3.3-.4 1.9-.3 2.9-.5 2.9-.5"/><path id="Fill-67" class="st10" d="M-146.1 286.1h.5c.3 0 .8 0 1.4-.1 1.2 0 2.9-.1 5-.1s4.5-.1 7.1-.1c1.3 0 2.6-.1 4-.1 1.3 0 2.7-.1 4.1-.2 1.4-.1 2.7-.2 4-.4.6-.1 1.3-.3 1.8-.4l.4-.2.1-.1.2-.1c.2-.1.3-.2.4-.2.1-.1.2-.2.4-.3.9-.7 1.8-1.6 2.6-2.5.8-.9 1.4-1.8 2-2.6.6-.8 1.1-1.6 1.6-2.3.5-.7.9-1.3 1.2-1.8.7-1 1-1.6 1-1.6s-.1.2-.2.5-.3.7-.6 1.3c-.2.6-.6 1.2-.9 2-.4.8-.8 1.6-1.4 2.5-.5.9-1.1 1.9-1.9 2.8-.7 1-1.5 2-2.6 2.9-.3.2-.6.5-.9.6l-.2.1-.1.1c-.1 0 0 0 0 0h-.1l-.5.3c-.3.1-.7.3-1 .3-.3.1-.7.2-1 .2-1.4.3-2.8.4-4.2.5-1.4.1-2.8.1-4.2.1-1.4 0-2.7 0-4-.1-1.3 0-2.6-.1-3.7-.2a201.723 201.723 0 0 1-6.1-.6c-.8-.1-1.6-.2-2.2-.3-.6-.1-1.1-.1-1.4-.2-.4.3-.6.3-.6.3"/><path id="Fill-69" class="st10" d="M-103.7 276.5v.5c0 .3-.1.7-.2 1.3-.1.5-.3 1.1-.6 1.7-.1.3-.3.6-.5.9l-.6.9c-.1.1-.2.3-.4.4-.1.1-.3.2-.4.4l-.9.6c-.6.3-1.2.6-1.7.7-.5.1-1 .2-1.3.2h-.5s.1-.1.4-.3c.2-.2.6-.5 1-.8.4-.3.8-.7 1.3-1l.6-.6.3-.3.3-.3c.4-.5.8-1 1.1-1.5.4-.5.7-1 1-1.4.3-.4.6-.7.8-1 .2-.3.3-.4.3-.4"/><path id="Stroke-85" class="st11" d="M-96.9 339.4c.8.8 41.6 47.2 43.1 48.6 1.5 1.4 4.1 1.4 7.8 0 1.7.6 3.2.9 4.3.9 1.7 0 2.6-.9 3.5-.9 3.9 0 6.1.3 7.8-1.3.8-.7 1.7-4.1 1.7-7.3.1-3.5-.7-7 0-7.8 5.2-6.2 5.7-11.5 1.3-16L-73 316.2"/><linearGradient id="Path-141_2_" gradientUnits="userSpaceOnUse" x1="-354.404" y1="731.833" x2="-355.466" y2="732.082" gradientTransform="matrix(10.1079 -57.3247 -66.1825 -11.6698 51970.977 -11460.678)"><stop offset="0" stop-color="#c89983"/><stop offset="1" stop-color="#fbcfbb"/></linearGradient><path id="Path-141" d="M-96.3 338.8c.2.1 14.9 17.4 36.9 41.6 2-2.2 3.7-3.7 5.3-4.8 1.5-1.1 3.8.8 7.1 5.5.3-2.8 1.5-5 3.8-6.7 2.2-1.7 4.2-1 5.9 2.1 0-5.3.7-8.7 2.1-10.1 1.4-1.4 2.7-.8 3.8 1.7-.2-4.2 0-6.9.4-8 1.3-3.2 4-3.2 4.2-3.4 1.7-1.5-37.5-34.2-37.8-34.5-.3-.5-2.3-2.9-5-2.5-.8.1-3.5-3.4-4.1-2.9-9.2 8.9-22.6 22-22.6 22z" fill="url(#Path-141_2_)"/><path id="Stroke-83" class="st11" d="M-13 328.2c-1.5 4.3-3.2 8.5-5.3 12.6-.9 1.9-1.6 3.1-2.1 3.8-.8 1.2-7.9 9.5-13.9 17.3-4.5 5.9-8.1 11.5-9.1 12.5-2.3 2.4-5.8 1.9-7.2.8-1.4-1.1.4-3.9 1.1-5.5 3.3-7.7 5.9-11.3 5.2-11.2-1.3.1-13.2 15.6-15.2 17.7-2 2.1-2.8 3-4.8 3.5s-3.7-.3-4.8-1.3c-.7-.7-1.6-1.7-2.6-3-5.2-.3-8-1.9-8.3-4.8-.3-2.9 4.5-11.4 14.3-25.5-6.1 4.9-10 8.2-11.7 9.9-2.2 2.2-2.8 4.7-3.9 5.2-3.7 1.6-6.5-3.5-6.5-5.2s.9-3.5 3-7.3c1.4-2.6 8.1-9.9 20-22-4.3-4.7-5.5-7.8-2.5-8.4 8.7-1.7 27.9-10.5 29.2-10.3 1.8.3 13.9 4.3 24.8 12.6 2.1 2.3 1.5 5.1.3 8.6z"/><path id="Fill-87" class="st17" d="M-71.8 375.2s.2-.4.5-1.1c.3-.7.9-1.6 1.5-2.7 1.3-2.2 3.1-5.1 5-7.9 1.9-2.8 4-5.5 5.6-7.4.8-1 1.5-1.8 2-2.3.5-.6.8-.9.8-.9s-.2.4-.5 1.1c-.3.7-.8 1.6-1.5 2.7-1.3 2.2-3.1 5.1-5 7.9-1.9 2.8-4 5.5-5.6 7.4-.8 1-1.5 1.8-2 2.3-.5.6-.8.9-.8.9"/><path id="Fill-7" class="st10" d="M-149.9 68.5L-145 87l2.4 9.2c.8 3.1 1.6 6.2 2.3 9.3.4 1.5.7 3.1 1.1 4.7.4 1.6.7 3.1 1.1 4.7.3 1.6.7 3.1 1 4.7.3 1.6.6 3.1.9 4.7l.5 2.3.4 2.4c.3 1.6.6 3.1.8 4.7.5 3.1 1 6.3 1.4 9.5.4 3.2.8 6.3 1.1 9.5.3 3.2.5 6.4.6 9.6.2 6.4.3 12.7.4 19.1 0 12.7-.4 25.5-1.1 38.2.8 1.9 1.6 4.1 2.4 6.4.4 1.1.7 2.3 1 3.5.2 1.2.3 2.4.5 3.6.1.6.2 1.1.4 1.6 0 .1.1.3.3.8.1.2.3.5.4.7.6 1 1.2 2 1.9 2.9.7 1 1.4 2 2 3l1.7 3.2c2.3 4.2 4.6 8.3 7.1 12.3 1.2 2 2.5 4 3.8 6l.5.7.2.4.3.4c.2.2.3.4.5.6l.6.6c.8.9 1.6 1.7 2.4 2.7.8.9 1.5 2 2.1 3.1l.4.8.4.9.3.9c.2.5.2.5.2.6.2.3.3.5.4.6.1.1.3.2.5.3.4.2 1.1.3 1.8.7.3.2.6.5.9.8l.6.7 1.1 1.4 8.9 11.2 17.7 22.4.4.5-.5.5-10.3 10.1-10.4 10.1-20.8 20.1-.5.5-.3-.6-9.2-15.9-9.1-15.9-9.1-15.9-9.1-16 9.4 15.8 9.4 15.8 9.4 15.8 9 15.3 20-19.9 10.3-10.1 9.8-9.6-17.4-21.8-8.9-11.2-1.1-1.4-.6-.7c-.1-.2-.3-.3-.4-.4-.3-.2-.8-.3-1.5-.6-.3-.1-.7-.3-1-.6-.3-.3-.5-.6-.7-1-.2-.3-.2-.4-.2-.5l-.5-1.2-.3-.8-.4-.8c-.5-1-1.2-1.9-1.9-2.8-.7-.9-1.6-1.7-2.4-2.6-.2-.2-.4-.5-.6-.7-.2-.2-.4-.5-.6-.8l-.3-.4-.3-.4-.5-.7c-1.3-2-2.6-4-3.8-6.1-2.5-4.1-4.9-8.2-7.1-12.4l-1.7-3.1c-.6-1-1.2-2-1.9-2.9-.7-1-1.3-2-1.9-3.1-.2-.3-.3-.6-.4-.8-.3-.5-.3-.7-.4-.9-.2-.7-.4-1.3-.4-1.9-.2-1.2-.3-2.4-.5-3.5-.1-.3-.1-.6-.2-.8l-.2-.8c-.2-.6-.3-1.1-.5-1.7-.7-2.2-1.6-4.5-2.4-6.7.7-13 1.1-25.7 1.2-38.5 0-6.4 0-12.7-.2-19.1-.1-3.2-.2-6.3-.5-9.5-.2-3.2-.6-6.3-1-9.5s-.8-6.3-1.3-9.4c-.2-1.6-.5-3.1-.8-4.7l-.4-2.3-.4-2.3c-.3-1.6-.6-3.1-.9-4.7-.3-1.6-.6-3.1-.9-4.7-.3-1.6-.6-3.1-1-4.7-.3-1.6-.7-3.1-1-4.7-.7-3.1-1.4-6.2-2.2-9.3l-2.3-9.3-4.8-18.7z"/><path id="Fill-89" class="st17" d="M-46.3 388.6s-.1-.2-.1-.5c-.1-.3-.1-.8-.2-1.3s-.1-1.1-.2-1.8c0-.3-.1-.6-.1-.9 0-.1-.1-.3-.1-.4v-.2c0-.1 0-.1-.1-.2-.1-.3-.2-.6-.4-.9-.1-.3-.3-.6-.4-.9-.3-.6-.5-1.2-.7-1.7-.2-.5-.3-.9-.4-1.3-.1-.3-.1-.5-.1-.5s.2.1.4.3c.2.2.6.5.9.9.4.4.7.9 1.1 1.4.4.6.7 1.2 1 1.9 0 .1.1.2.1.3V383.1c0 .2.1.4.1.6v1.1c-.1.7-.2 1.3-.3 1.9-.1.5-.3 1-.4 1.3 0 .5-.1.6-.1.6"/><path id="Fill-91" class="st17" d="M-37.8 388.2v-.8c0-.5.1-1.2.2-2.1.1-.8.2-1.8.2-2.8 0-.5.1-1 .1-1.6 0-.5 0-1-.1-1.5l-.3-1.5c-.1-.5-.3-1-.5-1.5-.3-1-.6-1.9-.9-2.7-.3-.8-.5-1.5-.6-2-.1-.5-.2-.8-.2-.8s.2.2.5.6c.3.4.7 1 1.2 1.7.4.7.9 1.6 1.4 2.6.2.5.4 1 .6 1.6.2.6.3 1.1.5 1.8.1.6.1 1.3.1 1.8 0 .6-.1 1.2-.2 1.7-.2 1.1-.5 2-.8 2.9-.3.8-.6 1.5-.8 1.9-.3.5-.4.7-.4.7"/><path id="Fill-93" class="st17" d="M-29 371s-.1-.1-.4-.2c-.2-.1-.5-.4-.9-.7-.7-.6-1.5-1.4-2.2-2.4-.7-.9-1.3-2-1.6-2.8-.2-.4-.3-.8-.4-1-.1-.3-.1-.4-.1-.4s.1.1.4.2c.2.1.5.4.9.7.7.6 1.5 1.4 2.2 2.4.7.9 1.3 2 1.6 2.8.2.4.3.8.4 1 .1.2.1.4.1.4"/><path id="Fill-95" class="st10" d="M-107.1 550.8s-.9.4-2.4 1.1c-1.5.7-3.7 1.7-6.3 3-1.3.6-2.7 1.3-4.1 2.1-1.4.8-2.9 1.6-4.5 2.5-1.5.9-3 1.9-4.4 3.1-.7.6-1.3 1.2-1.8 1.9-.2.3-.5.7-.6 1-.1.3-.2.7-.2 1v.2s0-.1 0 0 .1.3.1.3c0 .1 0 .1.1.2 0 .1.1.2.1.2.2.3.5.6.8.8.3.3.7.5 1 .7.1 0 .4.2.6.2l.3.1.3.1c1.6.3 3.4 0 5-.6s3.1-1.4 4.5-2.2c1.4-.9 2.6-1.8 3.7-2.6 1.1-.9 2.1-1.7 3-2.5.9-.8 1.6-1.5 2.2-2 .6-.6 1.1-1 1.4-1.4l.5-.5s-.1.2-.4.5c-.3.4-.7.9-1.2 1.5-1.1 1.3-2.6 3.1-4.8 5.1-1.1 1-2.3 2-3.6 2.9-1.4 1-2.9 1.9-4.6 2.6-.9.3-1.8.6-2.8.8-1 .2-2 .2-3.1 0l-.4-.1c-.1 0-.3-.1-.4-.1-.3-.1-.4-.2-.7-.3-.5-.2-.9-.5-1.4-.8-.4-.3-.8-.7-1.2-1.2-.1-.1-.2-.3-.2-.4-.1-.1-.1-.3-.2-.5s-.1-.3-.1-.4v-.4c0-.6.1-1.2.3-1.8.2-.5.5-1 .8-1.4.6-.8 1.4-1.5 2.1-2.1.8-.6 1.5-1.2 2.3-1.7.8-.5 1.6-1 2.4-1.4 1.6-.9 3.2-1.6 4.7-2.3 1.5-.7 2.9-1.3 4.3-1.8 2.7-1.1 4.9-1.9 6.5-2.4.8-.3 1.4-.5 1.9-.6.3-.3.5-.4.5-.4"/><path id="Fill-97" class="st10" d="M-50.9 489.5c.4.2.8.4 1.3.6.5.3 1 .6 1.6.9l1.8 1.2c.6.5 1.3.9 1.9 1.5.6.5 1.3 1.1 1.9 1.8.3.3.6.6.9 1 .3.3.6.6.9 1 .6.7 1.2 1.4 1.7 2.1a6450447906384303 6450447906384303 0 0 1 3.7 6.2c.3.6.5 1.2.7 1.7.2.5.4 1 .5 1.3.1.4.2.7.3.9.1.2.1.3.1.3s-.2-.4-.7-1c-.2-.3-.5-.7-.8-1.2-.3-.5-.6-1-1-1.5-.4-.6-.8-1.1-1.2-1.8-.4-.6-.9-1.3-1.4-1.9-.5-.7-1-1.3-1.6-2-.5-.7-1.1-1.3-1.7-2-.3-.3-.6-.7-.9-1l-.9-.9-1.8-1.8c-.6-.6-1.2-1.1-1.7-1.6-.6-.5-1.1-1-1.6-1.4-1-.9-1.8-1.6-2.4-2.1-.6-.5-.9-.8-.9-.8s.6.2 1.3.5z"/><path id="Fill-99" class="st10" d="M-101.2 493.2s-.3.4-.9 1.1c-.6.7-1.5 1.8-2.5 3-2.1 2.4-4.9 5.7-7.7 8.9-2.8 3.3-5.5 6.5-7.6 9-1 1.2-1.9 2.2-2.5 2.9-.6.7-1 1.1-1 1.1s.2-.5.7-1.3c.5-.8 1.1-2 2-3.4.4-.7.9-1.4 1.5-2.2.5-.8 1.1-1.6 1.7-2.4.6-.8 1.2-1.6 1.9-2.5.7-.8 1.4-1.7 2-2.5l2.1-2.4c.7-.8 1.4-1.5 2.1-2.3.7-.7 1.4-1.4 2.1-2 .7-.6 1.3-1.2 1.9-1.8 1.2-1.1 2.2-1.9 3-2.5.4-.3.7-.5.9-.7.2.1.3 0 .3 0"/><linearGradient id="Path-2_1_" gradientUnits="userSpaceOnUse" x1="-341.664" y1="734.467" x2="-344.165" y2="732.781" gradientTransform="matrix(13.5716 0 0 -7.9159 4586.224 6130.23)"><stop offset="0" stop-color="#fbcfbb"/><stop offset="1" stop-color="#c89983"/></linearGradient><path id="Path-2" d="M-62.6 324.3c1.3-.8 9.4-6.3 8.8-7.6-.6-1.3-12.6 2.5-13.4 2.5s3.4 6 4.6 5.1z" fill="url(#Path-2_1_)"/></g><linearGradient id="Path-222_4_" gradientUnits="userSpaceOnUse" x1="-332.316" y1="842.024" x2="-333.757" y2="840.315" gradientTransform="matrix(8.0058 0 0 -10.936 2586.003 9655.513)"><stop offset="0" stop-color="#c89983"/><stop offset="1" stop-color="#fbcfbb"/></linearGradient><path id="Path-222" d="M-86.1 462.1c0-.8 1.7-6.3 2.9-7.1 1.3-.8 5.5 1.4 5 3.9-.2 1.1-1 2.1-1.7 3.2-.9 1.3-1.8 2.7-2.5 3.4-1.1 1.3-3.7-2.5-3.7-3.4z" fill="url(#Path-222_4_)"/><g id="head" transform="translate(75.566)"><path id="Path-139" class="st3" d="M-165 63.9l-.8 9.9c-.6 5.9-1 10.1-1.1 12.7-.2 4.4.2 8.3.2 11.7.1 6.8.5 11.8 1.3 15 .8 3.3 2.2 5 3.8 6.9 3.1 3.8 7 6.9 9.5 9.5 6.7 7.1 10.7 10.4 12.2 10.8 3.5.8 8.3 1.2 14.6.4 4.1-.5 10.9-7.2 16.9-13.8 3.1-3.4 7.3-6.8 8.7-9.5 2.1-4.1 2.2-11.3 3-17.7.7-5.8 1.7-11.1 1.7-13 0-2.6-1.6-10.5-4.7-23.7 6.9-27.4-3.6-41-31.3-41s-39 13.9-34 41.8z"/><linearGradient id="Path-140_1_" gradientUnits="userSpaceOnUse" x1="-422.943" y1="840.823" x2="-423.798" y2="841.524" gradientTransform="matrix(22.1866 0 0 -13.2547 9268.947 11227.298)"><stop offset="0" stop-color="#fbcfbb"/><stop offset="1" stop-color="#c89983"/></linearGradient><path id="Path-140" d="M-124.9 76.5c-2.8 1.6-3.8 2.3-2.8 5.5.4 1.4 2.4 3.8 4.7 4.7 3.2 1.3 7 1 7.9 1.2 1.5.3-4.8-3.6-2.8-3.6 2.1 0 10.6 1.4 10.6.4 0-.6-3.7-1.8-7.5-3.2-1.1-.4-1.2-1.7-2.2-2-1.2-.4-3.4-.4-4.1-.4-2.8 0-3.1 0-3.1-.4s1.1-.8 2-1.6c1-.9 2.2-2.1 5.2-2 1.9 0 3.8 1.2 5.4 1.6.9.2 4.3 2.5 5.5 2.8.2 0 .4-.8-1.6-2s-3.6-2.2-7.5-2.8-6.9.3-9.7 1.8z" fill="url(#Path-140_1_)"/><linearGradient id="Oval-6_1_" gradientUnits="userSpaceOnUse" x1="-422.938" y1="841.658" x2="-423.652" y2="840.703" gradientTransform="matrix(23.2921 0 0 -19.3858 9714.204 16383.43)"><stop offset="0" stop-color="#c89983"/><stop offset="1" stop-color="#fbcfbb"/></linearGradient><path id="Oval-6" d="M-148.5 89.2c4.3.4 4.7-2.3 7.5-3.9 2-1.2 3.5-3.7 3.5-5.3 0-.6-1.1-1.7-.8-2.6.3-1 2-1.8 1.6-2.4-.3-.3-.4-2.8-.8-4.7-.4-2 0 3.9-2.1 3.3-2.3-.7-5.6-.5-7.7-.5-5 0-12.6 3.3-12.6 7.1 0 .2 1.2-.5 1.6-.2.3.2-.2 1.4.4 1.2.4-.2.7-.8 1.2-1.4.5-.7 1.5-1.7 1.6-1.6.2.4.5 1.1 1.2 1.6 1.1.8 2.8 1.5 3.5 2 1.1.7-3.7 2.6-3.5 3.6.2.8 4.7-.2 5.5.4 1.4.9-1.5 3.2-.1 3.4z" fill="url(#Oval-6_1_)"/><path id="Fill-1" class="st17" d="M-124 97.6s.1.1.3.2c.2.2.4.4.6.7.4.6.9 1.6.9 2.6v.4c0 .1 0 .3-.1.4-.1.3-.2.6-.3.8-.3.5-.7.8-1 1-.3.2-.6.3-.9.4-.2.1-.3.1-.3.1s.1-.1.2-.3c.1-.1.1-.2.2-.3.1-.1.2-.2.3-.4.2-.3.4-.6.5-1 .1-.2.1-.3.1-.5v-.3-.3c-.1-.8-.3-1.8-.4-2.5-.1-.4-.1-.7-.1-.9v-.1"/><linearGradient id="Path-148_2_" gradientUnits="userSpaceOnUse" x1="-426.813" y1="841.312" x2="-426.813" y2="838.053" gradientTransform="matrix(41.8473 0 0 -7.6324 17729.729 6529.855)"><stop offset="0" stop-color="#fbcfbb"/><stop offset=".662" stop-color="#a27468"/><stop offset="1" stop-color="#75453e"/></linearGradient><path id="Path-148" d="M-117 117.2c-1.2-.7-1.8-2.1-1.9-2-.6.3-1.2.6-2 .8-1.2.4-6.4 1.4-9.1 1.6-2.6.2-3.6.1-5.9 0-1.5-.1-4.5-.6-9.1-1.6-.5 0-1 .1-1.6.4-.8.4-1.5.6-3.5 0s-2.7-2.7-1.6-3.9c1.1-1.2 2.7-2.2 3.5-2.4s.7.4.8 1.6c.1 1.2-.2 1.8 0 2.4.2.6.4.8 1.2 1.2.5.2 3.7.2 6.3 0 1.5-.1 2.3-.5 3.5-.4 1.2.1 1.7.5 2.4.8.6.3.4.6 1.6.8.6.1 2.5.2 4.7 0 2.1-.2 4.5-.6 5.5-.8 2-.4 1.9-.5 3.5-1.2 1.7-.7 5.5-3.9 6.7-3.6.5.1 1.6 1.4 1.6 2.4 0 1.2-.5 2.2-2 3.2s-4.1 1-4.6.7z" fill="url(#Path-148_2_)"/><path id="Fill-3" class="st17" d="M-141.3 103.6s.3 0 .8.1 1.2.2 2 .5l.6.3.6.3c.4.2.8.5 1.3.8.4.3.9.5 1.3.7.4.2.9.3 1.3.3h.4c.1 0 .2 0 .3-.1.2-.1.4-.2.7-.3.4-.2.8-.5 1.3-.8l1.2-.9c.4-.3.8-.5 1.2-.7.8-.3 1.5-.4 2-.5.5-.1.8-.1.8-.1s-.3.1-.7.3c-.4.2-1.1.5-1.7.9-.3.2-.7.5-1 .8-.4.3-.7.6-1.1 1-.4.3-.8.7-1.4 1-.3.2-.5.3-.8.4-.2 0-.3.1-.5.1h-.5c-.7 0-1.3-.1-1.9-.4-.6-.2-1-.6-1.5-.9l-1.2-.9c-.2-.1-.4-.3-.5-.4-.2-.1-.3-.2-.5-.3-.7-.4-1.3-.7-1.8-.9-.5-.2-.7-.3-.7-.3"/><radialGradient id="Fill-5_3_" cx="-412.211" cy="845.124" r="1.636" gradientTransform="matrix(8.9584 2.2152 2.2152 -8.9584 1688.553 8605.7)" gradientUnits="userSpaceOnUse"><stop offset="0" stop-color="#c78b83"/><stop offset="1" stop-color="#fbcfbb"/></radialGradient><path id="Fill-5_1_" d="M-146.1 115c.1.1.2.2.2.3.1.1 6.3 2.7 13.1 2.5 7.1-.2 14.6-3.1 14.6-3.1s-.1.1-.2.4c-.1.3-.2.6-.4 1.1-.2.5-1 2.7-2.2 4.2-1.2 1.6-3.7 2.7-4.2 2.8-1.1.3-2.2.5-3.4.6-1.2.1-2.3.1-3.5.1-1.2 0-2.3-.1-3.5-.2-1.1-.1-2.3-.2-3.4-.5-.3 0-.5-.1-.8-.2-.1 0-.3-.1-.4-.1-.1-.1-.3-.1-.4-.2-.2-.1-.7-.4-1.2-.8-.7-.6-1.7-1.9-2-2.4-.9-1.5-1.3-2.3-1.7-3.2-.2-.5-.4-.8-.5-1.1.1-.1 0-.2-.1-.2z" fill="url(#Fill-5_3_)"/><radialGradient id="Path-146_1_" cx="-430.323" cy="851.548" r=".647" gradientTransform="matrix(0 6.4014 17.3346 0 -14893.38 2878.921)" gradientUnits="userSpaceOnUse"><stop offset="0" stop-color="#c89983"/><stop offset="1" stop-color="#fbcfbb"/></radialGradient><path id="Path-146" d="M-141.4 122.7c.1-.9.8.8 9.4.8 1.8 0 4.2-.2 5.5-.4 4.8-.8 5.3-3 5.1-1.6-.1.8-2.2 2.5-4.3 3.9-2.4 1.7-4.6 2-6.7 2-1.7 0-3.5.1-5.1-1.2-2-1.5-4-3-3.9-3.5z" fill="url(#Path-146_1_)"/><path id="Fill-5_2_" class="st25" d="M-139.8 122.8c.1 0 .2.1.3.1.3.1.5.1.8.1 1 .2 2.1.2 3.3.3 1.1.1 2.3.1 3.4.1s2.3 0 3.4-.1c.5 0 2-.2 3.4-.7.8-.3 1.6-.7 2.3-1 .6-.3.1.8-1.9 1.8-1.3.6-3.3 1-3.7 1.1-1.2.1-2.3.1-3.5.1-1.2 0-2.3-.1-3.5-.2-.8-.1-2.7-.6-3.9-1.3-.3-.1-.4-.3-.4-.3z"/><radialGradient id="Path-133_1_" cx="-480.498" cy="842.327" r="3.88" gradientTransform="matrix(-3.6009 0 0 3.6009 -1862.393 -2916.133)" gradientUnits="userSpaceOnUse"><stop offset="0" stop-color="#c78b83"/><stop offset=".239" stop-color="#ca8f86"/><stop offset=".484" stop-color="#d49b91"/><stop offset=".733" stop-color="#e3b0a1"/><stop offset=".982" stop-color="#f9cdb9"/><stop offset="1" stop-color="#fbcfbb"/></radialGradient><path id="Path-133" d="M-146.1 115.2c1.3 0 3.2.1 3.9 0 .8-.1 2.5-.2 5.1-.3.8 0 1.6.1 2.4.3l2.4.8.5-.3c1.8-1.1 3.8-1.7 5.8-1.7h3.1c1.4.1 3 .3 4.7.8-5.2 1.7-9.9 2.6-14.2 2.8s-8.8-.7-13.7-2.4z" fill="url(#Path-133_1_)"/><path id="Fill-11_1_" class="st25" d="M-119.7 114.5h-3.2c-.7 0-1.4.1-2.1.1-.7.1-1.5.2-2.3.3-.4.1-.8.1-1.2.2-.4.1-.8.2-1.1.3-.2.1-.3.1-.5.3l-.5.3c-.2.1-.4.2-.6.4-.2.1-.5.3-.8.3h-.5c-.2 0-.3-.1-.4-.1l-.6-.3c-.4-.2-.7-.4-1.1-.5-.7-.2-1.5.1-2.3.1h-5.5c-.3 0-.6-.1-.9-.1-.5-.1-1-.1-1.4-.2-.8-.1-1.2-.2-1.2-.2s.4 0 1.2-.1c.4 0 .9 0 1.4-.1h1.9c.7-.1 1.4-.1 2.1-.2.8-.1 3.3-.6 3.7-.6.2 0 .5 0 .7.1.2 0 .5.1.7.2.4.2.9.3 1.3.5s.8.4.9.3c.2 0 .6-.2.9-.5l.6-.4c.2-.1.4-.2.7-.3.5-.2.9-.3 1.4-.3.4 0 .8-.1 1.3-.1.8-.1 1.6-.1 2.4-.2.8 0 1.5 0 2.2.1 1.3.1 2.4.2 3.2.4.4.1.7.2.9.2.2.1.3.1.3.1s-.9.1-1.6 0z"/><path id="Fill-13_1_" class="st17" d="M-165.4 64.1s-.2 3-.5 8.2c0 .7-.1 1.3-.2 2.1-.1.7-.1 1.5-.2 2.3-.1 1.6-.3 3.3-.4 5.1-.1 1.8-.3 3.8-.3 5.8s.2 4.2.4 6.4c.1 1.1.2 2.3.3 3.4 0 1.2 0 2.4.1 3.6.1 2.4.2 4.9.4 7.5.1 1.3.3 2.6.4 3.9l.1.5v.4l.3.9c.2.6.5 1.2.9 1.7 1.4 2.2 3.2 4.3 5.1 6.3 1.9 2 4 4 6.1 6 1 1 2 2.1 3 3.2 1 1 2 2.1 3.1 3.1 1 1 2.1 2.1 3.2 3 .5.5 1.1 1 1.7 1.4l.9.6c.3.2.6.4.9.5.1 0 .1 0 .2.1l.3.1c.2 0 .4.1.5.1.4.1.7.1 1.1.2.7.1 1.5.2 2.2.3 1.5.1 2.9.2 4.4.2 1.5 0 3-.1 4.4-.3.4 0 .7-.1 1.1-.1h.5l.5-.1.5-.2c.2-.1.3-.1.5-.2.3-.2.6-.3 1-.5 1.3-.7 2.4-1.6 3.6-2.5 1.1-.9 2.2-1.9 3.3-2.9 2.1-2 4.2-4.1 6.1-6.2 1-1 2-2.1 3-3.1l3-3c1-1 1.9-2 2.8-3.1.4-.5.8-1.1 1.2-1.6l.2-.4c.1-.1.1-.3.2-.4.1-.1.1-.3.2-.5s.1-.3.2-.5c.4-1.2.6-2.6.8-3.8.2-1.3.3-2.6.5-3.9.3-2.6.5-5 .8-7.5.2-2.4.5-4.7.8-7 .1-1.1.3-2.2.5-3.3.1-.5.2-1.1.2-1.6.1-.5.2-1 .2-1.5 0-2-.1-4-.3-5.8-.4-3.6-1.1-6.7-1.8-9.2-.7-2.5-1.4-4.4-1.9-5.8-.5-1.3-.8-2-.8-2s.3.7.9 2c.5 1.3 1.3 3.2 2.1 5.7s1.6 5.6 2 9.3c.2 1.8.4 3.8.4 5.8 0 .6-.1 1.1-.1 1.6-.1.5-.1 1-.2 1.6-.1 1.1-.3 2.2-.4 3.3-.3 2.2-.5 4.6-.7 7-.2 2.4-.4 4.9-.7 7.5-.1 1.3-.3 2.6-.4 3.9-.2 1.3-.4 2.7-.8 4-.1.2-.1.3-.2.5s-.1.3-.2.5-.1.3-.2.5l-.3.5c-.4.6-.8 1.2-1.2 1.7-.9 1.1-1.8 2.1-2.8 3.1l-3 3c-1 1-2 2-3 3.1-2 2.1-4 4.2-6.2 6.3-1.1 1-2.2 2-3.4 3-1.2 1-2.4 1.9-3.7 2.6-.3.2-.7.3-1 .5-.4.2-.8.3-1.2.4l-.5.1h-.2-.4c-.4 0-.7.1-1.1.1-1.5.2-3 .3-4.5.3s-3 0-4.5-.2c-.8-.1-1.5-.2-2.3-.3-.4-.1-.7-.1-1.1-.2-.2 0-.4-.1-.6-.1l-.3-.1c-.1 0-.2-.1-.3-.1-.4-.2-.8-.4-1.1-.6-.3-.2-.6-.4-.9-.7-.6-.5-1.2-1-1.7-1.5-1.1-1-2.2-2-3.2-3.1-1-1-2.1-2.1-3.1-3.2s-2-2.1-3-3.2c-2-2-4.1-4-6-6.1-1-1-1.9-2.1-2.8-3.1-.9-1.1-1.7-2.2-2.4-3.4-.3-.6-.7-1.2-.9-1.9-.1-.3-.2-.7-.3-1v-.2-.2l-.1-.5c-.2-1.3-.3-2.6-.4-3.9-.2-2.6-.3-5.1-.3-7.5v-3.6c0-1.2-.1-2.3-.2-3.4-.2-2.2-.3-4.4-.3-6.5.1-2.1.3-4 .4-5.8.2-1.8.4-3.5.5-5.1.1-.8.2-1.5.3-2.3.1-.7.1-1.4.2-2.1-.1-4.9.1-7.9.1-7.9"/><path id="Stroke-16" class="st27" d="M-173.2 67.3c-1.6-2.1-3.8-1.8-4.3 1.2-.6 3 .1 2.6 1.2 10.3s1.6 9.5 3.1 15c1 3.7 3.1 6.8 6.3 9.5v-6.5c0-.1-.4-7.3-.4-7.4.1-2.2.3-4.5.4-6.7-3.2-8.9-5.3-14-6.3-15.4z"/><path id="Stroke-18" class="st27" d="M-96.9 102.8c2.4-1.3 5.3-3.4 7.5-6.7 2.1-3.2 2.6-6.5 3.1-8.7.5-2.3.5-5.2.9-7.5.4-2.9 1.5-5.5 1.5-7.1 0-1.3-.4-2.3-1.1-3-1.4-1.5-4.8.2-6 1-5.5 3.6-4.5 13.7-4.3 15-.5 5.7-1 11.3-1.6 17z"/><path id="Fill-7_1_" d="M-148 114.2s.5.2 1.3.5c.4.2.9.3 1.5.5s1.2.4 1.9.6c.7.2 1.5.4 2.3.6.8.2 1.7.3 2.6.5.9.1 1.8.2 2.8.3 1 .1 1.9.1 2.9.1s2-.1 2.9-.2c1-.1 1.9-.2 2.8-.3.9-.1 1.8-.3 2.6-.4.8-.2 1.6-.3 2.3-.5.7-.2 1.4-.4 1.9-.6.6-.2 1.1-.3 1.5-.5.4-.1.7-.3.9-.3.2-.1.3-.1.3-.1s-.1.1-.3.2c-.2.1-.5.3-.9.5s-.9.5-1.4.7c-.6.3-1.2.5-1.9.8-1.4.5-3.1 1-5 1.4-.9.2-1.9.3-2.9.4-1 .1-2 .2-3 .2s-2 0-3-.1-2-.2-2.9-.4l-2.7-.6c-.8-.2-1.6-.5-2.3-.8-.7-.3-1.3-.6-1.9-.8l-1.4-.7c-.4-.2-.7-.4-.9-.5.1-.4 0-.5 0-.5" fill="#75453e"/><linearGradient id="Path-134_1_" gradientUnits="userSpaceOnUse" x1="-424.085" y1="841.4" x2="-422.804" y2="841.17" gradientTransform="matrix(21.7676 0 0 -61.9517 9050.74 52188.922)"><stop offset="0" stop-color="#feefe9"/><stop offset="1" stop-color="#fbcfbb"/></linearGradient><path id="Path-134" d="M-150.8 49.3c.7 3.8-2.9 10.3 2.8 18.2 1.7 2.3 6.8 4.4 3.1 7.1-.8.6-4 .9-7.5 2-1 .3-2.1.9-3.1 1.6 1.5 1.3 2.7 2.1 3.5 2.4 2.6.7 5.1.1 5.5.8 1.8 2.6-6.3 9-5.5 11.4 1.8 5.9-1.2 13.3-1.7 13.4-1 .3-8.4-.4-10.5-6.7-2.7-8.1 0-22.5 0-24.1 0-1.5 1.4-7.6 2-13.5.4-4.8-.4-13.4-.4-15-.1-3.5 10.6-4.4 11.8 2.4z" fill="url(#Path-134_1_)"/><linearGradient id="Path-145_1_" gradientUnits="userSpaceOnUse" x1="-427.507" y1="841.437" x2="-427.209" y2="839.288" gradientTransform="matrix(49.1976 0 0 -39.1421 20902.006 32979.988)"><stop offset="0" stop-color="#fbcfbb"/><stop offset="1" stop-color="#dcae99"/></linearGradient><path id="Path-145" d="M-152 41c6.8-2.7 10.9-4.3 12.2-4.7 1.9-.7 10.6-.8 12.6 5.9s1.8 10.4 2.8 13.3c1 3 7.1 1.9 9.8 3.2 6.1 3 11.5 7.7 11.8 9.1.1.3-2.3.2-5.1-1.2-2-1-4.2-3.1-6.7-3.6-3.6-.6-8.7 1.3-9.1 2-.9 1.4-3.5 3.9-2 5.1 1.6 1.2 11-2.4 11-.8s-7.7 3.4-9.8 4.3-2.6 1.7-4.3 1.2c-1.7-.5-2-1.6-2.8-3.2-.8-1.6-.8-7.3-.4-7.9.4-.6 1.3 4.9 2.4 5.1s3.2-2.1.8-5.5c-1.1-1.6-7.1-3.6-10.6-.4-1 .9-.3 8.6-1.6 8.7-2.1.1-5.5-3-7.5-5.9-1.4-2.1-2.3-4.2-2.4-4.7-.4-2.8.2-5.7 0-12.6 0-1.4-.4-3.9-1.1-7.4z" fill="url(#Path-145_1_)"/><linearGradient id="Path-150_1_" gradientUnits="userSpaceOnUse" x1="-404.255" y1="841.316" x2="-404.755" y2="840.22" gradientTransform="matrix(6.6925 0 0 -13.6589 2615.298 11573.64)"><stop offset="0" stop-color="#c89983"/><stop offset="1" stop-color="#fbcfbb"/></linearGradient><path id="Path-150" d="M-93.4 84.8c0 1.1 1 .4.8 1.6-.3 2-1.4 4-2 5.5-.4 1.2-.4 2-.4 2.4 0 .7 1.1-.6 1.6-2 .3-.9.4-1.6.8-2 1.2-1.4.4 0 2-.8s2.4-3.2 2.4-3.9-.2-2.8-.4-3.2c-.4-.8-.8-1.8-2-1.6-1.3.3-2.8 1.8-2.8 4z" fill="url(#Path-150_1_)"/><linearGradient id="Path-151_1_" gradientUnits="userSpaceOnUse" x1="-369.288" y1="840.78" x2="-368.513" y2="839.689" gradientTransform="matrix(2.8778 0 0 -5.2825 976.873 4513.258)"><stop offset="0" stop-color="#c89983"/><stop offset="1" stop-color="#fbcfbb"/></linearGradient><path id="Path-151" d="M-87.1 72.6c1.5-1.1 2.4-1.3 2.8-.8.6.8-1 5.8-1.2 4.9-.1-.9-.3-1.6-.4-2.1-.3-1.1-.7-1.7-1.2-2z" fill="url(#Path-151_1_)"/><linearGradient id="Path-152_1_" gradientUnits="userSpaceOnUse" x1="-376.743" y1="841.177" x2="-376.743" y2="840.177" gradientTransform="matrix(3.2767 0 0 -8.2884 1059.56 7041.407)"><stop offset="0" stop-color="#c89983"/><stop offset="1" stop-color="#fbcfbb"/></linearGradient><path id="Path-152" d="M-175.2 77.7c1.2-2.2 1.9-3.6 2-4.3.1-1.1-.8-2-1.2-2.4-1.4-1.4-1.8-1.6-2-1.6-.4-.1.2 1.7.4 2.8.2 1.1-.2 1.3 0 3.2.1 1.2.4 2 .8 2.3z" fill="url(#Path-152_1_)"/><linearGradient id="Path-153_1_" gradientUnits="userSpaceOnUse" x1="-406.207" y1="841.201" x2="-405.251" y2="840.201" gradientTransform="matrix(7.0929 0 0 -14.1353 2708.82 11972.196)"><stop offset="0" stop-color="#c89983"/><stop offset="1" stop-color="#fbcfbb"/></linearGradient><path id="Path-153" d="M-170.9 78.5c-.9-.2-2.5-.3-3.1 1.6-.3.8-.2 2.4 0 3.9.8 5.1 3.5 3.2 4.3 4.3.8 1.2 0 5.1 2 3.9 1-.6.5-1.9.4-3.2-.1-1.2 0-2.3 0-2.8 0-.8-1.2-.4-1.2-1.2s-1.2-6.2-2.4-6.5z" fill="url(#Path-153_1_)"/><path id="Stroke-20" d="M-95.3 85c.5 1.4 1.2-1.1 1.6-2.4.3-1.1.4-2.5.8-3.6s2.1-2.3 2.4-3.2c.2-.7.3-1.5.3-2.4l2-5.3 2.1-5.7.3-4.7c.7-2.6 1.1-4.6 1.2-5.9.1-1.5-.7-3-.7-4.3 0-.8-.3-2.7-.9-5.5l1.6.8-1.2-4c.4.2.5.2.5 0-.2-.9-.9-1.8-1.3-2.6-.1-.3-.8-1.3-2-2.9.8.4 1.2.4 1 0-2.3-4.4-5.8-8.3-7.3-10.2-.6-.8-3.1-3.6-6.2-5.1-.4-.2.3 0 2.1.4-2-1.8-3.6-3-4.7-3.6-1.3-.8-2.7-.7-4.1-1.3-.5-.2-1-.8-1.4-1-2.3-.9-4.6-1.7-6.9-2.3-.9-.2-1.7 0-2.6-.2-2.6-.6-5.2-1.7-7.5-1.8-1.6-.1-3.1.7-4.5.7-.5 0-1 0-1.5.1-1.8.1-1.6-2.4-6.3-2.8-.9-.1-2 1.8-2.9 1.7-1.5-.1-3-.1-4.5.2-4.2.9-8.8 4-13 6.7-1.2.8-3 2-5.4 3.7 1.5-.4 2.1-.4 1.8-.1-3.3 3-8.8 7.1-10.2 9.5-1 1.7-1.9 4.1-2.6 6.8-.2.8-.9 2.2-2 4l1.4-.5c-.8 3.5-1.3 5.7-1.3 6.6-.1 1.9-.5 3.8-.5 5.6 0 1.6.1 3.8.4 6.7.3-.1.5 0 .6.4.4 2 .5 5.1.8 5.9.5 1.3 1.8 2.7 2.4 4.2.6 1.6 1.8 4.3 2.4 7.3.4 2 0 2.7.8 7.1.1.7.5 1.9 1.1 3.5l.1-1.1.8 2 .1-.7.4-1 .7.5.4-1.2c.7-10.3 1.2-17 1.6-20.1.4-3.3.2-5 .4-6.8.6-4.8-.8-7.6-.4-9.6.4-1.7 3.7-4.6 3.8-4.8.3-.5 1.2-.9 2.1-.6.2.1.1.7.4.8.1 0 1.4-.9 1.6-.8.1 0-.2.4-.8 1.2 2.5-.9 4-1.3 4.3-1.2.3.1-.2.7-1.6 2l8.3-4.3c.4-.2.4.2 0 1.2s-.9 1.9-1.6 2.8c1.1-.4 1.8-.8 2.4-1.2.5-.4 1.2-1 2-2-.3.6-.6 1.4-.7 2.5-.1 1-.1 2.1 0 3.1.4-1.7.8-2.8 1.1-3.5.7-1.6 1.7-3.2 3.1-4.8-.4.8-.7 1.4-.8 1.8-.1.4-.1 1.1-.1 2.1l1.2-1.9c0 .3.4.2 1.2-.4 1.1-.9 1.5-1.9 2-2.1 1.2-.6 2.8.3 3.9 0 2-.5 6.8-2 15.4-1.4.6 0 1.7.6 3.3 1.8l-1.3-2.5c.3 0 1 .1 2 .4 1.4.4 4.1 3.9 4.7 4.2 2.1 1.2 4.1 2.8 6 4.8l-.2-1.6c1.6 2.8 2.5 4.3 2.7 4.6.7.8 1.3 1.7 1.5 3.3.3 2.2-.5 5.2-2.4 9.1 1.8 2.5 2.8 4.3 3.1 5.5 2.9 12 2.9 18.6 3.2 19.4z" fill="#d7b492" stroke="#aa8e72" stroke-width="1.186"/><linearGradient id="Path-157_1_" gradientUnits="userSpaceOnUse" x1="-428.726" y1="841.134" x2="-427.689" y2="841.268" gradientTransform="matrix(59.8232 0 0 -55.1961 25463.248 46467.066)"><stop offset="0" stop-color="#fff"/><stop offset=".198" stop-color="#f2e6db"/><stop offset=".416" stop-color="#e6d1bc"/><stop offset=".628" stop-color="#dec1a5"/><stop offset=".826" stop-color="#d9b797"/><stop offset="1" stop-color="#d7b492"/></linearGradient><path id="Path-157" d="M-129.2 15.4c-2.1.3-3.7.7-4.7 1.2-1.1.5-1.9 1.1-2.4 2V17c-.9.5-1.6.9-2 1.2-.4.3-1 .7-2 1.2l.4-1.2c-1.8.4-3.1.8-3.9 1.2-.8.4-2.8 1.5-5.9 3.6 1.6-.3 3.1-.3 4.7 0s2.9.4 3.9.4c-2.6.8-4.4 1.4-5.5 2s-2.1 1.3-3.1 2.4c1.9.6 4.4.7 7.5.4 4.6-.5 4.2-1.5 8.3-2 2.7-.3 5.5-.3 8.3 0-2.9.5-5 1-6.3 1.6-1.3.6-2.7 1.6-4.3 3.2 3.1-1.4 5.5-2.4 7.1-2.8 1.6-.4 4.4-.8 8.3-1.2-2 1.3-3.3 2.4-3.9 3.2-.6.8-.9 1.9-.8 3.2 1.5-2 3.1-2.6 4.7-2 1.7.7 3.1 2.1 4.3 4.3-1.3-.8-2.5-1.2-3.5-1.2-2 0-4.8.2-7.1.4-2.6.2-4.8 1.3-6.3 1.6-1.2.2-2.3-.4-2.8-.4s-1 .2-1.4.3c-.4.2-.9 1.1-1.3 1.6-.2.2-.4.5-.8.8l.4-1.6-.8.8 2.4-5.1c-2.2 2.7-3.6 4.2-3.9 4.7-.4.5-1 1.5-2 3.2 1-2 1.7-3.4 2-3.9.7-1.5.7-1.7.8-2 .2-.8-.4-.4-.4-1.6 0-.8.1-1.6.4-2.4-4.7.3-8 .7-9.8 1.2-2.8.8-3.9 1.2-5.1 2-.8.5-1.7 1.3-2.8 2.4 3.3-.7 5.2-1 5.5-.8s-.4 1-2.4 2.4c1.7-.1 2.9-.1 3.5 0 .6.1 4.4.1 3.9.8-.3.4-2 1.1-2.8 1.6-.9.5-2.8 1-5.9 1.6 1.8-.9 2.6-1.4 2.4-1.6-.1 0-3.7 1.2-4.3 1.2-1.3-.1.2-.6-1.2-1.2-1.1-.5-4.3.6-5.1 1.2-3.8 2.6-2.8 8.9-4.3 10.7-1.5 1.8-2.6 1.9-3.5 3.2-.3.4-1.1 1.6-1.2 3.2 0 1 .2 3 .8 5.9-.8-1.2-1.3-2.4-1.6-3.6-.6-2.6 0-8.3 2.8-11.4 2.8-3.2 4.3-5.9 5.1-7.9.5-1.3.8-2.8.8-4.3-.9 1.4-2.1 2.5-3.5 3.6-2.2 1.5-2.2 1.5-3.9 3.2-1.1 1.1-2 2.4-2.8 3.9.3-2.4.7-4.3 1.2-5.9.3-.9.8-2.7 1.6-5.5l-1.2.4c.4-.7.7-1.3.8-1.6 1.1-2.9 1.8-5.2 2.4-6.3 1.6-3.1 8.7-7.5 10.2-9.9.4-.6.5-1 .4-1.2.8-.5 1.4-.9 2-1.2 3.7-1.9 8.3-5.9 12.6-7.1 1.5-.4 4.1-.5 6.7 0 1.6.3 3.3.7 5.1 1.2-4.6-.3-8.1-.1-10.4.4-1.3.3-3.5 1-6.5 2 1 .2 1.4.3 1.2.4-2.3 1-5.6 3.2-9.8 6.3l1.6.4c-1.5 1.1-2.6 2.1-3.1 2.8s-1.4 2-2.4 3.9h.8c-1.4 1.9-2.3 3.4-2.8 4.7-.3.9-.7 2.8-1.2 5.5 2-3.7 3.4-6.2 4.3-7.5 1.8-2.5 3.8-3.8 4.3-4.5.2-.3-1.4 0-1.2-.2.2-.2 2.2-1.8 4.3-3.2 1.6-1.1 3.4-2 3.9-2.4.1-.1-1.3-.2-1.1-.3.5-.3 1.7-1 3.5-2l-1.6.4c2-2.5 5-3.8 9.1-3.9 2.8-.1 4.6.9 7.5 1.6.7.2 1.6-.1 3.1 0 .1-.5.7-.4 1.7-.1z" fill="url(#Path-157_1_)"/><path id="Fill-22" class="st37" d="M-100.6 46.8c.1 0 .3.1.5.2s.5.2.8.4c.3.2.6.3 1 .6.4.2.7.5 1.1.8.4.3.8.6 1.1 1 .4.4.7.8 1.1 1.2l.1.2.1.2.2.3c.2.2.3.5.5.7.3.5.6 1 .8 1.5l.6 1.5c.2.5.3 1 .3 1.5.1.5.1.9.2 1.3 0 .4.1.8.1 1.1v.9c0 .5-.1.8-.1.8s-.1-.3-.2-.7c-.1-.2-.1-.5-.2-.8-.1-.3-.2-.7-.3-1.1-.1-.4-.2-.8-.4-1.2-.1-.4-.3-.9-.5-1.4-.4-.9-.8-1.9-1.4-2.8-.1-.2-.3-.4-.4-.6l-.2-.3-.1-.2-.1-.2c-.3-.4-.6-.8-1-1.2-.6-.8-1.3-1.5-1.8-2-.3-.3-.6-.5-.8-.7-.3-.2-.5-.4-.7-.5-.1-.3-.2-.4-.3-.5-.1 0-.2-.1-.2-.1s.1.1.2.1z"/><path id="Fill-24" class="st37" d="M-94.3 47.9c.6.5 1.1 1 1.6 1.6.1.1.2.3.4.4l.2.2.2.2c.1.1.2.3.3.4.1.2.2.3.3.5.2.3.4.6.6 1 .2.3.3.7.5 1 .2.3.3.7.4 1 .1.2.3.9.5 1.9.1-.5.2-.9.2-1.2.3-1 .4-2.4.5-4.3 0-.7-.1-2.3-.2-3 0-.2-.1-.4-.1-.5 0-.2-.1-.4-.1-.6-.1-.4-.2-.7-.3-1.1-.1-.4-.2-.7-.3-1.1-.1-.4-.2-.7-.4-1.1l-.9-2.1c-.2-.3-.4-.7-.5-1-.2-.3-.4-.7-.6-1 .5.6.9 1.2 1.3 1.8.4.6.8 1.3 1.1 2 .2.3.3.7.5 1 .1.4.3.7.4 1.1.1.4.2.7.4 1.1.1.2.1.4.1.6 0 .2.1.4.1.6.3 1.5.5 3.1.5 4.6v2.3c0 .8-.1 1.5-.1 2.3l-.2 3.6-.6-2.4c-.1.3-.2.9-.3 2l-.8 4.8-.3-4.8c0-.7-.1-1.4-.2-2.1-.1-.7-.2-1.4-.4-2.1-.3-1.4-.8-2.7-1.5-3.9-.1-.2-.2-.3-.3-.4-.1-.1-.2-.3-.3-.4l-.2-.2-.2-.2c-.1-.1-.2-.3-.3-.4-.4-.6-.9-1.1-1.4-1.7-1-1-2.1-2-3.4-2.7 1.4.4 2.7 1.3 3.8 2.3z"/><path id="Fill-26" class="st37" d="M-95.2 75c.2-.7.3-1.4.4-2.1v-.5-.5-1.1c0-.7-.1-1.5-.2-2.2l-.4-4.1 1.4 3.9.6 1.8.1.5c0 .2.1.3.1.5l.2.9.1.5c.1-.7.2-1.2.2-1.5.1-.5.1-1.1.1-1.6v-3.2V63c.2 1.1.4 2.2.5 3.2.1.5.1 1.1.2 1.6s.1 1.1.1 1.7v1.7c0 .6-.1 1.1-.2 1.7-.1 1.1-.3 2.2-.5 3.3l-.6 3.2-.6-3.2-.3-1.9-.3-1.9c0 .3 0 .5-.1.7-.1.8-.4 1.5-.6 2.2-.3.7-.5 1.4-.9 2.1.4-1 .5-1.7.7-2.4z"/><path id="Fill-28" class="st37" d="M-100 44.4c-1.2-1.9-2.1-3.3-2.7-4.2l-.8-1.3 1.3.9 1.2.8.6.4.3.2.1.1.1.1 1.4 1.2v-.3-.6-.5l-.3-1.2c-.1-.4-.3-.8-.4-1.2l-1.2-3.3 2.1 2.8.2.3c0-.1 0-.2-.1-.4-.2-.7-.4-1.4-.7-2l-.5-1.3 1.3.5 1 .4c-.2-.8-.3-1.4-.4-1.8-.2-.9-.5-1.8-.8-2.8-.6-1.8-1.3-3.6-2.1-5.4-.2-.4-.4-.9-.6-1.3-.2-.4-.5-.8-.7-1.2-.3-.4-.5-.8-.8-1.2-.1-.2-.3-.4-.4-.6-.1-.2-.3-.4-.5-.5-.6-.7-1.4-1.3-2.1-1.9-.4-.3-.8-.5-1.2-.8l-.6-.3-.7-.3.7.2c.2.1.5.2.7.3.4.2.9.4 1.3.7.4.2.8.5 1.2.8.4.3.8.6 1.1 1 .4.3.7.7 1 1.1l.9 1.2c.3.4.6.8.8 1.2.3.4.5.9.7 1.3.9 1.7 1.7 3.5 2.3 5.4.3.9.6 1.9.9 2.8.3 1 .5 1.9.7 2.9l.2 1-1-.4-.8-.3c.1.4.2.7.3.9.1.4.1.9.1 1.2 0 .4 0 .8-.1 1.2l-.2 1.5-.3-.3v1.1c0 .5 0 .9-.1 1.3l-.1 1-.7-.7-2-1.9-.1-.1h-.1l-.1-.1-.3-.2-.4-.3c.8 1.5 1.4 2.6 1.8 3.4l.2.4-.4-.3c-.6-.4-1.3-.9-1.9-1.3.6.1 1.1.4 1.7.7z"/><path id="Fill-30" class="st37" d="M-138.2 11.3c-.5 0-1 0-1.5.1-.3 0-.5 0-.8.1-.3 0-.5.1-.8.1l-1.5.3c-.5.1-3.4 1-4.4 1.3l3.4-1c-1.3.5-2 .8-2 .9 0 .1 0 .1-.1.2-.1.2-.2.2-.2.2-.2.2-.3.2-.4.2-.5.2-.9.5-1.4.7-.9.5-1.8.9-2.7 1.5-.9.5-1.7 1.2-2.5 1.8l-1.6 1.2h.1l1.2.4-1.1.6c-.7.4-1.4.8-2.1 1.3-.7.4-1.4.9-2 1.4-.2.1-.3.2-.5.4l-.4.4c-.3.3-.6.5-.8.8-.4.4-.7.8-1 1.2h.9l-.6.7c-.6.7-1.3 1.5-1.9 2.2l-.9 1.2c-.3.4-.5.8-.7 1.2l-1.2 2.7-1.2 2.7c.3-.9.6-1.9.9-2.8.3-.9.6-1.9 1-2.8.2-.5.4-.9.7-1.3.3-.4.5-.8.8-1.3.4-.5.8-1.1 1.2-1.6h-.7l.5-.8c.5-.7 1-1.4 1.5-2l.9-.9c.2-.2.3-.3.5-.4.2-.1.3-.3.5-.4.9-.7 1.9-1.4 3.1-2.1l-1.1-.3.9-.7c.8-.6 1.7-1.3 2.5-1.9.4-.3.9-.6 1.3-.9l.7-.4c.2-.1.4-.3.7-.4.9-.6 1.9-1 2.8-1.5.3-.1.5-.2.6-.3.2-.1-.6-.1-2.3-.2l2.6-.7c1-.3 2-.6 3-.8l1.5-.3c.5-.1 1-.2 1.6-.3.3 0 .5-.1.8-.1H-138c1 .1 2.1.2 3.1.3-1.2 0-2.2 0-3.3.1z"/><path id="Fill-32" class="st37" d="M-173.4 64.2c-.1-.2-.3-.4-.5-.8l-.3-.6c-.1-.2-.2-.5-.3-.7-.2-.5-.5-1.1-.7-1.8-.4-1.4-.6-3-.6-4.8v-1.3c0-.2 0-.5.1-.7v-.8c.1-.5.3-1 .5-1.4.2-.4.4-.9.6-1.3.5-.8 1-1.6 1.4-2.4.2-.4.5-.8.7-1.1.2-.4.4-.8.6-1.1.4-.8.9-1.5 1.3-2.2.4-.7.8-1.3 1.2-1.9.8-1.2 1.5-2.1 1.9-2.7.5-.6.8-1 .8-1s-.2.4-.6 1.1c-.4.7-.9 1.7-1.6 3-.6 1.2-1.4 2.6-2.2 4.2-.4.8-.8 1.6-1.3 2.4-.5.8-.9 1.6-1.4 2.4l-.6 1.2c-.2.4-.4.8-.4 1.2-.1.1-.1.5-.1.6 0 .2-.1.4-.1.7 0 .4-.1.9-.1 1.3 0 .8-.1 1.7 0 2.4 0 .8.1 1.5.2 2.2.1.7.3 1.3.4 1.8.1.3.2.5.2.7.1.2.2.4.2.6.5.3.6.6.7.8.1.2.2.3.2.3s-.1-.1-.2-.3z"/><path id="Fill-34" class="st17" d="M-126.4 79.5s.2-.3.6-.7c.4-.4 1-1.1 1.8-1.8.4-.4.8-.7 1.3-1.1.5-.4.9-.8 1.5-1.2.2-.1.3-.2.5-.3h1.6c.7 0 1.4.1 2.1.1 1.4.1 2.8.3 4.1.5 1.3.3 2.5.7 3.4 1.2.9.5 1.6 1 2.1 1.4l.5.5.2.2s-.3-.2-.8-.5-1.3-.7-2.2-1.1l-1.5-.6c-.6-.2-1.2-.3-1.8-.4-.6-.1-1.3-.2-2-.3-.7-.1-1.4-.1-2-.2-.7-.1-1.4-.1-2-.1h-1.3c-.1 0-.2.1-.3.2-.5.3-1 .7-1.5 1-.5.4-.9.7-1.3 1-.8.6-1.5 1.2-2 1.5-.7.5-1 .7-1 .7"/><path id="Fill-36" class="st17" d="M-121.3 82.6s.2.1.5.1c.3.1.7.2 1.2.3.2.1.5.1.8.2.1 0 .3 0 .4.1h2.4c.7.1 1.4.1 2 .3.7.1 1.3.3 1.7.5.5.2.9.4 1.1.6.3.1.4.2.4.2h-.5c-.3 0-.7-.1-1.3-.1-.3 0-.5-.1-.8-.1-.3 0-.6-.1-.9-.1-.6 0-1.3-.1-2-.1-.7-.1-1.3-.1-2-.2h-.7c-.2-.1-.3-.1-.4-.2-.3-.1-.5-.2-.8-.4-.5-.3-.8-.5-1.1-.8.1-.1 0-.3 0-.3"/><path id="Stroke-38" class="st38" d="M-144.1 79.9c1.6 0 2.2.5 2.8.4.6-.1-.5-.6-.8-.8-.7-.4-1-.4-1.6-.8-1.2-.8-1.9-2.3-5.1-2.4-2.1-.1-4.2.5-6.3 1.6.3.4.9 1.1 1.8 1.6 1.2.7 2.3.8 3.3.8 2.3.1 4-.4 5.9-.4z"/><path id="Stroke-48" class="st38" d="M-110.6 77.5c-3.6-1.6-6.4-2.2-8.7-2-1.3.1-1.8 1.1-2.8 2-.6.5-2.4 1.3-2.4 1.6.1.3 2.1-.1 2.8 0 3.1.3 5 .6 6.7.4 2.1-.3 3.6-.9 4.4-2z"/><linearGradient id="Stroke-46_1_" gradientUnits="userSpaceOnUse" x1="-404.892" y1="841.086" x2="-404.27" y2="838.199" gradientTransform="matrix(6.7468 0 0 -3.9463 2581.278 3393.241)"><stop offset="0" stop-color="#8daec3"/><stop offset="1" stop-color="#666"/></linearGradient><path id="Stroke-46" d="M-152.4 76.7c-.3 2.1.3 3.6 3 3.6 2.6 0 3.5-.7 3.7-2.8-.5-.8-1.6-1.2-3.1-1.2s-2.8.2-3.6.4z" fill="url(#Stroke-46_1_)" stroke="#878585" stroke-width=".5"/><linearGradient id="Stroke-50_1_" gradientUnits="userSpaceOnUse" x1="-406.147" y1="841.125" x2="-405.526" y2="838.237" gradientTransform="matrix(7.0843 0 0 -4.0685 2759.655 3495.217)"><stop offset="0" stop-color="#8daec3"/><stop offset="1" stop-color="#666"/></linearGradient><path id="Stroke-50" d="M-119.7 75.5c0 1.3.1 2.2.4 2.8.7 1.4 2.4 1.2 3.9 1.2 1.9 0 2.3-1 2.8-2.8-1.7-.6-3-1-3.9-1.2-1-.1-2-.1-3.2 0z" fill="url(#Stroke-50_1_)" stroke="#878585" stroke-width=".5"/><path id="Stroke-60" class="st41" d="M-149 79.1c.8 0 1.4-.6 1.4-1.4 0-.8-.6-1.4-1.4-1.4-.8 0-1.4.6-1.4 1.4 0 .8.6 1.4 1.4 1.4z"/><path id="Stroke-62" class="st41" d="M-116.4 78.3c.8 0 1.4-.6 1.4-1.2 0-.3-.1-.5-.3-.7-.3-.3-1.6-.4-1.8-.4-.4.2-.7.6-.7 1.1.1.6.7 1.2 1.4 1.2z"/><ellipse id="Oval-5_1_" class="st38" cx="-147.9" cy="77.3" rx="1" ry="1"/><path id="Stroke-38_1_" class="st42" d="M-144.1 79.9c1.6 0 2.2.5 2.8.4.6-.1-.5-.6-.8-.8-.7-.4-1-.4-1.6-.8-1.2-.8-1.9-2.3-5.1-2.4-2.1-.1-4.2.5-6.3 1.6.3.4.9 1.1 1.8 1.6 1.2.7 2.3.8 3.3.8 2.3.1 4-.4 5.9-.4z"/><path id="Fill-40" class="st17" d="M-142.5 77.5s-.1 0-.2-.1l-.2-.2c-.1-.1-.2-.1-.3-.2-.2-.1-.5-.2-.8-.4-.3-.1-.7-.2-1.1-.3-.4-.1-.9-.1-1.3-.1h-1.5c-.5 0-1.1 0-1.6.1-.3 0-.6 0-.8.1-.3 0-.6.1-.8.1-.6.1-1.1.2-1.6.3-.5.1-1.1.2-1.6.4s-1 .3-1.4.5c-.4.2-.9.4-1.2.6-.4.2-.7.4-1 .6-.3.2-.5.4-.7.5-.2.1-.4.3-.5.4-.1.1-.2.1-.2.1s0-.1.1-.2.2-.3.4-.4c.2-.2.4-.4.7-.6.3-.2.6-.5.9-.7.4-.3.8-.5 1.2-.7.4-.2.9-.5 1.4-.7.5-.2 1.1-.4 1.6-.5.6-.1 1.1-.2 1.7-.3.3 0 .6-.1.9-.1.3 0 .6 0 .9-.1h1.7c1.1 0 2.1.2 3 .4.4.1.8.3 1.1.4.3.2.6.3.8.5l.2.2.2.2c-.1.2 0 .2 0 .2"/><path id="Fill-42" class="st17" d="M-140.6 75.9s.1 0 .4.1c.2.1.5.2.9.4.3.2.7.5 1.1 1 .1.1.2.2.2.3.1.1.1.2.2.3.1.2.3.5.4.8.2.6.2 1.2.2 1.7 0 .3-.1.5-.1.8-.1.2-.2.5-.3.6-.2.4-.4.6-.6.8-.2.2-.3.2-.3.2s0-.1.1-.4c.1-.2.1-.5.2-.9V81v-.6c0-.5-.1-.9-.3-1.3-.1-.2-.2-.4-.2-.6-.1-.1-.1-.2-.1-.3 0-.1-.1-.2-.1-.3-.2-.4-.4-.7-.7-1-.2-.3-.4-.6-.6-.8-.3 0-.4-.2-.4-.2"/><path id="Fill-44" class="st17" d="M-148.4 89.4l.4-.2c.3-.1.6-.3 1.1-.5.5-.2 1-.5 1.5-.7.3-.1.5-.3.8-.4.1-.1.2-.2.4-.3l.3-.3c.5-.4 1-.9 1.4-1.3.5-.4.9-.8 1.3-1.1.4-.3.7-.6 1-.7.2-.2.4-.3.4-.3l-.2.4c-.1.3-.4.6-.7 1.1-.3.4-.6.9-1.1 1.4-.4.5-.9 1-1.4 1.5-.1.1-.3.2-.4.3-.1.1-.3.2-.5.3-.3.2-.6.3-1 .4-.6.2-1.2.3-1.7.4-.5.1-.9.1-1.2.1-.3-.1-.4-.1-.4-.1"/><ellipse id="Oval-5" class="st38" cx="-115.2" cy="76.5" rx="1" ry="1"/><path id="Stroke-48_1_" class="st42" d="M-110.6 77.5c-3.6-1.6-6.4-2.2-8.7-2-1.3.1-1.8 1.1-2.8 2-.6.5-2.4 1.3-2.4 1.6.1.3 2.1-.1 2.8 0 3.1.3 5 .6 6.7.4 2.1-.3 3.6-.9 4.4-2z"/><path id="Fill-52" class="st17" d="M-124.4 76.3s-.2.2-.5.4l-.5.5-.3.3c-.1.1-.2.2-.3.4-.2.2-.4.5-.6.8-.2.3-.3.6-.4 1-.1.4-.1.7-.1 1.1 0 .2 0 .4.1.6V81.7c0 .1 0 .2.1.3.1.3.3.7.5 1.1.2.3.4.7.7 1 .5.6 1 1.1 1.5 1.5.3.2.5.4.7.6.2.2.4.3.6.4.3.2.5.4.5.4s-.2-.1-.6-.2c-.2-.1-.4-.1-.7-.2-.3-.1-.5-.2-.9-.4-.3-.2-.6-.4-1-.6-.3-.2-.7-.5-1-.8-.3-.3-.6-.7-.9-1.1-.3-.4-.5-.9-.6-1.4 0-.1-.1-.2-.1-.3v-.2-.2-.7c0-.5.1-1 .3-1.4.3-.9.9-1.5 1.5-2 .3-.2.5-.4.8-.5.2-.1.5-.2.6-.3.2-.1.3-.1.4-.2l.2-.2"/><path id="Fill-54" class="st17" d="M-105.6 79.7c.3.2.5.3.6.4.2.1.2.2.2.2s-2-.3-3.4-1c-1.2-.6-2.3-1.4-2.3-1.5-.1-.1-.9-.7-2.6-1.6 1.8.5 3.1 1.1 3.9 1.6.1-.1 3 1.5 3.6 1.9z"/><linearGradient id="Stroke-56_1_" gradientUnits="userSpaceOnUse" x1="-421.596" y1="840.546" x2="-422.978" y2="840.546" gradientTransform="matrix(19.8428 0 0 -6.8087 8223.09 5796.78)"><stop offset="0" stop-color="#aa8e72"/><stop offset="1" stop-color="#d7b492" stop-opacity=".249"/></linearGradient><path id="Stroke-56" d="M-142.9 74.4c1.9-.8-3.6-2.2-5.5-2.8-2.5-.7-5.5-1.6-6.7-1.2s-2.7 1.8-3.9 3.2c-1 1.1-4.7 3.6-2.8 3.6 1 0 5.3-2 9.7-2.8 4.5-.8 8.2.3 9.2 0z" fill="url(#Stroke-56_1_)"/><linearGradient id="Stroke-58_1_" gradientUnits="userSpaceOnUse" x1="-423.618" y1="840.718" x2="-422.723" y2="840.218" gradientTransform="matrix(22.9466 0 0 -6.99 9598.17 5947.82)"><stop offset="0" stop-color="#aa8e72"/><stop offset="1" stop-color="#d7b492" stop-opacity="0"/></linearGradient><path id="Stroke-58" d="M-126 72.4c.8-.4 11.4-3.9 13.4-3.6 1 .2 3 1.9 5.1 3.6 2 1.6 4.1 2.6 3.5 3.2-1.1 1.1-7.7-1.8-11.4-2-3.7-.1-8.3 1.4-10.3 1.2-1.8-.3-1.1-2-.3-2.4z" fill="url(#Stroke-58_1_)"/><path id="Fill-64" class="st17" d="M-158.9 81.3c.1-.1.2-.3.4-.5.1-.1.1-.2.2-.3.1-.1.2-.2.2-.4.2-.3.3-.5.4-.9.1-.2.2-.3.3-.5l.2-.2c.1 0 .1-.1.2-.2.3-.2 2.1-1.1 2.1-1.1s-.4.7-.5.7c-.1.1-.3.2-.5.4s-.4.3-.6.5c0 .1-.1.1-.1.2l-.1.2c-.1.1-.2.2-.2.4-.1.3-.3.6-.6.9l-.3.3-.3.3c-.2.2-.4.3-.6.3h-.2-.1l.1-.1z"/><path id="Fill-66" class="st17" d="M-157.5 86.6s.1-.1.3-.4c.2-.2.4-.5.9-.9.2-.1.4-.3.8-.4.3 0 .6-.1.9-.1.6 0 1.2-.1 1.9-.1 1.3 0 2.5.1 3.5.3.5.1.9.2 1.2.2.3.1.4.1.4.1s-.2.1-.4.1c-.3.1-.7.2-1.2.2-1 .2-2.2.3-3.5.2-.6 0-1.3 0-1.9-.1-.3 0-.6 0-.8-.1-.1 0-.4 0-.6.1-.4.2-.8.3-1 .4-.3.4-.5.5-.5.5"/><path id="Fill-68" class="st17" d="M-92.5 82.3s0-.1.1-.2.2-.3.3-.5c.1-.2.3-.5.6-.8.1-.1.2-.1.3-.2.1 0 .2-.1.3-.2.1 0 .2-.1.4-.1h.2c.1 0 .1 0 .2.1.6.2 1 .6 1.3 1.1.3.5.6 1 .8 1.5.2.6.3 1.2.3 1.9s-.2 1.3-.4 1.9c-.2.6-.5 1.2-.8 1.7l-.1.2-.1.1-.1.1c-.1.2-.2.3-.4.4-.2.2-.5.4-.8.6-.2.1-.3.1-.5.2-.1 0-.1 0-.2.1h-.2c-.3 0-.5 0-.7.1-.2 0-.3.1-.4.2 0 0-.1.1-.1.2s-.1.2-.1.3c-.1.4-.2.9-.4 1.2-.2.3-.4.6-.5.8-.3.4-.5.7-.5.7s.1-.3.3-.8c.1-.2.2-.5.3-.9.1-.3.1-.7.2-1.2v-.4c0-.1.1-.3.2-.5.2-.3.5-.5.8-.6.3-.1.6-.2.8-.2h.2s.1 0 .2-.1c.1 0 .2-.1.3-.1.2-.1.4-.3.5-.4.1-.1.2-.2.2-.3v-.1-.1l.1-.2c.3-.5.5-1 .7-1.5.2-.5.3-1.1.3-1.6s0-1-.2-1.5-.3-1-.5-1.4c-.2-.4-.5-.8-.8-.9-.3-.1-.6-.1-.9.1-.3.2-.5.4-.7.5l-.4.4c-.1.3-.1.4-.1.4"/><path id="Fill-70" class="st17" d="M-88.6 74.8s0-.1.1-.3c.1-.2.2-.5.3-.8.3-.7.8-1.5 1.5-2.2.2-.2.4-.4.6-.5.1 0 .1-.1.2-.1H-85.3c.1 0 .1 0 .2.1s.2.1.3.2c.3.3.3.5.4.8.1.2.1.4.1.6v.9c0 .2-.1.3-.1.3s-.1-.1-.2-.3c-.1-.2-.2-.5-.4-.8-.1-.2-.2-.3-.3-.5-.1-.1-.2-.3-.3-.3h.1-.1.1-.1c-.1.1-.3.2-.4.4-.3.3-.6.7-.9 1-.3.3-.6.6-.9.8-.3.2-.5.4-.7.6l-.1.1"/><path id="Fill-72" class="st17" d="M-176.8 69.2h.1c.1 0 .2 0 .3.1.1 0 .3.1.5.2s.4.2.7.3c.5.3 1 .7 1.4 1.2.2.3.4.6.5 1l.1.3c0 .1 0 .2.1.3v.6c0 .4-.1.8-.2 1.1-.1.4-.2.7-.3 1-.3.6-.6 1.1-.9 1.6-.3.4-.6.8-.8 1l-.3.3s0-.2.1-.5.2-.7.4-1.2c.1-.2.2-.5.3-.8.1-.3.2-.6.3-.8.2-.6.3-1.2.3-1.8v-.5-.4c-.1-.3-.2-.5-.3-.8-.3-.5-.6-.9-1-1.3l-.5-.5c-.2-.1-.3-.3-.4-.4-.2.2-.4 0-.4 0"/><path id="Fill-1_1_" class="st17" d="M-154.9 110.5v.4c0 .2-.1.6-.1 1s0 .8.1 1.3v.4c0 .1.1.2.1.3.1.2.2.4.3.7.1.2.2.5.3.7.1.1.1.2.1.4l.1.2c0 .1 0 .1.1.2.1.5.2.9.3 1.4.1.4.1.7.1 1v.4s-.1-.1-.2-.3c-.1-.2-.3-.5-.6-.8-.2-.4-.4-.8-.7-1.2-.1-.2-.2-.4-.3-.7-.1-.2-.2-.5-.3-.7-.1-.3-.2-.5-.3-.8 0-.1-.1-.3-.1-.5v-.2-.2c0-.6.1-1.1.3-1.5.2-.4.4-.7.5-.9.2-.5.3-.6.3-.6"/><path id="Fill-74" class="st17" d="M-171.7 78.3s-.1 0-.2.1c-.1 0-.1.1-.2.1s-.2.1-.3.1c-.2.1-.5.3-.8.5-.3.2-.5.5-.7.8-.2.3-.3.8-.3 1.2 0 .5 0 .9.1 1.5 0 .3.1.5.2.8v.2l.1.2.1.4c.1.3.2.5.3.7.1.2.2.5.4.7.3.4.6.8 1.1 1.1.4.3.9.5 1.4.7.3.1.5.2.8.5l.4.4.1.2.1.2c.2.6.1 1.2.1 1.6-.1.4-.1.8-.1 1.1 0 .3.1.6.3.8.2.2.4.2.5.2h.2s-.1 0-.2.1c-.1 0-.4 0-.6-.1-.3-.2-.5-.5-.6-.8-.1-.4-.1-.8-.1-1.3 0-.4 0-.9-.2-1.2l-.2-.1-.1-.2s-.1-.1-.2-.1c-.1-.1-.4-.2-.6-.3-.5-.2-1.1-.4-1.7-.7-.6-.4-1-.9-1.4-1.4-.2-.3-.3-.6-.5-.9-.1-.3-.3-.6-.3-.9l-.1-.4-.1-.2v-.2c-.1-.3-.1-.6-.1-.9-.1-.6-.1-1.2 0-1.7.1-.6.3-1.1.6-1.5.3-.4.7-.7 1-.8.3-.2.7-.3.9-.3.3-.1.5-.1.6-.1l.3-.1"/><linearGradient id="Path-135_1_" gradientUnits="userSpaceOnUse" x1="-404.348" y1="840.364" x2="-404.515" y2="839.364" gradientTransform="matrix(6.6908 0 0 -3.5784 2551.969 3086.043)"><stop offset="0" stop-color="#fff"/><stop offset="1" stop-color="#fbcfbb"/></linearGradient><path id="Path-135" d="M-155.6 78.9c.4 0 1.5.6 2.4 1.2 1.1.7 2.4 1.1 2.4 1.6 0 .8-2.9.9-4.3.8-1.5-.1-2.4-.4-2.4-1.2 0-.4.3-1.1.8-1.6.7-.8.7-.8 1.1-.8z" fill="url(#Path-135_1_)"/><linearGradient id="Path-136_1_" gradientUnits="userSpaceOnUse" x1="-414.946" y1="841.092" x2="-416.236" y2="841.177" gradientTransform="matrix(11.4029 0 0 -29.1773 4597.624 24631.225)"><stop offset="0" stop-color="#fbcfbb"/><stop offset=".407" stop-color="#fde3d7"/><stop offset="1" stop-color="#fbcfbb"/></linearGradient><path id="Path-136" d="M-136.7 77.3c.8-1.7 1.5-3 2.4-.8.8 2.2-.8 4.5-1.2 15s-.6 9.5 0 12.7c.2 1.2-3.3-1.2-4.3-1.2-1.5-.1-2.1 2.5-3.6-.4-.3-.5-.2-1.9 0-3.1.1-.4.3-.8.8-1.2v-.4c-1.2-3.4-3.5-3.6-2.8-6.7.5-1.8 6-5.2 7.5-7.1 1.5-2 .4-5.2 1.2-6.8z" fill="url(#Path-136_1_)"/><linearGradient id="Path-137_1_" gradientUnits="userSpaceOnUse" x1="-414.632" y1="840.38" x2="-416.393" y2="840.716" gradientTransform="matrix(11.2068 0 0 -6.6231 4514.645 5686.742)"><stop offset="0" stop-color="#c78b83"/><stop offset=".123" stop-color="#d5a7a1"/><stop offset=".288" stop-color="#e4c7c3"/><stop offset=".457" stop-color="#f0e0dd"/><stop offset=".629" stop-color="#f8f1f0"/><stop offset=".808" stop-color="#fdfcfb"/><stop offset="1" stop-color="#fff"/></linearGradient><path id="Path-137" d="M-143.8 116.7c-.4.8.4 5.1 5.1 6.3 2 .5 2.2-.6 3.5-2 .8-.8 5.1-2.4 0-2.8-5-.3-8.2-2.2-8.6-1.5z" opacity=".367" fill="url(#Path-137_1_)"/><linearGradient id="Path-138_3_" gradientUnits="userSpaceOnUse" x1="-403.861" y1="838.935" x2="-407.553" y2="845.607" gradientTransform="matrix(6.6925 0 0 -3.6009 2593.778 3105.285)"><stop offset="0" stop-color="#fbcfbb"/><stop offset="1" stop-color="#fff"/></linearGradient><path id="Path-138" d="M-116.4 81.2c-.3-.5 2.3-.9 3.2-1.3s2.8-1.4 3.2-.6 0 2.5-1.6 3.2c-1.6.7-4.5-.8-4.8-1.3z" fill="url(#Path-138_3_)"/><linearGradient id="Path-138_4_" gradientUnits="userSpaceOnUse" x1="-415.432" y1="839.685" x2="-411.984" y2="844.068" gradientTransform="matrix(10.9875 0 0 -5.7932 4439.957 4935.476)"><stop offset="0" stop-color="#fbcfbb"/><stop offset="1" stop-color="#fff"/></linearGradient><path id="Path-138_1_" d="M-122.5 65.5c.4-.2 2.2-.9 4-1.2 2.1-.4 3.9-.8 4.6 0 .7.7 3.3 3.9-4.6 5.1s-5-3.5-4-3.9z" fill="url(#Path-138_4_)"/><linearGradient id="Path-138_5_" gradientUnits="userSpaceOnUse" x1="-424.847" y1="842.652" x2="-419.624" y2="845.728" gradientTransform="matrix(24.0394 8.2774 10.2131 -29.6611 1483.049 28601.244)"><stop offset="0" stop-color="#fbcfbb"/><stop offset="1" stop-color="#fff"/></linearGradient><path id="Path-138_2_" d="M-118.7 85.7c-.1-.6 2.4-.1 3.5-.1.6 0 5.2.4 9.4 1 .8.1-4.7-1.9-4.1-3.3.2-.4.8-2.3 2-2.4 1.5-.1 3.6.5 4.3 0 1.3-.8 1-1.9.8-3.2-.9-4.5-4.7-8.7-2-7.9 5.5 1.6 6.1 9.1 6.7 12.2 1.4 7.1-.4 15.1-7.5 18.2-5.2 2.2-17.7-3.3-19.7-7.5-1.2-2.5 8.3-2.7 10.6-4 1.5-.7-4-2.9-4-3z" fill="url(#Path-138_5_)"/><path id="Fill-9" class="st17" d="M-142.5 98s0 .1-.1.3c-.1.2-.2.5-.3.8-.1.3-.2.7-.2 1V101.4c0 .4 0 .7.2 1.1 0 .1.1.2.1.3v.1l.1.1c.1.1.1.3.2.4.2.2.4.4.6.4H-141.6l-.1.1s-.1.1-.2.1-.3.1-.4.1c-.2 0-.4-.1-.6-.2-.2-.1-.4-.3-.5-.5 0-.1-.1-.1-.1-.1v-.1c-.1-.1-.1-.2-.2-.3-.1-.2-.2-.5-.3-.7-.1-.3-.1-.6-.1-.8 0-.3 0-.5.1-.7 0-.1 0-.2.1-.3 0-.1 0-.3.1-.4.1-.5.4-.9.7-1.2.3-.3.5-.5.7-.6-.2-.1-.1-.2-.1-.2"/><linearGradient id="Path-141_3_" gradientUnits="userSpaceOnUse" x1="-426.612" y1="841.848" x2="-423.543" y2="841.125" gradientTransform="matrix(24.5713 0 0 -32.8072 10302.697 27706.447)"><stop offset="0" stop-color="#c89983"/><stop offset="1" stop-color="#fbcfbb"/></linearGradient><path id="Path-141_1_" d="M-123.3 98.2c.8 1 1 2.3 1.6 3.2 1.6 1.2 2.4 3.2 4.7 5.1s7.7 2.3 8.7 5.1c.6 1.8 1.7 2.8.6 5.5-.8 2-3 3.5-4.1 5.1-.8 1.1-2.3 2.9-.8 3.2 1.5.3 5.1-3.2 4.9-2.4-1.1 3.3-2.9 4.8-2.5 4.8.4 0 6.5-4.8 9.4-12.2 1-2.5 1.3-6.5 1.6-10.3.4-5.2.5-9.9.4-10.3-.2-.7-2.2 5.7-7.1 7.1-4.2 1.2-11.4-2.4-12.2-2.8-3.2-1.5-5.8-1.7-5.2-1.1z" fill="url(#Path-141_3_)"/><linearGradient id="Path-142_1_" gradientUnits="userSpaceOnUse" x1="-419.538" y1="839.91" x2="-420.917" y2="841.038" gradientTransform="matrix(17.3072 0 0 -14.8249 7130.756 12566.184)"><stop offset="0" stop-color="#c89983"/><stop offset="1" stop-color="#fbcfbb"/></linearGradient><path id="Path-142" d="M-143.4 97c.8.8-.8 3.2-1.6 4.7-.8 1.6-2.4 3.2-6.3 4.7-2 .8-8-.7-9.1-2.4-1-1.7 2.9-3.7 3.5-4.3.8-.9 5.8-7.9 9.1-7.9 1.6.1 4.2 5 4.4 5.2z" fill="url(#Path-142_1_)"/><linearGradient id="Path-143_1_" gradientUnits="userSpaceOnUse" x1="-396.458" y1="841.575" x2="-396.458" y2="838.965" gradientTransform="matrix(5.1433 0 0 -24.3533 1904.612 20576.658)"><stop offset="0" stop-color="#fbcfbb"/><stop offset="1" stop-color="#c89983"/></linearGradient><path id="Path-143" d="M-137.1 103c.1-1.1.2-2.5.4-3.6.2-1.2.6-2 .8-3.6.6-4.5 1-15.8 2-14.2.9 1.6 1 14.6 1.2 18.9.1 2.3.9 3.6.8 4.3-.3 1.5-3.4 1-4.7-.4-.5-.3-.5-.8-.5-1.4z" opacity=".453" fill="url(#Path-143_1_)"/><linearGradient id="Path-144_1_" gradientUnits="userSpaceOnUse" x1="-410.383" y1="840.864" x2="-410.883" y2="840.282" gradientTransform="matrix(8.5592 0 0 -16.2146 3383.47 13732.096)"><stop offset="0" stop-color="#fbcfbb"/><stop offset="1" stop-color="#fff"/></linearGradient><path id="Path-144" d="M-131.6 104.2c-.6 0-1-4.4-.8-8.7.2-3.6.7-7.1 1.6-7.5.9-.4 1.6 3.2 3.1 5.9 1.9 3.3 4.6 5.9 3.5 6.7-.9.7-2.3.5-3.5 1.2-1.6.8-3.2 2.4-3.9 2.4z" fill="url(#Path-144_1_)"/><linearGradient id="Path-147_1_" gradientUnits="userSpaceOnUse" x1="-425.711" y1="841.574" x2="-424.853" y2="839.914" gradientTransform="matrix(31.9736 0 0 -51.9875 13454.858 43842.758)"><stop offset="0" stop-color="#fbcfbb"/><stop offset="1" stop-color="#fff"/></linearGradient><path id="Path-147" d="M-140.6 137.3c.9-1.3.4-2 2.4-4.3 2-2.4 4.5-1.8 4.3-3.2-.1-.5.1-.3-3.3-2.5s-4.6-3.4-6.5-6.1c-2-2.8-1.6-3.9-3.1-3.6-3.1.8-3.9 4.8-6 2.2-1.2-1.5-2-2.8-2.3-3.4-.8-1.6-1.2-2.8-.8-4.3s1.7-2.4 2-2.4c.2 0 .1.8-.4 2.4.1 2.6.7 3 2 1.2.8-1.2 1.4-1.5 2-2 .9-.8 1.6-1.2 2.4-1.2.8 0 .8.4.8 1.2 0 1.1-.1 2.1 0 2.4.2.7.9 1.3 1.5 1.3 2.5.1 8.5-.3 9.2-.5.3-.1-.9-1.6-.8-2.8.1-2.1 1.3-4.6.4-5.1-1.4-.8-1.2-1.4-3.1-2s-2.4.4-3.1-.4c-.8-.8-1.2-1.6-1.2-2.4s-.7.5-1.2 1.2c-1.2 1.6-2.7 2.2-3.5 2.8-2 1.2-7 2.2-8.3-.8-1.2-2.9 3.9-5.9 2-10.7-1.9-4.7-4.3-9.9-5.9-8.3-1.6 1.6-3.2 4.9-3.9 8.3s-.4 5.1-.4 8.7c0 3.6.4 6.7.8 9 .2 1.5 1.6 4 2.8 5.6 1.7 2.2 3.1 4.3 3.1 2.8s-3.9-9-2.4-8.3c1.5.7 5.1 11 7.9 14.2 1.8 2.1 5 5.4 9.4 9.9 1.5 1.5 2.7 1.9 3.2 1.1z" fill="url(#Path-147_1_)"/><radialGradient id="Path-148_3_" cx="-407.103" cy="834.887" r="1.111" gradientTransform="matrix(7.2731 -.6063 -.2569 -3.0819 3058.437 2440.318)" gradientUnits="userSpaceOnUse"><stop offset="0" stop-color="#d8ac9b"/><stop offset=".287" stop-color="#e8bca9"/><stop offset=".674" stop-color="#f6cab6"/><stop offset="1" stop-color="#fbcfbb"/></radialGradient><path id="Path-148_1_" d="M-117 117.6c-1.2-.7-1.8-2.5-1.9-2.4-.2.1.5-.3 1.1-.4.8-.1 2-.8 1.2-1.2-.3-.2-2.5 1-2 .8 1.7-.7 5.5-4.3 6.7-3.9.5.1 2 1.8 2 2.8 0 1.2-.5 2.6-2 3.6-1.6 1-4.6 1-5.1.7z" fill="url(#Path-148_3_)"/><linearGradient id="Path-149_1_" gradientUnits="userSpaceOnUse" x1="-407.982" y1="841.126" x2="-407.982" y2="840.126" gradientTransform="matrix(7.711 0 0 -7.6402 3012.655 6533.194)"><stop offset="0" stop-color="#c89983"/><stop offset="1" stop-color="#fbcfbb"/></linearGradient><path id="Path-149" d="M-135.1 106.9c.4 0 .4.3 1.2.4.8.1 2-.8 2.4-.4.8.8 1.6 2.3 2 3.7.3 1.2.1 2.5 0 2.6-.5.7-1.6 1.1-2.4 1.2-1.3.2-2.9-.1-3.9-.8-.7-.4-1.1-1.3-1.2-1.6-.2-.7 0-1.6.4-2.8.3-1.1.8-2.3 1.5-2.3z" opacity=".346" fill="url(#Path-149_1_)"/><linearGradient id="Path-154_1_" gradientUnits="userSpaceOnUse" x1="-400.083" y1="840.243" x2="-403.362" y2="841.396" gradientTransform="matrix(6.0579 0 0 -11.1015 2262.653 9427.708)"><stop offset="0" stop-color="#fbcfbb"/><stop offset="1" stop-color="#fff"/></linearGradient><path id="Path-154" d="M-167.8 93.9c.4 4.3-.2 5.8-1.6 4.3-2.1-2.1-4-8.8-4.3-10.3-.2-.7.1 0 .8.4.7.5 1.8.7 2.2 1.2.7.9.2 2 1 3.2.5.8 1.1 1.2 1.9 1.2z" fill="url(#Path-154_1_)"/><linearGradient id="Path-155_1_" gradientUnits="userSpaceOnUse" x1="-375.643" y1="839.908" x2="-377.225" y2="840.551" gradientTransform="matrix(3.253 0 0 -4.283 1049.377 3667.153)"><stop offset="0" stop-color="#fbcfbb"/><stop offset="1" stop-color="#fff"/></linearGradient><path id="Path-155" d="M-176.4 68.4c-.4-.7 1.1-2.2 1.5-1.4.5.8 1.2 3.2 1.6 3.9.2.5-.7-.7-1.6-1.6-.6-.4-1.4-.6-1.5-.9z" fill="url(#Path-155_1_)"/><linearGradient id="Path-156_1_" gradientUnits="userSpaceOnUse" x1="-381.683" y1="840.939" x2="-381.683" y2="839.939" gradientTransform="matrix(3.6045 0 0 -5.9454 1202.066 5073.896)"><stop offset="0" stop-color="#fbcfbb"/><stop offset="1" stop-color="#fff"/></linearGradient><path id="Path-156" d="M-175.2 80.1c-.3-.1-.4-1.2 0-1.6.4-.4.9-.6 1.6-2 .7-1.3.9-2.2 1.2-2.4.3-.2.3.6.4 1.6.1.9.4 1.6 0 2s-1.9.8-2.4 1.2c-.5.4-.6 1.3-.8 1.2z" fill="url(#Path-156_1_)"/></g><linearGradient id="Path-205_1_" gradientUnits="userSpaceOnUse" x1="-351.066" y1="838.083" x2="-352.61" y2="841.757" gradientTransform="matrix(54.8109 0 0 -11.1232 19306.494 10158.257)"><stop offset="0" stop-color="#fff"/><stop offset="1" stop-color="#fff" stop-opacity="0"/></linearGradient><path id="Path-205" d="M8.8 800.4c14.3 4.2 18.8 5.3 17.6 7.6s-9.6 4.2-26.4 2.5c-10.7-1.1-19.1-4-23.9-5.9-2.8-1.1-4.6-1.3-4.2-2.1.6-1.1 10.1 2.9 22.3 1.7 12.1-1.3 8.7-5.6 14.6-3.8z" fill="url(#Path-205_1_)"/><linearGradient id="Path-206_1_" gradientUnits="userSpaceOnUse" x1="-350.484" y1="842.005" x2="-350.984" y2="837.409" gradientTransform="matrix(36.3474 0 0 -12.2557 12604.1 11117.65)"><stop offset="0" stop-color="#fff" stop-opacity="0"/><stop offset="1" stop-color="#fff"/></linearGradient><path id="Path-206" d="M-149.9 806.2c-7.8 2.5-11.4 7.4-2.5 10.1 8.8 2.7 17.2 2.5 25.2 0s7.4-7.5 1.7-10.1c-3-1.3-2.1 3.8-12.6 3.8-14.3 0-8-4.9-11.8-3.8z" fill="url(#Path-206_1_)"/><linearGradient id="Path-207_1_" gradientUnits="userSpaceOnUse" x1="-350.017" y1="841.49" x2="-350.639" y2="840.057" gradientTransform="matrix(33.9691 0 0 -27.0606 11847.03 23557.955)"><stop offset="0" stop-opacity="0"/><stop offset="1"/></linearGradient><path id="Path-207" d="M-57.1 784c8.2 1.4 23.5 22 23.1 26-.3 2.3-7.4-.3-15.5-1.7-6.1-1-13.3.1-16-2.9-6.2-7 .2-22.9 8.4-21.4z" fill="url(#Path-207_1_)"/><linearGradient id="Path-208_1_" gradientUnits="userSpaceOnUse" x1="-353.918" y1="841.506" x2="-351.301" y2="840.739" gradientTransform="matrix(73.7689 0 0 -196.837 25946.348 165905.703)"><stop offset="0" stop-opacity="0"/><stop offset=".727" stop-opacity=".384"/><stop offset="1"/></linearGradient><path id="Path-208" d="M-101.2 237.8c5.3 9.4 10.1 19.1 14.3 29.2 4.2 10.1 11.9 26.4 23.1 48.9.3 13.8.3 23.9 0 30.2-.2 5.9-1.4 27.3-3.6 64.4-.1 2.1-1.9 3.7-4 3.6-1.1-.1-2.1-.6-2.8-1.4-10.5-13.5-17.8-22.9-22-28.2-1.9-2.4-3.5-2-5-4.2-1.3-1.7-2.1-4-3.4-5.9-.7-1.1-3.4-2.9-4.2-4.2-2.1-3.2-5.3-10.2-9.7-18.1-2.1-3.7-5.7-7.3-7.1-11.3-.9-2.4-1.2-5.7-1.7-8-.7-3.2-2.9-6.9-2.5-9.7 1.3-8.4 3.4-68.9-7.6-105-1.4-4.5 10.2 12 19.2 10 6.3-1.4 12 1.9 17 9.7z" opacity=".52" fill="url(#Path-208_1_)"/><linearGradient id="Path-209_1_" gradientUnits="userSpaceOnUse" x1="-352.482" y1="841.245" x2="-352.769" y2="841.278" gradientTransform="matrix(62.5386 0 0 -200.4011 22080.703 168882.328)"><stop offset="0" stop-opacity="0"/><stop offset="1"/></linearGradient><path id="Path-209" d="M40.7 193.7c-4 13.7-6.6 24.7-8 32.8-1.2 7.5-12.6 80.7-12.6 83.6 0 2.9.2 4.1 0 5.2-.2 1.1-1.7 7.8-2.6 10.3-.8 2.5-9.3 21.3-12.6 28.1-1.3 2.8-1.3 3.8-1.7 5.9-.4 2.1-1.3 4.6-2.1 5.5-.8.8-.8 2.1-3.4 2.9-2.5.8-4.2 2.1-1.7 7.6 1.1 2.4 5.3 7.2 12.6 11.8 2.5 1.6 7.1 3.8 13.9 6.7-11.5-8.3-17.9-14.5-19.1-18.5-1.9-6 12.6-.8 8-18.1-4.6-17.2 9.5-16.5 21.4-27.7 11.9-11.2 13-2.1 17.6 0s7.1.4 7.1-2.9-4.8-5.6-8.8-5.5c-6.1.1-13.4 2.5-21.2 5.5-3 1.1-3-4.2-.4-4.7 3.6-.7 9.9-4.9 12-6.8 1.8-1.7 9.7-9 4.2-12-5.5-2.9-21.8 9.7-21.8 4.6 0-1.4 7.6-5.5 13.4-12.2 10.6-12.1 21.4-23.5 21.4-27.3 0-1.4-4.5 3.1-10.5 4.2-8.3 1.5-13-11.3-13-16.8-.1-10 2.6-30.7 7.9-62.2z" opacity=".235" fill="url(#Path-209_1_)"/><linearGradient id="Path-210_1_" gradientUnits="userSpaceOnUse" x1="-350.175" y1="841.618" x2="-355.846" y2="836.266" gradientTransform="matrix(34.1414 0 0 -112.5943 11947.65 94952.367)"><stop offset="0" stop-color="#fff" stop-opacity="0"/><stop offset="1" stop-color="#fff"/></linearGradient><path id="Path-210" d="M-27.7 290.3c2.8 2.2 13.9-32.9 33.2-105.5l-23.5-7.1c-9.3 72.8-12.5 110.4-9.7 112.6z" fill="url(#Path-210_1_)"/><linearGradient id="Path-211_1_" gradientUnits="userSpaceOnUse" x1="-351.074" y1="840.956" x2="-352.872" y2="842.368" gradientTransform="matrix(44.3969 0 0 -58.5107 15480.462 49401.898)"><stop offset="0" stop-color="#fff" stop-opacity="0"/><stop offset=".406" stop-color="#fff" stop-opacity=".188"/><stop offset="1" stop-color="#fff"/></linearGradient><path id="Path-211" d="M-123.4 179.8c1.3 10.1-11.8 39.1-14.3 31.1-1.4-4.5-4.8-15.6-7.1-24.8-1.8-7.2-3.2-13.2-.4-14.3 4.2-1.7 18.5-7.7 42.8-18.1-14.9 10.7-21.9 19.4-21 26.1z" fill="url(#Path-211_1_)"/><linearGradient id="Path-212_1_" gradientUnits="userSpaceOnUse" x1="-350.478" y1="841.116" x2="-355.206" y2="841.968" gradientTransform="matrix(40.6543 0 0 -139.7244 14120.429 117788.938)"><stop offset="0" stop-color="#fff" stop-opacity="0"/><stop offset="1" stop-color="#fff"/></linearGradient><path id="Path-212" d="M-152.4 177.7c0-3.1-2.4 1.7-4.3 8.5-1.8 6.5-3.1 14.6-4.5 18.9-2.8 8.7-2.3 4.1-5 15.1s-2 14.8-3.4 24.4c-.3 1.7-2.7 8.9-2.9 10.5-1.9 16-1.3 26.1-1.6 35-.5 12.5-.5 18.8.8 18.8 3.4 0 10.2-5.1 19.7-3.4s14.7 9.2 19.3 10.9-23.5-16.8-30.6-31.5c-7.1-14.7-8-40.3 5-35.3s28.1 2.5 22.3.8-15.5-3.4-21-13c-1.8-3.2 16.7 8 17.6 0 1.8-16.4-11.4-55.5-11.4-59.7z" fill="url(#Path-212_1_)"/><linearGradient id="Path-213_1_" gradientUnits="userSpaceOnUse" x1="-353.092" y1="841.251" x2="-348.914" y2="841.195" gradientTransform="matrix(59.4291 0 0 -132.2034 20808.252 111540.188)"><stop offset="0" stop-opacity="0"/><stop offset=".123" stop-opacity=".11"/><stop offset="1"/></linearGradient><path id="Path-213" d="M-135.6 262.6c3.8 10.9-.2 56.9 0 62.2s1.8 6.6 2.5 9.2c1 3.9 1.4 6.9 2.9 9.2 3.8 5.9 16 29.8 18.5 32.8 2.5 2.9-3.8 13-8.8 14.3s-23.3 1.8-26-2.5c-2.7-4.4 15.9.1 15.1-21-.1-3.1-4.9-21-7.6-23.5-4.9-4.5-9 2.6-12.2-2.5-1.2-2 10.5-6.2 8.8-7.6-3.6-3.1-15.7 1.4-17.2-1.3-1.9-3.3 11.5-9.5 10.9-10.9-2.1-5-8.4-1.3-12.2-2.5-3.8-1.3-12.6-4.2-8.8-6.3s8.8-2.9 15.5-2.9c6.7 0 15.4 9.9 17.2 9.2 1.8-.6-1.3-7.9-4.6-13-4.3-6.6-16.5-15.9-16.4-21.8.5-15.8 18.6-32 22.4-21.1z" fill="url(#Path-213_1_)"/><linearGradient id="Path-214_1_" gradientUnits="userSpaceOnUse" x1="-352.394" y1="841.852" x2="-352.894" y2="840.852" gradientTransform="matrix(63.4883 0 0 -183.0381 22386.615 154279.422)"><stop offset="0" stop-color="#fff"/><stop offset="0" stop-color="#fff" stop-opacity=".134"/><stop offset="1" stop-color="#fff" stop-opacity="0"/></linearGradient><path id="Path-214" d="M22.7 206.7c-9.7 2.2-21.4 35.7-38.2 81.7-4.7 12.9-13 34.4-14.7 40.2-2.5 8.5-2.4 18.5-3.4 30.2-.7 9.2-5.9 33.2-2.5 30.7 3.4-2.5 26-25.6 30.6-32.8 4.6-7.1 14.3-25.6 16.4-37.4.9-5.1 4.3-31.3 8.4-58.8 5.3-36.1 10.7-55.4 3.4-53.8z" opacity=".641" fill="url(#Path-214_1_)"/><linearGradient id="Path-215_1_" gradientUnits="userSpaceOnUse" x1="-344.425" y1="843.194" x2="-350.664" y2="840.823" gradientTransform="matrix(30.826 0 0 -60.0444 10813.835 50868.379)"><stop offset="0" stop-color="#fff" stop-opacity=".369"/><stop offset="1" stop-color="#fff" stop-opacity="0"/></linearGradient><path id="Path-215" d="M48.3 333.6c2.8 11.5-14.2 52.4-20.2 55.5-5.9 3-16.4-34-5.9-43.7s23.3-23.3 26.1-11.8z" fill="url(#Path-215_1_)"/><linearGradient id="Path-216_1_" gradientUnits="userSpaceOnUse" x1="-345.085" y1="839.533" x2="-350.874" y2="841.391" gradientTransform="matrix(32.8355 0 0 -43.9579 11498.565 37386.055)"><stop offset="0" stop-color="#fff" stop-opacity=".29"/><stop offset="1" stop-color="#fff" stop-opacity="0"/></linearGradient><path id="Path-216" d="M-10.9 408c3.2-4.4 9.9-23.1 14.5-19.3 7.1 5.9 13.5 10.5 15.8 11.3 4 1.5-11.1 15.5-16 23.5-4.8 8-4.2 10.5-6.3 7.1-1.2-1.9-5.4-6.1-8-10.9-1.9-3.6-3.2-7.4 0-11.7z" fill="url(#Path-216_1_)"/><linearGradient id="Path-217_1_" gradientUnits="userSpaceOnUse" x1="-353.856" y1="840.326" x2="-355.534" y2="844.264" gradientTransform="matrix(145.6661 0 0 -111.3606 51522.96 94136.516)"><stop offset="0" stop-opacity="0"/><stop offset="1" stop-opacity=".587"/><stop offset="1"/></linearGradient><path id="Path-217" d="M-150.3 400.4c9.1 38.2 23.6 62.8 36.9 62.2 3.1-.1 7.1-3.7 16.1-13.9 1.1 1.1 2.6 2.7 4.4 4.6 2.2 2.5 3.8 3.7 3.8 4.6 0 .4-1.7 5.5 2.1 9.2s6.7.4 7.6 1.7c.8 1.3-4.6 8-1.3 12.2 1.6 2 5.9 2.5 7.6 3.4 1.7.8 3.4 3.8 5.5 4.2s5-.8 5.9.4c.8 1.3 5.5 8 8.4 8.8.4.1 1.1.4 3.3.2 2.2-.2 3.9-1 4.3-1 .2 0 1.6 1 3.8 1 1.5 0 2.7-.4 3.8-1.1.3-.2.6-.3 1-.2 3.9.7 6.8.2 8.7-1.4 1.7-1.4 2.5-5.7 2.5-9.7 0-3-.8-5.8-.4-6.7.1-.2 1.7-1.7 4.2-5.9 1.1-1.8 1.2-4.9 0-8-.4-1.1-1.4-2.6-2.9-4.6 3.5-3.8 5.7-6.5 6.7-8 3.9-6 4.7-8.8 5.5-8 .1.1-2.9 8.8-6.7 13.9-1.5 2-.5 4.6 0 8 .8 5.4 1.7 12.1 1.3 16-.7 5.3 5.2 8 6.3 8.2 3.7.7.7 5.8-2.1 8.6-9.8 10.2-34.9 12.9-43.7 12.6-8.7-.3-7.7-8.9-13-12.6-1.6-1.1-27.3-16.8-29.4-18.9-4.3-4.3-14.7 8.8-16.8 7.1s-39.5-38.4-39-42.9c.8-10 2.8-24.7 5.6-44z" fill="url(#Path-217_1_)"/><linearGradient id="Path-218_1_" gradientUnits="userSpaceOnUse" x1="-352.482" y1="842.032" x2="-352.39" y2="840.763" gradientTransform="matrix(57.7856 0 0 -255.1983 20323.988 215330.36)"><stop offset="0" stop-opacity="0"/><stop offset="1" stop-opacity=".399"/></linearGradient><path id="Path-218" d="M-69.7 764.2c0-3.8 6.7-110.4 8-129 .2-3.2 2.4-6.3 2.5-8 .3-4.5-.1-7.3 0-7.6.4-2.1 2.6-1.8 2.9-5.5.4-3.7-1.5-8-1.3-10.9s5.9-5.9 5.9-9.7c0-.8-8-10.1-8.8-16-.3-2.3 1.5-5.7 1.3-10.1-.1-2.1-1.4-6.3-1.7-10.1-.3-4.1.9-11.6.4-22.3-.1-2.2-3.3-6.8-3.8-10.9-.4-3.4-.4-16.8 6.7-5 7.1 11.8 7 13.1 13.9 20.2 16.9 17.5 29 25.4 31.1 28.1 4.3 5.7-12.3-5.3-16.8-7.1-6.5-2.6-10.8-5.4-11.3 1.3-1.4 16.7 22 60.9 22.7 73.1.6 12.3-17.9-17.7-19.4-13.7s6.9 23.8 12.2 32.8 11.8 4.6 10.1 8.4c-.7 1.5-2.7 3.6-4.2 6.7-1.1 2.2-1.8 3.2-3.4 8.8-1.6 5.6.4 8.8-2.5 13.4s-4.2 3.4-7.1 13.4c-2.9 10.1-9.7 61.8-11.3 63.4-1.7 1.7-8.4 1.9-12.6 1.7-4.2-.1-13.5-1.6-13.5-5.4z" fill="url(#Path-218_1_)"/><linearGradient id="Path-219_1_" gradientUnits="userSpaceOnUse" x1="-346.358" y1="841.217" x2="-351.557" y2="841.217" gradientTransform="matrix(40.0647 0 0 -79.3604 14087.982 67203.742)"><stop offset="0" stop-color="#fff"/><stop offset="1" stop-color="#fff" stop-opacity="0"/></linearGradient><path id="Path-219" d="M31.5 405c7.7-4.4 13.4 45.4 10.9 55.5-1 4.1-10.6 14-21.3 19.3C14.4 483.1 3 492.6 3 465.1c0-7.1.5-21 5-30.2 7.3-15.1 18.7-27.1 23.5-29.9z" fill="url(#Path-219_1_)"/><linearGradient id="Path-220_1_" gradientUnits="userSpaceOnUse" x1="-345.241" y1="841.423" x2="-354.816" y2="837.681" gradientTransform="matrix(17.5531 0 0 -92.8437 6063.481 78642.047)"><stop offset="0" stop-color="#fff" stop-opacity="0"/><stop offset="1" stop-color="#fff"/></linearGradient><path id="Path-220" d="M-6.3 497c-2.3 4.9-.4 26.2-.4 40.3s-1.3 52.1.4 48.3c1.1-2.5 8.2-26.2 12.6-49.2 2.2-11.5 2.6-23.5 3.4-31.1 1.7-16-1.3-12.2-6.3-11.3-4.7.8-8.4.1-9.7 3z" fill="url(#Path-220_1_)"/><linearGradient id="Path-221_1_" gradientUnits="userSpaceOnUse" x1="-345.667" y1="841.757" x2="-345.667" y2="840.757" gradientTransform="matrix(18.1023 0 0 -219.5759 6114.395 185387.89)"><stop offset="0" stop-opacity="0"/><stop offset="1" stop-opacity=".276"/></linearGradient><path id="Path-221" d="M-135.6 776.8v-91.2c0-3.4-2.9-10.1-2.9-14.3s3.8-7.1 3.8-12.6.8-34.5.8-41.2c0-6.7-11-57.2-12.2-59.2s1.3 32.3.4 38.2c-.8 5.9-4.2 12.6-5.9 26.9-1.7 14.3 1.7 41 1.7 54.6s-1.9 16.9-1.7 23.5c.1 2.7-.5 13.1.8 30.7.8 11.1 4.2 34.5 5 39.5.3 2.1 1.8 2.9 3.8 4.2 2.9 2 6.4 2.7 6.4.9z" fill="url(#Path-221_1_)"/><linearGradient id="Path-222_5_" gradientUnits="userSpaceOnUse" x1="-338.405" y1="845.698" x2="-339.846" y2="843.989" gradientTransform="matrix(10.4762 2.612 2.8463 -11.416 1087.305 11006.54)"><stop offset="0" stop-color="#c89983"/><stop offset="1" stop-color="#fbcfbb"/></linearGradient><path id="Path-222_1_" d="M-70.4 480.5c.2-.8 4.7-6.9 6.1-7.4 1.4-.5 6.5 3.1 5.4 5.5-1 2.3-3.6 4.8-5.2 5.7-1.5.9-3.2 0-4.2-.6-.8-.7-2.3-2.4-2.1-3.2z" fill="url(#Path-222_5_)"/><linearGradient id="Path-222_6_" gradientUnits="userSpaceOnUse" x1="-329.955" y1="841.663" x2="-331.396" y2="839.954" gradientTransform="matrix(7.2469 0 0 -6.324 2351.935 5793.751)"><stop offset="0" stop-color="#c89983"/><stop offset="1" stop-color="#fbcfbb"/></linearGradient><path id="Path-222_2_" d="M-50 480.7c0-.8 1.3-4.3 2.5-5.1 1.3-.8 5.5.4 4.6 2.5-.8 2.1-2.1 2.9-3.3 3.4-1.2.4-3.8 0-3.8-.8z" fill="url(#Path-222_6_)"/><linearGradient id="Path-223_1_" gradientUnits="userSpaceOnUse" x1="-349.876" y1="844.038" x2="-351.404" y2="841.514" gradientTransform="matrix(41.6816 5.1179 4.0204 -32.7437 11204.628 29814.627)"><stop offset="0" stop-color="#c89983"/><stop offset="1" stop-color="#fbcfbb"/></linearGradient><path id="Path-223" d="M-63.1 436.8c2.2-1.7 3.6-.6 6.1 2 2.5 2.6-.3 4.7 2.6 6.7s5.8-.6 8.8 1.1c2.9 1.7 1 4.3 3.5 5.9 2.5 1.6 4.7-.7 7.1.9s3.7 4.6 1.8 9.5c-1.9 5-6.9 8.8-8.7 8.7s2.9-8.3.7-9.2c-2.2-.9-8.4 6.2-9.6 5.6-.6-.3 1.5-4.5 1.8-7.4.3-2.9-1.3-4.5-2.8-5-2.9-1-11.9 10.4-11.6 8.3.1-1.2 2.1-6.5 3.4-10.2.6-1.7.9-5-.1-6.4-.6-.8-2.1-.5-3 .1-2.3 1.4-10.7 7.4-10.7 4.6 0-1.2 3.5-4.2 5.5-6.9 2.6-3.7 4-7.3 5.2-8.3z" fill="url(#Path-223_1_)"/><linearGradient id="Path-224_1_" gradientUnits="userSpaceOnUse" x1="-346.966" y1="841.438" x2="-349.017" y2="841.063" gradientTransform="matrix(25.2106 0 0 -35.8657 8754.14 30604.72)"><stop offset="0" stop-color="#fff"/><stop offset="1" stop-color="#fbcfbb"/></linearGradient><path id="Path-224" d="M-40.7 418.9c5-1.4 19.7 7.6 22.6 13.4 2.5 4.9-5.9 21.4-10.1 22.3-1 .2 2.3-9.4 0-17.9-1.6-5.8-8.4-10.6-10.9-13.2-2.9-2.9-5.8-3.4-1.6-4.6z" opacity=".486" fill="url(#Path-224_1_)"/><linearGradient id="Path-225_1_" gradientUnits="userSpaceOnUse" x1="-343.539" y1="840.41" x2="-346.294" y2="843.643" gradientTransform="matrix(15.9317 0 0 -32.7687 5423.99 27764.383)"><stop offset="0" stop-opacity="0"/><stop offset=".343" stop-opacity=".134"/><stop offset="1"/></linearGradient><path id="Path-225" d="M-69.7 187c0-4.6 6.6 2.2 9.2 3.8 3.2 1.9 5.7 2 6.3 2.9 1.8 2.6-2.8 2.8-4.6 9.2-1.8 6.4 2.8 20.1-1.7 13.4-4.4-6.6-9.2-24.7-9.2-29.3z" fill="url(#Path-225_1_)"/><linearGradient id="Path-226_1_" gradientUnits="userSpaceOnUse" x1="-347.397" y1="840.96" x2="-340.921" y2="844.212" gradientTransform="matrix(19.9386 0 0 -73.9991 6870.933 62453.195)"><stop offset="0" stop-opacity="0"/><stop offset="1"/></linearGradient><path id="Path-226" d="M-40.3 167.6c.6-.3 1.1-.4 1.5-.4.6 0 1.5.4 1.9 1.3.4.8 7 16.5 7.6 21.4.6 4.9-1.2-1.9-3.8 6.7-2.6 8.6-16 51.3-16 43.7s14.3-51.4 14.3-57.1-13.1 31.5-14.3 31.1c-1.2-.5 8.4-26.6 8.8-33.2.4-6.6-6.3-1.8-6.3-5.5 0-2.4 2.1-5.1 6.3-8z" fill="url(#Path-226_1_)"/><linearGradient id="Path-227_1_" gradientUnits="userSpaceOnUse" x1="-345.966" y1="841.227" x2="-340.3" y2="840.627" gradientTransform="matrix(18.5982 0 0 -57.254 6383.713 48527.371)"><stop offset="0" stop-opacity="0"/><stop offset="1"/></linearGradient><path id="Path-227" d="M-46.2 393.7c-.8 2.9-13.9-4.2-13-9.2.8-5 17.6-51.3 18.5-47.1.8 4.2-4.6 53.3-5.5 56.3z" fill="url(#Path-227_1_)"/><linearGradient id="Path-222_7_" gradientUnits="userSpaceOnUse" x1="-338.231" y1="842.051" x2="-339.672" y2="840.342" gradientTransform="matrix(10.9381 0 0 -12.7538 3637.455 11198.326)"><stop offset="0" stop-color="#c89983"/><stop offset="1" stop-color="#fbcfbb"/></linearGradient><path id="Path-222_3_" d="M-78.5 477.3c0-.8 3.4-8.8 4.6-9.7 1.3-.8 6.7 1.7 6.3 4.2-.4 2.5-2.5 6.3-3.8 7.6-1.3 1.3-3.1.8-4.2.4s-2.9-1.7-2.9-2.5z" fill="url(#Path-222_7_)"/><g id="ripple" transform="translate(164.986 178.134)" opacity=".681"><linearGradient id="XRP_1_" gradientUnits="userSpaceOnUse" x1="-507.236" y1="664.186" x2="-507.236" y2="662.296" gradientTransform="matrix(13.434 0 0 -14.2844 6642.92 9480.64)"><stop offset="0" stop-color="#fff" stop-opacity="0"/><stop offset="1" stop-color="#fff"/></linearGradient><path id="XRP" d="M-166.1 14.7c-.5-.3-1-.4-1.5-.4-.7 0-1.3-.5-1.3-1.2s.5-1.2 1.2-1.3c.5 0 1-.1 1.5-.4 1.4-.8 1.9-2.6 1-4-.8-1.4-2.7-1.9-4.1-1-1.4.8-1.9 2.6-1 4 .4.6.2 1.3-.4 1.7-.6.3-1.3.2-1.7-.4-.3-.4-.6-.8-1.1-1.1-1.4-.8-3.3-.3-4.1 1.1-.8 1.4-.3 3.2 1.1 4 1.4.8 3.3.3 4.1-1.1.4-.6 1.1-.8 1.7-.5.6.3.8 1.1.5 1.7-.8 1.4-.3 3.2 1.1 4 1.4.8 3.3.3 4.1-1.1.9-1.4.4-3.2-1.1-4z" fill="url(#XRP_1_)"/></g></g></g></g></svg>
