<svg  xmlns="http://www.w3.org/2000/svg" viewBox="-159 -4.1 279 849" width="279" height="841"><style>.st0{fill:#7f7166}.st3{fill:#fff;fill-opacity:.2}.st16{opacity:.4;enable-background:new}.st18{fill:#fcc9b5;stroke:#935f52;stroke-width:1.6296}.st19{fill-opacity:.6}.st30{fill-opacity:.5147}.st31{fill:none;stroke:#000;stroke-width:1.2222;stroke-opacity:.3}.st37{fill-opacity:.4}.st40{fill:#935f52}.st52{fill:none;stroke:#935f52;stroke-width:.5}.st54{fill:#fff}.st64{fill:#5b443f}.st66{fill:#68533f}.st69{fill:#9a7161}.st70,.st71{fill:#bc968a;enable-background:new}.st71{fill:#a87d6f}.st72{fill:#f2f2f2}.st73{fill:#b5877d}</style><g id="Page-1_1_"><g id="Artboard" transform="translate(-10593 -2943)"><g id="good" transform="translate(10574 2944)"><g id="Group" transform="rotate(2 -2487.745 799.709)"><g id="color-shoes-2"><path id="path-1" class="st0" d="M62.2 692.1c3 10.4 6.3 18.6 9.8 24.8 5.3 9.3 11.7 11.9 14.2 17.3 1.6 3.6 2.4 8.6 2.2 15.1-4.7 3.6-14.9 5.4-30.6 5.4s-25.6-2.9-30-8.6c.8-10.4.8-17.4 0-21.1-.5-2.4-2.7-2.3-4.4-4.3-.9-1.1-1.6-3.2-1.6-5.4 0-.9 1.7-5 2.7-11.9.4-2.6.8-7.5 1.1-14.6 3.1-4.7 5.6-7.6 7.6-8.6s3.7-.4 5.1 2c1.9-2.1 4.2-3 6.9-2.6 2.8.4 5.5 2 8.2 4.7 2.3-.4 3.9-.2 4.9.7 1.1.9 2.3 3.3 3.9 7.1z"/><path d="M61.4 692.4c-1.5-3.7-2.7-5.9-3.6-6.7-.8-.7-2.1-.9-4.2-.5l-.4.1-.3-.3c-2.6-2.6-5.2-4.1-7.7-4.5-2.5-.3-4.5.4-6.2 2.3l-.8.9-.6-1.1c-1.1-2-2.3-2.5-3.9-1.7-1.8 1-4.3 3.7-7.2 8.2-.3 7-.7 11.8-1.1 14.4-.3 1.8-.6 3.5-1 5.2-.5 2.2-1.7 6.4-1.7 6.5 0 1.9.6 3.9 1.4 4.8.3.4.6.7 1 1 .2.1.4.3.6.4.1.1.5.3.6.4 1.4.9 2 1.6 2.3 3 .8 3.7.8 10.7 0 21 4.3 5.3 14 8 29.1 8 15.1 0 25-1.7 29.7-5 .1-6.2-.6-11-2.1-14.3-.6-1.3-1.5-2.5-2.8-3.9.5.6-5.7-5.5-7.6-7.8-1.4-1.7-2.6-3.5-3.7-5.4-3.5-6.3-6.8-14.6-9.8-25z" fill="none" stroke="#070707" stroke-width="1.711" stroke-opacity=".3"/></g><linearGradient id="Path-206_1_" gradientUnits="userSpaceOnUse" x1="-294.807" y1="764.42" x2="-295.307" y2="759.824" gradientTransform="matrix(45.7231 -.5311 -1.5967 -15.2089 14764.679 12183.107)"><stop offset="0" stop-color="#fff" stop-opacity="0"/><stop offset="1" stop-color="#fff"/></linearGradient><path id="Path-206" d="M72.5 723.6c9.8 3.1 14.3 9.2 3.2 12.5-11.1 3.3-21.7 3.1-31.7 0s-9.3-9.4-2.1-12.5c3.7-1.6 2.6 4.7 15.9 4.7 17.8 0 10-6.2 14.7-4.7z" fill="url(#Path-206_1_)"/><path id="Fill-143" class="st3" d="M86.4 747.4c-.6.1-1.2.1-1.9 0s-1.4-.3-2.1-.6c-1.3-.6-2.7-1.3-4.1-2-.7-.3-1.4-.6-2.1-.7H73.8c-1.7 0-3.5.2-5.3.4-1.8.2-3.6.4-5.4.8-.9.2-1.8.4-2.6.6-.9.3-1.8.5-2.6.8-1.8.6-3.5 1.1-5.2 1.5-1.7.5-3.4.8-5 1-.8.1-1.6.2-2.4.2h-2.2c-2.8 0-5.2-.3-6.8-.4-1.6-.2-2.6-.3-2.6-.3s.9 0 2.6-.1c1.6-.1 4-.1 6.8-.3.7-.1 1.4-.1 2.2-.2.7-.1 1.5-.2 2.3-.4 1.5-.3 3.1-.8 4.8-1.3 1.7-.5 3.4-1.1 5.1-1.7.9-.3 1.8-.6 2.7-.8.9-.3 1.9-.5 2.8-.7 1.9-.3 3.8-.6 5.6-.7 1.9-.2 3.7-.2 5.5-.2H76.2c.2 0 .5.1.7.1 1 .2 1.8.6 2.5 1 1.5.8 2.7 1.6 3.9 2.3.3.2.6.3.9.4.1.1.3.1.4.2l.2.1h.2c.2.2 2.6.9 1.4 1z"/><g id="color-shoes-1"><path id="path-3" class="st0" d="M-58.8 685.3c-7.9 18.2-14.3 28.1-19.2 29.7-7.3 2.4-22.4 8.6-23.7 11.8-.5 1.3-.6 3.2-1.2 4.1-.9 1.3-2.2 1.5-1.2 3.3 1.6 2.9 13 6.9 29.8 6.9 11.1 0 25.1-4.9 42-14.7 0 1.9.3 2.9.8 2.9s6.8-1.4 18.8-4.1l-.2-5.4c.4-1.6.9-3.7 1.4-6.4.4-1.8 1-7 0-14.7-.3-2.6-1.3-7.1-2.9-13.4-12.7-1.9-22.2-2.9-28.5-2.9-6.3 0-11.6 1-15.9 2.9z"/><path d="M-58.2 685.9c-7.9 18.3-14.3 28.2-19.5 29.9-10.3 3.4-22.3 9-23.1 11.3-.1.4-.2.8-.4 1.5v.2c-.3 1.4-.5 2-.9 2.5-.1.2-.3.4-.4.5l-.8.8c-.3.3-.3.4.1 1 1.8 3.1 14.5 6.5 29.1 6.5 11 0 24.9-4.8 41.6-14.6l1.2-.7v1.4c0 .9.1 1.5.2 1.9v.1c1.2-.2 7.4-1.5 17.7-3.9l-.2-4.8v-.1c.4-1.6.9-3.7 1.4-6.4.6-3 .8-8.2 0-14.4-.3-2.5-1.2-6.8-2.7-12.8-12.4-1.8-21.7-2.8-27.9-2.8-6.2.2-11.3 1.1-15.4 2.9z" fill="none" stroke="#000" stroke-width="1.63" stroke-opacity=".3"/></g><path id="Fill-49" class="st3" d="M-14.3 720.3s-1.4.2-3.9.5c-1.2.2-2.7.4-4.5.6-1.7.3-3.7.6-5.7 1.1-1 .2-2.1.5-3.2.9-.5.2-1.1.4-1.5.7-.5.3-1.1.6-1.6.9-2.1 1.2-4.5 2.4-6.9 3.6-2.4 1.2-5 2.3-7.6 3.4-2.6 1.1-5.3 2.1-8 3-2.7.9-5.5 1.7-8.3 2.4-1.4.3-2.8.6-4.2.8-.2 0-.3.1-.5.1l-.5.1c-.3 0-.7.1-1 .1-.7.1-1.4.1-2.1.1-2.7.1-5.4-.1-7.8-.4-2.5-.3-4.8-.8-6.9-1.3-2.1-.5-4-1.1-5.7-1.6-.8-.3-1.6-.5-2.3-.8-.7-.3-1.4-.5-1.9-.7-1.2-.4-2.1-.8-2.7-1.1-.6-.3-.9-.4-.9-.4s.3.1 1 .3c.3.1.7.2 1.2.4.5.1 1 .3 1.6.5.6.2 1.3.4 2 .6.4.1.7.2 1.1.3l1.2.3c1.7.5 3.6.9 5.7 1.3s4.4.8 6.8 1c2.4.2 5 .3 7.6.2.7 0 1.3-.1 2-.2.3 0 .7-.1 1-.1l.5-.1.5-.1c1.3-.2 2.7-.5 4-.8 2.7-.7 5.4-1.5 8.1-2.4 2.7-.9 5.4-1.9 8-3 2.6-1 5.1-2.1 7.6-3.2 1.2-.6 2.4-1.1 3.6-1.7.6-.3 1.2-.6 1.7-.8.6-.3 1.1-.6 1.7-.8.5-.3 1.1-.5 1.6-.8.6-.3 1.2-.5 1.7-.7 1.1-.4 2.2-.6 3.3-.8 2.1-.4 4.1-.6 5.8-.8 1.7-.2 3.3-.3 4.5-.3 1.3-.1 2.2-.1 2.9-.1.6-.2 1-.2 1-.2"/><linearGradient id="Path-474_1_" gradientUnits="userSpaceOnUse" x1="-296.316" y1="765.043" x2="-294.694" y2="762.735" gradientTransform="matrix(50.2023 -.4064 -1.7531 -11.6398 16092.256 9489.66)"><stop offset="0" stop-color="#fff"/><stop offset="1" stop-color="#fff" stop-opacity="0"/></linearGradient><path id="Path-474" d="M-76 717.9c-4.3 1.6-3.5.9-9.9 3.3-2.9 1.1-14.5 4.8-4.5 6.9 3.7.8 13.8 1.2 21.1 0 12.4-2.1 22.9-6.9 24.8-7.7 3-1.3-18.8 0-24.7-1.2-6-1.3-2.4-3-6.8-1.3z" fill="url(#Path-474_1_)"/><g id="color-jeans"><path id="path-5" d="M57.8 302.2c1.2 0 2.5 2.7 4.9 8 1.5 3.2 4.2 7.3 5.2 12.4 3.8 18.6 4.6 48.9 4.6 86.2 0 13.3-.1 28-.3 44-.1 4.4-4.2 12.3-4.3 17.7-.2 8.9-.3 22-.5 39.3-.1 6.2 5.2 17.9 6.5 30.3 1.4 12.4-.8 26.6-1.9 49.5-.4 7.8 2.8 20.8 1.9 35.4-1 16.3-.3 40.1-8.3 70.3-2.9 1.8-6.9 3.7-11.9 4.8 0 0-26.3-2.7-30.1-4.8-3.3-14.9-4.9-25.9-5.1-33.2-.5-25.6 3.5-47.3 2.8-57.9-1.1-16.4-6.5-30.9-6.9-38.5-.9-14.4.4-24.8 0-30.1-.1-2.1-1.7-2.8-1.8-4.4-.6-7.7.4-13.9 0-17.7-.3-3.4-6-6.2-6.2-8.5-.3-2.4-.5-4.6-.7-6.5-2.2-19.4-7.8-33.3-8.8-41.6-2.1-17.1-2.2-11.8-4.6-23.4-2.4-11.6-1.1-10.7-3.2-14.6-.6-1.1-2.9-5.4-6.9-12.8.2 8.2.2 12.9 0 14.2-.7 6.2-.8 11.9-.9 17 0 1.5-.1 3.8-.9 5.6-.9 2.2-2.6 3.9-2.8 5.3-.2 2.1-.2 9.5.1 22.3.1 2.5-2 9.5-1.9 13 .1 3.1 2.4 7.5.5 12.8-1.9 5.3-7.5 9.6-7.4 12.4.1 2.6 5.2 5.7 5.5 10.2.1 2-2.1 7.1-1.8 10.2.1 1.2 3.6 3.1 3.7 4.9.1 1.9-.7 5.4-.5 8.8.1 2 2.5 5.3 2.8 8.8 1 14.1 4.3 50.3 8.6 132-4.9 6.2-22.2 8.1-32.9 6.2-3.2-1.6-12.7-1.6-16.1-6.2 0 0-.6-27.2-5.3-48.9-3.6-16.4-10.1-30.6-12.5-45.5-4.1-25.5-5.6-53.9-7.9-64.6-2.6-12.6 1.8-22.2-.5-28.7-8.3-23.9-13.1-50.2-13.8-54.8-1.8-10.9-2.8-27-3-48.5-2.1-14.2-3.3-24.9-3.6-32.1-.1-1.8 1.9-3.9 2-6.1.2-4.1 0-12.2-.6-24.1-.1-3.4.6-11.6 2.2-24.4l162.6-3.7z" fill="#1b272d"/><path d="M57.8 303.1l-162 3.7c-1.5 12.4-2.2 20.3-2.1 23.6.6 11.9.8 20 .6 24.1 0 1.1-.4 1.9-1.1 3.5-.8 1.6-1 2-.9 2.6.2 7.1 1.4 17.8 3.6 32v.1c.2 21.4 1.2 37.5 3 48.4.7 4.3 2.2 12 4.1 20.1 2.8 12.2 6.1 24 9.7 34.6 1 2.8.9 4.9.2 12.1-.8 7.2-.8 11.5.3 16.7.5 2.2.9 5.2 1.4 9.2.2 1.3 3.4 33.6 4.9 44.5.5 3.8 1 7.5 1.6 10.9.6 3.6 1.4 7.3 2.6 11.4 1.1 3.8 1.4 4.9 4.4 14.5 2.7 8.6 4.2 13.7 5.5 19.5.8 3.5 1.5 7.3 2.1 11.2 1.3 8.3 2.2 17.1 2.7 26 .2 3.1.3 6 .5 8.6 0 .9.1 1.7.1 2.4v.6c1.3 1.7 3.7 2.8 7.3 3.7.7.2 1.4.3 2.3.5.2 0 1.8.4 2.2.5 1.7.4 2.8.7 3.6 1.1 11.7 2 27.3-.5 31.7-5.7-1.9-35.8-3.7-65.3-5.5-91-1-13.5-3-39.5-3.1-40.6-.1-1.4-.5-2.7-1.3-4.6-.1-.3-.5-1.1-.5-1.1-.2-.4-.3-.8-.4-1.1-.3-.8-.5-1.5-.5-2v-.5c-.1-1.4 0-2.8.3-4.8.3-2.4.3-2.8.3-3.5 0-.1-.1-.3-.2-.6-.3-.4-.6-.8-1.3-1.5-1.8-1.7-2.1-2-2.1-2.8-.1-1.2.1-2.6.6-4.5.1-.4.2-.8.3-1.3.8-3 .9-3.7.9-4.3-.1-1.7-.9-3.1-2.6-5.2-.2-.3-.9-1.2-1-1.2-.4-.5-.7-.8-.9-1.2-.7-.9-1-1.7-1.1-2.5 0-1 .4-2.1 1.4-3.4.3-.5.7-1 1.3-1.8.2-.2.8-1 .7-.9.3-.4.5-.7.8-1 1.7-2.2 2.7-3.8 3.3-5.6 1-2.7.9-5 .1-8.7-.5-2.6-.6-2.9-.6-3.8 0-1.4.2-3.3.7-6.1.1-.4.1-.7.2-1.2.8-4.1 1-4.9 1-5.8-.3-12.9-.3-20.3-.1-22.5.1-.6.3-1.1.7-1.8.2-.4 1.2-2 1.1-1.8.4-.7.8-1.3 1-1.9.6-1.4.8-3 .9-5.3v-1c.2-7.8.3-11.3.9-16.1.1-1.2.1-5.9 0-14l-.1-3.5 1.7 3.1c4 7.5 6.3 11.7 6.9 12.8.6 1.1 1 1.9 1.2 2.7.2.5.3 1.1.4 1.9 0 0 .3 2.5.5 3.6.3 1.9.7 4.1 1.2 6.8.5 2.3.9 4 1.3 5.5.2.6.3 1.1.5 1.7 0 .1.3 1.2.4 1.5.2.5.3 1 .4 1.5.6 2.6 1.2 6.1 2.1 13.3.3 2.1.8 4.6 1.8 8.4-.2-.8 2.2 8.4 2.9 11.3 1.9 7.6 3.2 14.5 4 21.8.2 2 .5 4.1.7 6.5.1.6.5 1.1 2.8 3.3 2.2 2.1 3.2 3.5 3.4 5.2.2 1.5.1 2.6 0 6.9-.2 4.6-.2 7.4 0 10.8 0 .4.2.7.5 1.2.1.1.3.5.3.4.7 1 1 1.7 1.1 2.8.1 1.9.1 2.9-.1 9.8-.3 8-.3 13.5.1 20.3.1 1.8.5 4.1 1.2 7.4.4 1.6 2 8.4 2.3 10 1.8 8.1 2.9 14.5 3.4 21.1.3 4.5.3 4.5-1.4 24.4-1.1 13.4-1.6 23-1.4 33.5.1 7.1 1.8 18 5 32.6.7.3 2.1.7 4 1 2.6.5 6.1 1.1 10.2 1.7 3.3.5 6.9.9 10.5 1.3 1.3.1 2.4.3 3.5.4.4 0 .7.1 1 .1h.2c4.1-.9 7.9-2.5 11.2-4.5 3-11.4 5-22.6 6.2-34.1.9-8.4 1.1-13.3 1.7-27.3.1-3.9.2-6.2.4-8.4.4-6.5.1-12.3-.9-21.2-1.1-9.9-1.2-11.2-1-14.2.2-4.3.5-8.6.8-13.4 1.9-27.2 2-28.1 1.1-35.9-.5-4.4-1.5-8.8-3.1-14.8-.2-.7-.4-1.4-.6-2.3-.1-.3-.2-.6-.3-1.1-.1-.5-.2-.8-.3-1.1-.5-1.8-.8-3-1.1-4.2-.7-3-1.1-5.1-1.1-6.9.2-17.3.4-30.4.5-39.3 0-2.1.6-4.4 1.7-7.9.1-.5.3-.9.5-1.5 1.7-5 2.1-6.6 2.1-8.3.2-16.1.3-30.7.3-44 0-43.6-1.2-69.4-4.6-86-.5-2.4-1.4-4.7-2.8-7.6-.1-.2-1.9-3.7-2.3-4.6-3-6.1-4-7.9-4.5-7.9z" fill="none" stroke="#000" stroke-width="1.711" stroke-opacity=".437"/></g><g id="color-shirt"><path id="path-6" d="M-119.4 82.9l48.2-37.1 58.9-5.3 69.7 30.6L48.5 334c-40.3 12.5-70.1 18.7-89.4 18.7-19.2 0-39-6.2-59.3-18.7-10.1-58.3-16.5-107.8-19.3-148.3-2.7-40.6-2.7-74.9.1-102.8z" fill="#ff1515"/><path d="M-118.7 83.4c-2.7 27.8-2.7 61.9 0 102.2 2.7 40.5 9.1 89.8 19.2 147.9 20.1 12.3 39.6 18.4 58.6 18.4s48.6-6.2 88.6-18.5l8.8-261.7-69-30.3-58.5 5.3-47.7 36.7z" fill="none" stroke="#000" stroke-width="1.63" stroke-opacity=".2"/></g><linearGradient id="Path-536_2_" gradientUnits="userSpaceOnUse" x1="-295.207" y1="762.763" x2="-296.702" y2="762.784" gradientTransform="matrix(59.378 -10.5374 -2.0733 -301.7572 19052.611 227256.61)"><stop offset="0" stop-opacity="0"/><stop offset="1"/></linearGradient><path id="Path-536" d="M-119.4 82.9l48.2-37.1c6.6 19.5 9.7 39.6 9.1 60.2-.6 22.5-13.2 91.5-13.5 104-.5 21.9 5.5 31.3 5.4 49.2-.1 21.5-6.3 50-7.8 57-2.5 11.5 9.8 31.6 5.2 31.6-19.2 0-28.3-4.6-27.3-13.8-10.1-58.3-16.5-107.8-19.3-148.3-2.8-40.6-2.8-74.9 0-102.8z" fill="url(#Path-536_2_)"/><g id="ethereum-classic-etc" transform="rotate(-4 2158.909 -1022.185)" opacity=".3"><path id="Shape" d="M-157.7 34.4l29.1-12.2 28.2 12.5-28.2-44.4-29.1 44.1zm.1 13.6l29 16.8L-98.9 48l-29.3 40.7-29.4-40.7z"/><path id="Shape_1_" d="M-128.5 28.2l-30.3 12.7 30.3 16.8L-99 41.3z"/></g><linearGradient id="Path-536_3_" gradientUnits="userSpaceOnUse" x1="-297.513" y1="762.841" x2="-296.898" y2="762.872" gradientTransform="matrix(128.5916 -10.8944 -4.4903 -311.9803 41638.23 234948.563)"><stop offset="0" stop-opacity="0"/><stop offset="1"/></linearGradient><path id="Path-536_1_" d="M-50.2 107.4c-2.4-5.4-9.5-25.9-21.1-61.5l58.9-5.3 69.7 30.6L48.5 334c-40.3 12.5-70.1 18.7-89.4 18.7-6.1 0 50-12.7 47.4-28.1-.6-3.3-19.6.4-21.6-4.9-3.1-8.2 10.2-26.9 6.9-39.9-1.3-5.2.7-19.7-1.2-27.7-1.5-6.3-31.5 16.9-24.5 5.7 24.1-38.7 5.2-68.3 2.3-84-3.9-20.5-5.9-42.6-3.1-63.5.8-5.4-11.8 5.3-15.5-2.9z" opacity=".448" fill="url(#Path-536_3_)" enable-background="new"/><g id="color-jacket"><path id="path-9" d="M21.9 330.7l17.7-17.1c7.2 5.7 13 9.7 17.3 11.8 4.4 2.2 10.2 3.9 17.3 5.3 7.1-13.5 11.6-22.9 13.5-28.1 4-11.3 21.2-47.1 22-49.3.5-1.6 1.5-2.9 1.9-4.1 1.3-4 1-8.3 1.5-11.8.5-3.8 1.8-6.9 1.9-7.3 1.3-4.4.1-9 0-11.4-.4-6 1.5-9.1 1.2-11.4-.6-3.8-2.8-4.9-3.1-6.9-.6-5.2.5-8.7 0-11.4-.6-3.8-3-6.8-3.5-9.4-1.4-8-2.5-18.9-3.9-24-5-19.7-12.3-27.9-18.1-42C77.1 87.4 67.2 69.6 57 63c-3.3-2.1-31.8-17-63.9-20.4-5.6-.6-7.6-12.3-13.1-12.2-16.5.3-42.2 4.7-58.2 12.2-4.2 2-1.2 9.6-5 11-22.4 8.3-43.8 22.8-53.5 32.6-9.6 9.8-11.9 54.9-14.4 76.5-1.1 9.1-3.8 18.9-4.2 30.7-.1 3.4-.4 7.5-.8 12.4-.1 1.2-2.6 2.8-2.7 4.7-.1 1.5 6 6 6.2 9.4.1 2.7-5.4 2-5.4 7.7 0 .8.2 2.6.8 7.3 1.4 12.8 9.1 36.7 17.3 49.5 8.2 12.8 9.2 24.3 9.5 27 .9 9.2 3.8 13.6 4.9 13.9 1.3.3 3-.2 5.2-1.6l-1.6-2.9c.9-1.2 2.6-2.3 4.9-3.3 5.2-2.2 12.3-3.5 21.5-4.1 1.2 5.3 2.1 8.8 2.7 10.6 2.8 8.3 4.7 10.5 5.4 9 2.1-4.7-.4-14.8 0-25.3.5-12.6 3.9-33 4.2-36.7 4.4-41.8-.3-46 1.9-64 7.1-59 13.1-86.6 14.3-105.1.8-12.8-5.4-24.5-10.4-25.3-2.5-.4-.9-5.5-.8-7.3 1.2-25.7 20.4-32.4 24.7-31.8 2.9.4 29.8-13.3 34.3 0 1.3 3.8-1.6 20.5-11.2 32.6C-36.3 77.7-47.1 81.7-52 87c-2.5 2.7-1.9 4.1 0 10.2s2.7 7.7 3.9 9.8c1.2 2 11.9-8.6 13.1-4.9 2.2 7.1 7.4 18.5 9.6 39.5 1.9 18 4.8 39.3 10.4 65.6 4.9 22.8 10.3 39.9 24.2 94.1 1.8 7.1 6.1 16.9 12.7 29.4z" fill="#3d1919"/><path d="M22.2 329.4l17.5-16.9.6.4c7.1 5.7 12.9 9.6 17.2 11.7 4.2 2.1 9.7 3.8 16.5 5.1 6.9-13.2 11.3-22.4 13.2-27.5 1.5-4.2 4.9-12.1 9.9-23.1.2-.5.4-1 .7-1.4 1.2-2.6 11.1-24 11.4-24.8.2-.7.5-1.3.9-2 0 0 .5-.9.6-1.1.2-.4.3-.7.4-.9.3-.8.5-1.7.6-2.7.3-1.5.4-2.6.5-5.3.1-1.8.2-2.7.3-3.7.2-1.4.5-2.8.9-4.1.4-1.3 1.2-3.8 1.1-3.3.1-.3.2-.7.3-1 .5-2.2.4-4.4 0-7.5 0-.2-.2-1.2-.2-1.4-.1-.5-.1-.9-.1-1.2-.2-2.6.1-4.7.6-7.3.7-3.5.7-3.3.6-4-.2-1.4-.7-2.4-1.4-3.5-.1-.1-.9-1.4-1.1-1.7-.3-.6-.5-1.1-.6-1.7-.3-2.4-.3-4.2 0-7.1.2-2.6.2-3.3.1-4.3-.2-1.4-.7-2.8-1.6-4.7-1.6-3.5-1.6-3.5-1.8-4.7-.4-2.4-.8-5-1.4-8.8-.1-.8-.5-3.7-.5-3.6-.2-1.4-.3-2.4-.5-3.4-.6-3.8-1-6.4-1.5-8.2-2.5-10-5.3-16.5-10.7-26.7-.2-.3-.3-.7-.6-1.1-.3-.5-.5-.9-.6-1.1-3.1-5.8-4.6-9-6.3-13C75.5 85.7 66 69.7 56.6 63.7c-3-1.9-11.7-6.1-21-9.7-14-5.3-28.5-9.1-42.6-10.6-2.6-.3-4.1-1.9-7-6.5-.1-.1-.1-.1-.1-.2-2.6-4.2-4-5.6-5.9-5.5-1.8 0-3.6.1-5.5.2 3.5.7 5.9 2.7 7 6 .8 2.2.2 7.7-1.5 13.6-2 7.1-5.4 14.1-9.8 19.7-2.4 3-5.5 5.5-10.3 8.6-.4.3-5 3.2-6.3 4-2.3 1.5-3.9 2.8-5.1 4.1-.5.6-.9 1.1-1.1 1.5-.7 1.3-.5 2 1.3 7.9 1.7 5.4 2.5 7.3 3.8 9.6-.1-.1-.1-.1-.1-.2.3 0 .6-.2 1.1-.5.8-.4 1.2-.7 3.8-2.4.2-.1.4-.2.5-.4 2-1.3 3.2-2 4.3-2.4 1.7-.6 3-.4 3.4 1-.1-.2 3.6 10.3 4.8 14.6 2.2 7.6 3.8 15.7 4.8 25.1 2.4 22.2 5.5 42.5 10.4 65.5.6 2.9 1.3 5.8 2 8.8 2.6 11.1 17.7 67.4 22.3 85.3 2 7.1 6 16.5 12.4 28.6zM-41.4 33.2c-13.4 2.1-27.1 5.7-36.5 10.2-1.4.6-1.9 1.9-2.2 4.7 0 .2 0 .3-.1.6-.4 3.6-.9 5-2.8 5.7-20.3 7.5-42.3 21.3-53.2 32.4-4.9 4.9-8.1 19.3-10.8 42.7-.8 6.9-2.8 28.3-3.1 30.5-.1 1-.2 2-.3 2.8-.4 3.1-.5 3.9-1.9 12-1.4 8-2.1 12.9-2.3 18.7-.1 3.4-.4 7.5-.8 12.5-.1.8-.2 1-1.5 2.6-.8.9-1.1 1.5-1.2 2.1 0 .2 0 .2 2.9 3.5.8.9 1.4 1.6 1.9 2.3.9 1.2 1.4 2.4 1.4 3.4.1 1.2-.5 1.9-1.8 2.7-.1.1-1 .6-1.3.8-1.6 1-2.3 2.2-2.3 4.3 0 .4 0 .9.2 2.1 0 0 .4 3.6.6 5.1 1.5 13.7 9.5 37.3 17.1 49.2 3.7 5.7 6.2 11.6 7.8 17.5.6 2.2 1 4.3 1.4 6.2.2 1.3.3 2.1.5 3.6.4 4.1 1.2 7.5 2.3 10.1.8 1.9 1.7 3.1 2 3.1.9.2 2.2-.1 3.9-1.1l-1.5-2.6.3-.4c1-1.3 2.8-2.5 5.2-3.5 5.3-2.2 12.5-3.6 21.8-4.1h.7l.2.7c1.2 5.3 2.1 8.8 2.7 10.5 1.3 3.8 2.5 6.5 3.4 8 .2.3.4.6.6.7.9-2.2.9-4.7.2-12.8-.4-5.3-.5-8.4-.4-11.9.2-3.7.6-8.3 1.2-13.6.3-2.4.6-4.9.9-7.5.5-4 2-14.7 2.1-15.6 2.1-19.7 2.3-30.5 1.6-44.2-.2-5.1-.3-5.3-.3-7.1-.1-4.4 0-8.2.6-12.7 2.9-24.4 5.4-41.4 9.4-67.8 3.5-23 4.4-29.5 4.9-37.3.7-11.5-4.7-23.6-9.7-24.4-1.9-.3-2.3-2.1-1.9-4.9 0-.4.1-.8.2-1.3.3-1.6.3-1.6.3-2 .5-11.7 4.7-20.4 11.5-26.3 4.9-4.3 11-6.7 14.1-6.2.3 0 1.3-.2 3-.8 0 0 4.6-1.6 6.2-2.1 1-.6 1.9-.9 2.8-1.1zm-6.1 73.4z" fill="none" stroke="#000" stroke-width="1.63"/></g><path id="Fill-99" d="M-83.8 498.5s.1.1.3.2c.2.2.5.4.9.7.8.6 1.9 1.5 3.2 2.6.6.5 1.3 1.1 2 1.8s1.5 1.3 2.2 2.1l2.3 2.3c.8.8 1.5 1.6 2.3 2.5.7.8 1.5 1.7 2.2 2.5.7.8 1.4 1.7 2 2.5l1.8 2.4c.6.8 1.1 1.5 1.5 2.2.9 1.4 1.7 2.6 2.2 3.4.5.8.8 1.3.8 1.3s-.4-.4-1-1.1c-.7-.7-1.6-1.8-2.7-3-2.2-2.5-5.1-5.8-8.1-9.1s-5.9-6.6-8.1-9.1c-1.1-1.2-2-2.3-2.7-3-.8-.7-1.1-1.2-1.1-1.2z" fill-opacity=".44"/><path id="Fill-183" class="st16" d="M-40.1 351.3s0 .2.1.6c.1.4.1 1 .2 1.7.2 1.4.5 3.5.9 6 .2 1.2.4 2.6.7 4 .3 1.4.5 2.9.8 4.4.3 1.5.6 3.1 1 4.7s.7 3.2 1.1 4.9l1.2 4.8c.2.8.4 1.6.7 2.4.1.4.2.8.4 1.2.1.4.3.8.4 1.2.1.2.2.4.3.5l.3.6c.2.3.4.7.7 1 .5.6 1 1.2 1.4 1.8 1 1.1 2 2.1 2.9 3 1.9 1.8 3.5 3.1 4.7 4 .6.5 1.1.8 1.4 1.1.3.2.5.4.5.4s-.6-.6-1.6-1.7c-.5-.5-1.1-1.2-1.9-1.9-.7-.7-1.5-1.6-2.4-2.5-.8-.9-1.7-2-2.6-3.1-.4-.6-.9-1.1-1.3-1.8l-.6-.9c-.1-.2-.2-.3-.2-.5-.1-.2-.2-.4-.2-.5-.1-.3-.2-.7-.3-1-.1-.4-.2-.7-.3-1.1-.2-.8-.4-1.6-.6-2.3-.4-1.6-.8-3.2-1.1-4.8-.8-3.2-1.5-6.5-2.2-9.5-.3-1.5-.7-3-1-4.4-.3-1.4-.7-2.7-1-3.9-.6-2.4-1.1-4.4-1.5-5.8-.2-.7-.4-1.3-.5-1.6-.3-.8-.4-1-.4-1z"/><path id="Fill-185" class="st16" d="M21.4 338.2v.7c0 .5-.1 1.1-.1 2v1.4c0 .5 0 1.1.1 1.7 0 .6.1 1.2.1 1.9l.3 2.1c.1.7.3 1.5.4 2.3l.6 2.4c.1.4.3.8.4 1.3.1.2.1.4.2.6.1.2.2.4.2.6.2.4.3.9.5 1.3s.4.8.6 1.3c.9 1.7 1.9 3.4 3.3 4.9 1.3 1.5 2.9 3 4.6 4.2.4.3.9.6 1.3.8.2.1.4.3.7.4l.7.4.7.4.7.3c.5.2.9.5 1.4.7 1.9.9 3.8 1.5 5.6 2.1.9.3 1.9.5 2.8.8l2.7.6c.9.2 1.7.3 2.6.4l2.4.3c.8.1 1.5.1 2.2.2.7 0 1.4.1 2 .1h3.3c.9 0 1.6-.1 2.1-.1h0c-.5 0-1.2-.1-2.1-.1-.4 0-.9-.1-1.5-.1-.5-.1-1.1-.1-1.7-.2-1.2-.1-2.6-.3-4.1-.5-1.5-.3-3.1-.5-4.8-.9-1.7-.4-3.5-.9-5.3-1.5-1.8-.6-3.6-1.3-5.4-2.2-.5-.2-.9-.4-1.3-.6l-.7-.3-.7-.4-.7-.4c-.2-.1-.4-.3-.6-.4-.4-.3-.8-.5-1.2-.8-1.6-1.1-3.1-2.4-4.3-3.8-1.3-1.4-2.3-3-3.2-4.6l-.6-1.2c-.2-.4-.4-.8-.5-1.2l-.3-.6c-.1-.2-.2-.4-.2-.6-.2-.4-.3-.8-.4-1.2-.3-.8-.5-1.6-.7-2.3-.2-.8-.4-1.5-.6-2.2-.1-.7-.3-1.4-.4-2.1-.1-.7-.2-1.3-.3-1.9-.1-.6-.1-1.1-.2-1.7-.1-.5-.1-1-.2-1.4-.3-1.9-.4-2.9-.4-2.9z"/><path id="Fill-187" class="st16" d="M-79.6 342.2s-.1.1-.3.4c-.2.2-.5.6-.9 1.1-.8.9-1.9 2.3-3.2 3.9-1.3 1.6-2.9 3.5-4.5 5.5-.4.5-.8 1-1.3 1.5-.4.5-.9 1-1.3 1.5-.6.7-4.9 1.9-12.8 3.6 6.3.8 10.2.7 11.8-.4.9-1.1 4-4.3 4.8-5.3.8-1 1.5-2.1 2.2-3 .7-1 1.3-1.9 1.9-2.8.6-.9 1.1-1.7 1.6-2.4s.8-1.3 1.2-1.9c.3-.5.6-.9.7-1.2 0-.4.1-.5.1-.5z"/><path id="Fill-189" class="st16" d="M58.9 351.3s.3 3.7.8 10.1c.5 6.4 1.3 15.6 2.2 26.6.2 2.8.3 5.6.5 8.6.1 3 .2 6 .3 9.2.1 6.3.1 13-.2 19.8-.1 1.7-.1 3.5-.2 5.2-.1 1.7-.2 3.5-.3 5.3-.1 1.8-.2 3.5-.4 5.3-.2 1.8-.3 3.6-.5 5.4-.2 1.8-.4 3.6-.5 5.4l-.6 5.4c-.5 3.6-1 7.3-1.5 10.9-.1.9-.2 1.8-.3 2.8 0 .5-.1.9-.1 1.4v1.4c.1 1.8.2 3.6.2 5.5.1 3.6 0 7.3-.1 10.9-.1 3.6-.2 7.2 0 10.8.2 3.6.4 7.1.8 10.5.6 6.9 1.5 13.5 2.4 19.8.1.8.2 1.6.4 2.3.1.8.2 1.5.4 2.3.3 1.5.6 3 1 4.5.7 2.9 1.5 5.7 2.3 8.3.8 2.6 1.6 5.2 2.2 7.6.6 2.4.8 4.8 1 7 .3 4.5.4 8.4.5 11.6.1 3.2.1 5.7.2 7.5 0 1.7.1 2.6.1 2.6v-2.6c0-1.7.1-4.3 0-7.5 0-3.2 0-7.1-.2-11.6-.1-2.2-.2-4.7-.8-7.1-.6-2.5-1.4-5-2.1-7.7-.8-2.7-1.5-5.4-2.2-8.3-.3-1.4-.6-2.9-.9-4.4-.1-.7-.2-1.5-.4-2.3-.1-.8-.2-1.5-.3-2.3-.8-6.3-1.6-12.9-2.2-19.7-.3-3.4-.5-6.9-.7-10.4-.1-3.5 0-7.1.1-10.7.1-3.6.2-7.3.1-11 0-1.8-.1-3.7-.2-5.5v-1.3c0-.4.1-.9.1-1.3l.3-2.7c.5-3.6 1-7.3 1.4-10.9.2-1.8.4-3.6.6-5.5.2-1.8.4-3.6.5-5.4.7-7.2 1-14.4 1.2-21.3.2-6.9.1-13.6-.1-19.9-.1-3.2-.3-6.2-.4-9.2-.2-3-.4-5.8-.6-8.6-.5-5.5-1.1-10.5-1.6-15s-.9-8.3-1.2-11.5c-.6-6.7-1-10.3-1-10.3z"/><linearGradient id="Path-369_1_" gradientUnits="userSpaceOnUse" x1="-293.312" y1="764.357" x2="-300.775" y2="762.67" gradientTransform="matrix(-85.8199 -5.1504 2.9969 -147.488 -28034.443 111407.352)"><stop offset="0" stop-color="#fff"/><stop offset=".695" stop-color="#fff" stop-opacity=".191"/><stop offset="1" stop-color="#fff" stop-opacity="0"/></linearGradient><path id="Path-369" d="M65.9 356c-.4.4-2.8-6.2-6.4-5.3C46 354 15.7 367.3 11.2 369c-20.9 8-32.4 9.8-30.1 10.2 1.8.3 17.4-.6 30.1-4.1 17.5-4.8 33.7-12.6 38.6-12.6 8.5 0 7.2 18 3 23.2-2.5 3.1-33.9 1.2-49.6 10.6-10.6 6.3-1 24.6 0 36.3.8 9.8 14 58.8 25.4 64.8 7.4 3.9 18.9-6.8 34.4-32.2-.5-4.9-.5-9.6 0-14.3.7-6.9 2.9-7.2 3-15.1 0-7.9 1.6-81.6-.1-79.8z" fill="url(#Path-369_1_)"/><path id="Path-522" class="st18" d="M-21.6 1.4c.6 19.9 1.6 31.2 2.9 33.8 1.2 2.5-1.9 21.4-11.8 34.2C-34.6 74.7-43.6 80-46.8 82c-2 1.3-6.2 4-7.3 7.3-.3.8-.1 2.2.4 4.1l-14.6-6.3c-1.2-3.1-2.6-5.8-4.2-8-2.4-3.3-5.7-2.5-5.7-4.5 0-2.4 1.2-14.3 2.4-18.7 1.9-7-3.3-7.8-3.1-12.5.2-4.2-1.2-11.2-4.2-20.9l61.5-21.1z"/><path id="Path-534" class="st18" d="M39.7 313.6c-2.5.6-4.2 1.3-5 2-8.3 8-12.7 15.4-15.4 18.7-4.8 5.9-6 11.9-7.7 14.3-2.7 3.6-6.5 5.9-6.5 6.9 0 3.3 2.6 3.4 5 3.3 3.6-.3 9.8-5.6 18.5-15.9l-2.8 11.4C27.6 359.1 31 363 36 366c5 3 10.7 5 17.1 5.8 5.8-14 9-21.9 9.8-23.6.8-1.8 2.6-8 5.4-18.7-5.2-1.5-9.2-3-11.9-4.5-3-1.4-8.5-5.2-16.7-11.4z"/><path id="Path-535" class="st18" d="M-95.6 313.6c-10.5.9-17.8 2.4-22 4.5-1.4.7-2.6 1.7-3.6 2.9l21.3 37.1c3.1.1 5.1-.1 6.2-.8 1-.7 3.5-3.4 7.3-8.2 5.1 7 8.5 10.9 10 11.8 2.3 1.3 9.6 3.3 5.4-7.7-2.8-7.3-6-13.7-9.6-19.2-2.5-5.4-4.2-8.7-5-9.8-.7-1.1-4.1-4.6-10-10.6z"/><path id="Fill-27" class="st19" d="M-97.8 303.5c-.6-3.1-1.4-6.8-2.2-11.1-.4-2.2-.9-4.4-1.3-6.9-.2-1.3-1.7-14.7-4.4-24.5-2.4-8.7-6.1-13.8-6.5-17.1-.5-3.5-.9-7.1-1.2-10.6-.3-3.6-.6-7.2-.7-10.8-.3-7.2-.4-14.4-.3-21.5.1-7.1.3-14 .6-20.8.1-3.4.3-6.7.4-9.9.1-3.2.2-6.4.3-9.5v-2.3-2.3c0-.7-.1 5.2-.1 4.4-.1-.7-.1-1.5-.2-2.2-.2-2.9-.6-5.7-1-8.3-.8-5.3-1.7-10.2-2.6-14.5-.9-4.3-1.7-8-2.5-11.1-.7-3.1-1.3-5.5-1.7-7.1-.4-1.6-.6-2.5-.6-2.5s.2.9.7 2.5c.5 1.6 1.1 4 1.9 7.1.8 3 1.7 6.8 2.7 11 1 4.3 2 9.1 2.9 14.5.4 2.7.8 5.5 1.1 8.4.1.7.1 1.5.2 2.2.1.7.1-5.2.1-4.4 0 .8 0 1.5.1 2.3v2.3c0 6.2-.2 12.7-.4 19.4-.2 6.7-.4 13.7-.4 20.7-.1 7.1 0 14.2.3 21.4.1 3.6.4 7.1.7 10.7.3 3.5.7 7.1 1.2 10.6.6 4.9 3 7.3 5.4 14 1 2.8 3.2 11.8 3.5 13.3 3.7 21.3 6.1 40.9 6.1 40.9-.6-1.4-1.3-4.2-2.1-8.3z"/><path id="Fill-31" class="st19" d="M66.7 79.9c-1.4 3.1-2.8 6.1-4.2 9.2-1.4 3.1-2.7 6.1-4.1 9.2l-3.9 9.3c-1.3 3.1-2.5 6.2-3.5 9.4-.3.8-.5 1.6-.7 2.4-.1.4-.6 5.5 0 10s2.2 8.4 2.2 10.1c0 1.7.1 3.4.1 5.1v.8l.1 1.7c0 .4.1.8.1 1.2l.2 1.2c.5 3.3 1.4 6.5 2.4 9.7.5 1.6 1 3.2 1.6 4.8l.9 2.4.9 2.3c.6 1.6 1.2 3.1 1.9 4.7.6 1.6 1.3 3.1 2 4.6.7 1.5 1.4 3.1 2.1 4.6l1 2.3 1.1 2.3c1.4 3-1.2 6.1.3 9.1l4.5 9c1.5 3 3.1 6 4.6 9l.1.2c-2.4 15.7-5.2 28.2-9.9 43-2.8 8.8-8.4 24.9-16.7 48.4l3-7.5c1-2.5 2-5 2.9-7.5.3-.7 5.8-22.3 8.1-30.1 5.6-19.1 11-42.3 11-46.1l.1.4c-1.6-3-3.1-6-4.6-9-.8-1.5-1.5-3-2.3-4.5l-2.2-4.5c-1.5-3 1.1-6.1-.3-9.1l-1.1-2.3-1-2.3c-.7-1.5-1.4-3.1-2-4.6-.7-1.6-1.3-3.1-2-4.7-.6-1.6-1.3-3.1-1.9-4.7l-.9-2.4-.9-2.4c-.6-1.6-1.1-3.2-1.6-4.8-1-3.2-1.9-6.5-2.4-9.9l-.2-1.3c0-.4-.1-.9-.1-1.3l-.1-1.3v-6.3c0-2.1-1.6-6.1-2.1-11.3-.3-3.1 0-7.7.3-9 .3-.8.5-1.6.8-2.4 1.1-3.2 2.4-6.3 3.7-9.4 1.3-3.1 2.7-6.2 4.1-9.2 1.4-3.1 2.8-6.1 4.3-9.2 1.4-3 2.9-6.1 4.4-9.1 1.5-3 3-6 4.5-9.1l-4.6 8.9z"/><path id="Fill-29" class="st19" d="M-35.5 100.1s2.3-3.3 5.9-8.1c.9-1.2 1.8-2.6 2.8-4 1-1.4 2-2.9 3-4.5s2.1-3.2 3.1-4.9c1-1.7 2-3.4 2.9-5.2.5-.9.9-1.8 1.3-2.7.2-.5.4-.9.6-1.4.2-.5.4-.9.6-1.4.7-1.8 1.4-3.7 2-5.4.6-1.8 1.1-3.6 1.5-5.2.4-1.7.8-3.3 1.2-4.8.3-1.5.6-2.9.9-4.1.2-1.2.4-2.3.6-3.2.3-1.8.5-2.8.5-2.8v.7c0 .5-.1 1.2-.2 2.1 0 .4-.1.9-.1 1.5 0 .7-.1 1.3-.1 1.9-.1 1.2-.3 2.6-.6 4.2-.1.8-.3 1.5-.4 2.4-.2.8-.3 1.7-.5 2.5-.4 1.7-.8 3.5-1.4 5.4-.6 1.8-1.2 3.7-1.9 5.6-.2.5-.4.9-.6 1.4-.2.5-.4.9-.6 1.4-.4.9-.9 1.9-1.4 2.8-1 1.8-2 3.6-3 5.3-1.1 1.7-2.2 3.3-3.2 4.9-1.1 1.5-2.2 3-3.2 4.4-1 1.4-2.1 2.6-3 3.8-.9 1.2-1.8 2.2-2.6 3.1-.8.9-1.5 1.7-2.1 2.4-.6.7-1.1 1.2-1.4 1.5-.4.2-.6.4-.6.4"/><path id="Fill-34" class="st19" d="M71.6 195.4c.2-.6.5-1.4.8-2.4.7-2.1 1.8-5 3.2-8.5.7-1.8 1.4-3.7 2.2-5.7.8-2 1.7-4.1 2.6-6.3l1.5-3.3c.5-1.1 1-2.2 1.7-3.3.6-1.1 1.3-2.2 2.1-3.2s1.6-1.9 2.5-2.8c.5-.4.9-.9 1.4-1.3.5-.4 1-.8 1.5-1.1l.2-.1s.1 0 .1-.1l.2-.1h.1.4c.3 0 .4.1.6.2.3.2.4.4.5.6.1.2.2.4.3.5.3.7.4 1.4.5 2 .1 1.3.1 2.6-.1 3.9l-.3 1.8-.1.5-.1.5c0 .1-.1.3-.1.4-.1.2-.1.3-.2.5-.2.6-.5 1.1-.8 1.6-.3.5-.5 1-.8 1.5-.5 1-1 1.9-1.5 2.9-.9 1.9-1.5 3.8-2.1 5.6-1.1 3.6-2 6.6-2.6 8.7-.6 2.1-1 3.3-1 3.3s.1-.3.2-.9c.1-.6.3-1.4.5-2.5s.5-2.4.9-3.9c.3-1.5.7-3.2 1.2-5 .5-1.8 1-3.8 1.9-5.9.4-1 .9-2 1.4-3 .5-1 1.1-2 1.5-3 .1-.1.1-.2.1-.3 0-.1.1-.3.1-.4l.1-.4.1-.4c.1-.6.2-1.2.3-1.7.1-1.2.2-2.4 0-3.5-.1-.6-.2-1.1-.4-1.6 0-.1-.1-.2-.1-.3 0-.1-.1-.1-.1-.1h.2s-.1 0-.1.1l-.2.1c-.5.3-.9.7-1.4 1-.5.4-.9.8-1.3 1.2-.9.8-1.7 1.7-2.4 2.6-.7.9-1.4 1.9-2 3-1.2 2.1-2.2 4.3-3.2 6.4-1 2.1-1.9 4.2-2.8 6.1-.9 2-1.7 3.8-2.5 5.5-1.5 3.4-2.8 6.3-3.7 8.3-.9 2-1.4 3.1-1.4 3.1s.2-.3.4-.8z"/><path id="Fill-36" class="st19" d="M70.1 214.9c.7-.3 1.8-.8 3.2-1.4 1.4-.6 3-1.4 4.8-2.5.9-.5 1.8-1.1 2.8-1.8.9-.7 1.9-1.4 2.8-2.3.9-.9 1.8-1.9 2.5-3.1.7-1.2 1.4-2.5 2.1-3.9 1.3-2.7 2.4-5.7 3.4-8.9s1.8-6.5 2.5-10c.4-1.7.7-3.5 1.1-5.2l.6-2.7c.1-.5.2-.9.5-1.4.1-.1.2-.3.3-.5.1 0 .1-.1.2-.1s.2-.1.2-.1c.1 0 .2-.1.3-.1h.4c.1 0 .2.1.2.1l.1.1.2.2c.2.2.2.3.3.4.3.5.4 1 .5 1.4.1.5.2.9.3 1.4.2.9.3 1.8.3 2.8.1 1.8.1 3.6 0 5.4-.2 3.6-.9 7.1-1.9 10.3-1 3.2-2.1 6.3-3.6 9.1-.4.7-.8 1.3-1.2 1.9-.2.3-.4.6-.7.9-.2.3-.5.6-.7.8-.9 1.1-1.9 2.1-2.9 3-.9.9-1.9 1.8-2.7 2.6-.4.4-.8.8-1.1 1.3-.1.1-.2.2-.2.3-.1.1-.1.2-.2.3-.1.1-.1.2-.1.3v.4c0 .5.1.9.4 1.3.3.4.6.7 1 .9.7.5 1.5.7 2.2 1 1.4.4 2.6.7 3.4.8.8.1 1.2.2 1.2.2s-.4 0-1.2-.1c-.8-.1-2-.2-3.4-.6-.7-.2-1.5-.4-2.4-.9-.4-.2-.8-.5-1.2-.9-.2-.2-.3-.5-.4-.7 0-.1-.1-.3-.1-.4V213.9v-.2c.1-.2.1-.4.2-.5.1-.1.1-.3.2-.4.1-.1.2-.3.2-.4.3-.5.7-.9 1.1-1.4.8-.9 1.7-1.8 2.6-2.7.9-.9 1.8-1.9 2.7-3 .2-.3.4-.5.6-.8l.6-.9c.4-.6.8-1.2 1.1-1.9 1.4-2.6 2.4-5.7 3.3-8.9 1-3.2 1.5-6.5 1.7-10 .1-1.7.1-3.5 0-5.2-.1-.9-.2-1.7-.3-2.6l-.3-1.2c0-.1-.1-.3-.2-.6 0 .1-.1.3-.2.5-.2.8-.4 1.7-.6 2.6-.4 1.7-.7 3.5-1.1 5.2-.8 3.5-1.7 6.8-2.7 10.1-1 3.2-2.3 6.2-3.7 9-.7 1.4-1.4 2.7-2.2 3.9-.8 1.3-1.8 2.3-2.8 3.2-2 1.8-4.1 3-5.9 4-1.9 1-3.5 1.7-4.9 2.3-.7.3-1.3.5-1.9.7-.4 0-.9.2-1.3.2-.7.3-1.1.5-1.1.5s.3-.2 1.1-.5z"/><path id="Fill-38" class="st19" d="M51.9 105.8c-.4.7-.8 1.5-1.4 2.4-.3.5-.5 1-.8 1.6l-.9 1.8c-1.3 2.5-2.8 5.6-4.2 9.3-.2.5-.4.9-.5 1.4-.1.2-.2.5-.3.7-.1.2-.2.5-.3.7-.2.5-.3 1-.5 1.5s-.3 1-.5 1.6c-.3 1-.6 2.1-.9 3.3-.1.6-.2 1.1-.3 1.7l-.3 1.8c-.3 2.4.1 6.9-.3 8.3-.4 1.4-1.1 2.8-2 4-.9 1.2-2 2.3-3.1 3.2-.6.5-1.2.9-1.7 1.4-.6.5-1.1.9-1.5 1.4-.2.2-.4.5-.5.8-.1.3-.1.3-.1.4v.6c.1.3.2.4.2.5l.6.6c.5.4 1.2.7 1.9.9.7.3 1.4.5 2.1.7.7.2 1.5.4 2.3.8l1.2.6c.2.1.4.3.6.5.2.2.3.5.4.8 0 .1 0 .2.1.5 0 .1 0 .4-.1 1 0 .4-.1.8-.1 1.2-.1.4-.1.8-.2 1.2l-.3 1.2c-.4 1.6-1.1 3.1-1.7 4.5-.6 1.4-1.1 2.9-1.3 4.4 0 .4-.1.7-.1 1.1 0 .4-.1.8 0 1.1l.1 1.2.2 1.2c0 .4.1.8.2 1.2l.2 1.2.5 2.4c.3 1.6.7 3.2 1 4.8 1.3 6.3 2.6 12.7 3.8 19 1.2 6.3 2.4 12.4 3.6 18.4 1.2 6 2.2 11.7 3.3 17.2 1 5.5 2 10.6 2.9 15.4.9 4.8-5.1-20.4-7.6-32.3-1.2-5.9-2.4-12.1-3.7-18.3-1.3-6.2-2.6-12.6-3.9-18.9-.3-1.6-.7-3.2-1-4.7l-.5-2.4-.2-1.2c-.1-.4-.2-.8-.2-1.2l-.2-1.2-.1-1.3v-1.3c0-.4.1-.8.1-1.3.2-1.7.8-3.3 1.4-4.8.6-1.5 1.2-2.9 1.7-4.4l.3-1.1.2-1.1c.1-.4.1-.8.2-1.1l.1-.6c0-.4-.2-.6-.4-.8-.2-.2-.6-.3-.9-.5-.7-.3-1.4-.5-2.1-.7-.7-.2-1.5-.5-2.2-.7-.7-.3-1.5-.6-2.2-1.1-.3-.3-.7-.6-1-1-.1-.2-.2-.4-.3-.7 0-.1-.1-.2-.1-.4 0-.1-.1-.3-.1-.4v-.5c0-.3 0-.4.1-.5 0-.1.1-.2.1-.3.2-.5.4-.8.7-1.2.6-.6 1.2-1.1 1.8-1.6.6-.5 1.2-.9 1.7-1.3 1.1-.9 2.2-1.8 3-2.9.8-1.1 1.4-2.3 1.8-3.5.4-1.3.2-5.7.6-8.1l.3-1.8c.1-.6.3-1.2.4-1.7l.9-3.3c.2-.5.3-1.1.5-1.6l.6-1.5c.1-.2.2-.5.3-.7.1-.2.2-.5.3-.7.2-.5.4-.9.6-1.4 1.6-3.6 3.2-6.7 4.5-9.2.3-.6.7-1.2 1-1.8.3-.5.6-1.1.9-1.5.3-1.5.8-2.4 1.3-2.9.7-1.3 1.2-2 1.2-2s-.5.6-1.2 2z"/><linearGradient id="Path-517_1_" gradientUnits="userSpaceOnUse" x1="-292.498" y1="762.603" x2="-287.075" y2="764.339" gradientTransform="matrix(25.9532 -3.9587 -.9062 -113.3632 8183.276 85441.523)"><stop offset="0" stop-color="#fff" stop-opacity="0"/><stop offset="1" stop-color="#fff"/></linearGradient><path id="Path-517" d="M-88.2 78.7c1.9 3.8 6.2 18.1 6.2 26.8 0 4.5-.3 21.5-2.9 53.7-.8 9.5-1.3 31.5-6.4 32.6-2.3.5-2.5-7.3-4.6-16.1-1-4.4-6.1-3.1-4.6-14.2.5-3.5 7.8 3.2 9.2 0 .6-1.4-1.8-4.4-1.9-8.8-.1-3 2.3-4.6 1.9-11.1-.3-6.5-1.5-19.2-4.6-14.2-3.1 5-10.8 28.2-11.9 29.1-1.2.9 4.6-14.9 5.4-24.1.8-9.2 7.3-8 10-18.8 2.6-10.7 2.2-38.7 4.2-34.9z" opacity=".455" fill="url(#Path-517_1_)" enable-background="new"/><linearGradient id="Path-520_1_" gradientUnits="userSpaceOnUse" x1="-289.434" y1="762.609" x2="-282.622" y2="762.924" gradientTransform="matrix(15.7725 -2.5005 -.5507 -71.6051 4864.084 53992.469)"><stop offset="0" stop-color="#fff" stop-opacity="0"/><stop offset="1" stop-color="#fff"/></linearGradient><path id="Path-520" d="M-112.1 141.6c-1.2-3.3.8-33.6 1.9-39.9 1.2-6.3-.6 18.2 4.6 4.2 1-2.7 2.6-6.7 3.1-11.1.6-5.9 1.1-12.2 2.3-18.4 1-5 3.5-10 3.5-1.9 0 8-1.9 25.7-3.5 27.2-1 1-3.5 5.4-7.3 13 .3 6.7.3 11.3 0 13.8-1.4 10.4-4 14.7-4.6 13.1z" opacity=".455" fill="url(#Path-520_1_)" enable-background="new"/><linearGradient id="Path-524_1_" gradientUnits="userSpaceOnUse" x1="-290.152" y1="763.134" x2="-288.555" y2="760.42" gradientTransform="matrix(18.9604 -2.4685 -.6621 -70.6907 5889.623 53309.559)"><stop offset="0" stop-color="#fff" stop-opacity="0"/><stop offset="1" stop-color="#fff"/></linearGradient><path id="Path-524" d="M-114.4 146.6c-1-5.8-3-14.7-5.8-26.5-4.2-17.8-4.9-28.5-4.6-33.6.3-5.1 1.5 8.1 5.2 5 3.7-3.1 4-13.7 7.1-15.3 3.1-1.7 6.2 6.6 6.5 8 .4 1.5-3-4.2-4.6-.8s.7 4.4-1.9 14.9-5.7 13.1-6.2 18 2.2 2 3.3 10c.8 5.3 1.1 12.1 1 20.3z" opacity=".447" fill="url(#Path-524_1_)" enable-background="new"/><linearGradient id="Path-525_1_" gradientUnits="userSpaceOnUse" x1="-296.321" y1="763.223" x2="-294.723" y2="760.509" gradientTransform="matrix(68.0153 -4.1398 -2.3751 -118.5525 21975.752 89340.469)"><stop offset="0" stop-color="#fff" stop-opacity="0"/><stop offset="1" stop-color="#fff"/></linearGradient><path id="Path-525" d="M8.8 153.9c5-1.2 13.8-3 19.6-11 2.8-3.9 1.9-15.5 3.9-21.2 10-29.3 24.4-42.4 25-47.7.3-2.5-11.9 9.9-19.3 11.7-3.8.9-2.1-8.4-5.8-8.4-11.1.1-18.1-6.5-18.9-6.9C8.3 67.9-5.5 99.6-9 116c-2.4 10.9-2.4 29.8 0 56.7-.6 10.1-.6 15.5 0 16.1.8.9 1.8-7.7 3.1-12.6 1.3-4.9 10-7.7 5-14.9s-5.4-24.2-3.1-45.2c2.3-21 8.5-31.7 10.4-30.3s-16.1 72.3 2.4 68.1z" opacity=".619" fill="url(#Path-525_1_)" enable-background="new"/><linearGradient id="Path-530_1_" gradientUnits="userSpaceOnUse" x1="-294.613" y1="763.025" x2="-292.83" y2="760.429" gradientTransform="matrix(38.5882 -9.2154 -16.8755 -126.1443 24103.06 93736.531)"><stop offset="0" stop-color="#fff" stop-opacity="0"/><stop offset="1" stop-color="#fff"/></linearGradient><path id="Path-530" d="M-101.4 309c-.2 0-1.8.1-2.6.5-.7.3-.7 1.1-1.9.4-1-.6-4.5-7.4-5.7-9.5-.5-.8-3.2-1.2-4.1-2.7-1.4-2.5-3.4-6.2-3.4-9.3 0-2.3 2.1-4 1.1-6.3-.5-1.2-5 1.2-5.6-.5-1.9-5.9-.6-8.7 3.9-8.1-2.1-.4-4-1.7-5.5-4.1-.6-.9 3.6-3.8 2.9-5.1-.3-.7-4 1-5.1 0-.7-.6 1.8-2 1-4.4-.2-.7-2-.1-3.9-2.4s5.3-3-.9-3.3c-.5 0-2.4-3.5-.6-4.9 1.4-1.1 6.5.2 6.4-1.3-.1-1.3-7.5-3.6-7.5-4.2.2-3.8 5-5.5 3.9-6.2-1.1-.7-9.8 3.7-10.6 2.1-.5-1.1 2-3.9 7.6-8.2-8.5.1-12.7-.4-12.7-1.7 0-.8 3.2-2.1 6.6-2.6 4.8-.7 10.3-.8 10.4-3 .1-3.8-16.4-5.1-16.4-8 0-2.9 15.6-4.7 12.3-5.6-3.3-1-8.3-3.5-10.5-5.6-10-9.6-14-16.5-13.5-16.9 1-.8 8.4 8.9 17 14.9s11.9 2.6 12.6 6.2-11.3 7.4-9.8 8.3c1.6 1 10.7 3.6 11.2 6.1s-10.9 3.3-11 5c-.1 1.8 5.4.4 5.6 2.4.1 2.1-3.8 4.5-3.3 5.5.6.9 5.4-3.3 10.7-2.4 5.3.9-6 6.1-5.2 8.7.8 2.6 3.4-.7 5.4 1.5 2 2.2 3.9 4 4.4 6.5.5 2.5-3.2 2.2-2.5 3.1.7.9 2.9-2.5 6.3 2 1.1 1.5-2.6 3.1-1.7 5.5.9 2.3 7.4 6.7 7.1 8.2-.3 1.6-7.9-3.5-8.7-.5-.8 3 5 1.7 5.7 5.3.7 3.6-4.4 5.5-3.2 8s8.4 3.7 9.7 5.8c1.4 2.1-5-1.9-5.3 1-.3 3 2.2 4.1 4.4 8.8 2.3 4.7 6.1 10.7 5 11z" opacity=".455" fill="url(#Path-530_1_)" enable-background="new"/><linearGradient id="Path-531_1_" gradientUnits="userSpaceOnUse" x1="-297.227" y1="762.987" x2="-296.103" y2="762.531" gradientTransform="matrix(90.9422 -8.1226 -3.1756 -232.6067 29452.8 175233.266)"><stop offset="0" stop-opacity="0"/><stop offset="1"/></linearGradient><path id="Path-531" d="M47.1 94.8c3 6.5-6.3 18.9-5.3 33.9.2 2.6 1.2 5.3 1.7 8.2.8 4.9.2 8.5.8 12.5 1.8 11.8 4.4 19.5 9.6 17.8 6.9-2.3 21.1-14.5 22.7-7.7.6 2.4-2.5 6.9-4.2 11.1-1.8 4.4 13-15.2 11.9-11.1-.8 3-17.7 29.8-17.3 31.8 1.4 7.5 6.2 1.4 8.1-3.2 1.4-3.2 6.9-16.4 11.6-23.2 2-2.9 4.9-4.8 5.4-4.1.8 1.2.8 3.5-.4 6.4-1.2 2.9-3.7 6.4-5 11.5-2.7 10.3 2.4 9.9-5.8 18.8-8.2 8.8-4.2 16.5 4.6 16.5 1.7 0 6.5.8 6.5 3.4 0 1.4-9.9 3-11.2 6.5-1.7 4.7-5.8 14.2-7.3 23-.8 4.9 1.2 9.4 0 13-3.5 10.1-8.9 9.6-9.4 13-.5 3.4 7.7.9 6.7 4.2-1 3.3-9.5 1.9-10 6.9s7.2 11.9 7.7 14.2-1.5 3.8-6.2 3.8c-4.6 0-2.8-3.1-5 0-.9 1.3.7 4.6 0 7.3-.4 1.7 10.7 2.3 5 8-2.5 2.5-7.5-2.7-12.3-1.5-2.6.6-4.2-3.8-11.2-5.5-5.5-1.4-16.8 12.8-18.1 10.1-6.5-13.4-3.1-12.1-7.3-39.9-4.2-27.8-6-48.9-7.3-56.7s-5.7 2.7-4.2-13 4.4-35 11.6-29.5c6.5 5 .7 11.5 3.5 21.5 2.2 7.8 3.3 5.5 8.5 24.5s18.1 23.9 15.4 10.9c-2.7-13-5-24.3-8.1-42.4-1.1-6.4-4.6-17.5-3.5-22.8 1.6-7.5 2.5-8.1 3.5-11 1-3.1-1.8-3.7-4.2-4.5-2.3-.8-4.2-1.9-4.2-4.5 0-5.3 5.7-3.9 6.9-8.8 1.2-5 1.5-9.8 0-13.4-1.5-3.6-5.8 15.9-5.8 0 0-9.6 0-23.2 1.2-32.2.8-5.9 2.6-9.3 3.1-10.3 1.1-2.6-3.6 26.8 0 29.9s13.8-31.1 17.3-23.4z" opacity=".522" fill="url(#Path-531_1_)" enable-background="new"/><linearGradient id="Path-532_1_" gradientUnits="userSpaceOnUse" x1="-292.88" y1="763.214" x2="-292.88" y2="762.214" gradientTransform="matrix(28.5595 -5.3024 -.9972 -151.8442 9025.473 114497.117)"><stop offset="0" stop-opacity="0"/><stop offset="1"/></linearGradient><path id="Path-532" d="M-95.8 312.4c.7-.9 1.1-1.6 1.2-2 6.1-22 8.2-44 7.5-66-.2-5.5-2.4-12.1-1.5-24.5.8-10.7 3.2-21 2.7-24.5-.8-5.5-6.5 18.5-7.4 14.2-2-9.3-4.2-16.4-5.7-22.8-3-13.4-6-14.1-8.1-17.9-2.1-3.8-2.3-12.7-4.2-6.1-2 6.6-2.3 20.9-2.7 29.3-.6 13.9-.4 25.5 0 32.2.5 8.2 1 13.8 2.7 20 1.5 5.7 5.7 14.4 7.7 24 1.8 8.8 4.1 23.7 7.4 42 0 .5.2 1.2.4 2.1z" opacity=".522" fill="url(#Path-532_1_)" enable-background="new"/><linearGradient id="Path-533_1_" gradientUnits="userSpaceOnUse" x1="-293.09" y1="763.222" x2="-293.09" y2="762.222" gradientTransform="matrix(29.6809 -5.2466 -1.0364 -150.2466 9364.367 113229.406)"><stop offset="0" stop-opacity="0"/><stop offset="1"/></linearGradient><path id="Path-533" d="M-127.9 106.2c0 16.3 9.4 32.4 10.8 50.5s6.2 78.7 6.2 89.2c0 .2-2.3-2.5-5-4.5-1-.7-3.5.1-3.9-.8-.3-.8 3.1-2.3 5-4.1.8-.7 1.3-2 1.2-2.4-.5-1.6-3.5-4.1-10.8-1.2-1 .4 3.1-1.6 2.3-4.9-.2-.8-2.8-1.3-3.1-2-.2-.5 10-.8 10-3.3 0-1-.7-2.7-2.7-4.1-2.5-1.8-6.9-4.3-6.5-4.5 2.3-1.2 10-4.1 9.2-6.9-1-3.7-5.1-4.3-8.1-6.5-4.3-3.1-7.7-7.2-8.5-8.2-3.9-5.1-9.4-15.7-8.9-26.1.3-6.2 1.7-12.9 2.1-18.9.9-13.8 1.8-26.4 2.5-34 2-20.9 8.2-23.6 8.2-7.3z" opacity=".522" fill="url(#Path-533_1_)" enable-background="new"/><linearGradient id="Path-537_1_" gradientUnits="userSpaceOnUse" x1="-297.632" y1="762.761" x2="-292.991" y2="763.119" gradientTransform="matrix(81.1251 -10.9057 -2.8328 -312.3042 26157.291 235520.578)"><stop offset="0" stop-opacity="0"/><stop offset="1"/></linearGradient><path id="Path-537" d="M-44.9 371.5c3.6-10 5.2 10.2 10.2 17.1 3.3 4.6 7.7 8.7 13 12.2.1 9.1.1 15.4 0 18.7-.1 2.6-.3 7.3-.4 9-.2 5 .1 8-.4 11.4-.4 2.8-2.8 5.1-3.3 7.7-1.8 10.6 1.1 15.4-.4 24.5-.6 3.5-.7 6.9-1.6 10.6-1 4 2 6.7.8 10.6-1.3 4.5-5.5 8.7-7.3 12.6-.9 1.8-.4 4-.4 5.3 0 2 5.2 5.2 5.3 7.7.1 2.5-1.9 7.4-1.6 11.4.1 1.8 3 3.1 3.3 5.7.2 2.1-.3 5.2 0 9 .2 2.2 2.6 3.7 2.9 7.3 1.6 20 8.6 123.9 8.6 128.8 0 .8-14.5-12.5-17.9-20.8-1.6-3.8 8.7.4 6.8-4.9-2.2-6.1-4.5-13-6.8-20.8-2.8-9.6-1.1-25.1-4.9-35-3.2-8.3-8.2-18.2-13.6-28.1-10.9-20.2-23.3-40.6-25.2-48.5-2.8-11.7 21.7 19.2 23.2 11.4 1.5-7.8-17.1-20-16.3-46.5.2-7.7 7.6-14 9.4-18.7 1.8-4.6 21.7-14.7 16.7-29.3-1.4-4-13.5-5.9-15.9-9.8-3.2-5.1 5-10.6 2.4-15.1-6.1-11-20.9-18.7-19.2-18.7 3-.1 14.5 3.2 18.4.8 3.4-2.1-39.4-23.5-38.3-26.5 1.4-3.8 26.1 5.7 34.7 7.7 11 2.7 16.8-3.9 17.8-6.8z" opacity=".74" fill="url(#Path-537_1_)" enable-background="new"/><linearGradient id="Path-538_1_" gradientUnits="userSpaceOnUse" x1="-295.987" y1="762.791" x2="-290.321" y2="762.791" gradientTransform="matrix(53.5019 -11.8758 -1.8681 -340.083 17277.945 256422.953)"><stop offset="0" stop-color="#fff" stop-opacity="0"/><stop offset="1" stop-color="#fff"/></linearGradient><path id="Path-538" d="M58.7 360.5c-3.3 0 5.5 6.9 6.1 8.6s1.2 11.8 1.2 16.7c0 4.9 0 64-1.2 68.1-.6 2.2-4.9 17.1-4.2 33.8.7 16.7-4.6 27-8 28.1-7.3 2.4-34-5.8-35.5-4.5s23.1 5.6 29 10.2c5.9 4.6 12 12.5 13.9 20 .7 2.6-29.7-8.2-29.8-2 0 5.6 24.5 9 19.2 59.9s3.3 72.9 1 81.9-16.6 10.3-17.7 11.4c-1.1 1.1 15.3 3.3 20 3.3 4.7 0 10.2-1.6 10.6-3.3.4-1.6 4.2-23.1 5.3-33 2.7-24.6 1.6-39.1 1.6-44 0-8.6-1.6-8.4-1.6-31s3.3-31.8 1.6-45.2c-1.6-13.4-6.1-19.3-6.5-26.1-.5-6.8-.8-42.4 1.2-48.9s4.1-7.7 4.1-13c0-3.5-.1-35.5-.4-95.8-4.4 3.1-7.7 4.8-9.9 4.8z" fill="url(#Path-538_1_)"/><g id="Path-539"><path id="path-19" class="st30" d="M-36.3 690.6c.3 10.6.4 18.2.4 22.8 0 6.9 10.6 1.5 12.2-3.7 1.1-3.5 1.1-10.4 0-20.8-2.4.6-4.3 1-5.7 1.2-1.4.3-3.7.4-6.9.5z"/><path class="st31" d="M-35.7 691.2c.3 10.3.4 17.7.4 22.2 0 2.6 1.8 3.3 4.7 2.1 2.9-1.1 5.7-3.7 6.4-6 1-3.3 1.1-9.9 0-19.8-2.1.5-3.8.9-5.1 1.1-1.3.2-3.4.3-6.4.4z"/></g><g id="Path-539_1_"><path id="path-20" class="st30" d="M27.3 696.3c-.5 5.7-.9 9.6-1.2 11.8-.5 3.2-1.6 6.3-1.6 7.7 0 4.5 5.3 6.1 5.3.8 0-3.5.8-9.9 2.4-19.2l-4.9-1.1z"/><path class="st31" d="M27.9 697.1c-.5 5.3-.9 9-1.2 11.1-.2 1.1-.4 2.2-.7 3.5 0 0-.5 2-.6 2.5-.2.8-.3 1.3-.3 1.7 0 1.8 1 3.2 2.2 3.5 1.1.2 1.9-.6 1.9-2.7 0-3.5.8-9.7 2.4-18.7l-3.7-.9z"/></g><linearGradient id="Path-540_1_" gradientUnits="userSpaceOnUse" x1="-293.117" y1="762.696" x2="-294.117" y2="762.812" gradientTransform="matrix(32.7708 -2.7871 -1.1443 -79.8132 10557.27 60180.3)"><stop offset="0" stop-color="#fff" stop-opacity="0"/><stop offset="1" stop-color="#fff" stop-opacity=".118"/></linearGradient><path id="Path-540" d="M64.3 78.1c-2.1-2.4-16.3 40.1-17.7 45.2-1.4 5.2 1.2 6.9 1.5 13 .4 6.2-.5 7.9 0 12.6.5 4.7 1.5 10.2 2.3 8.6.2-.5.8-5 5-11.4 4.7-7.3 23.7-28.9 23.5-32.2s-25 28.1-24.3 18.7c.9-9.3 11.8-52.1 9.7-54.5z" fill="url(#Path-540_1_)"/><linearGradient id="Path-545_1_" gradientUnits="userSpaceOnUse" x1="-293.313" y1="761.445" x2="-294.009" y2="764.607" gradientTransform="matrix(32.2162 -1.5787 -1.125 -45.209 10279.225 34059.836)"><stop offset="0" stop-color="#fcc9b5"/><stop offset="1" stop-color="#b5887d"/></linearGradient><path id="Path-545" d="M-22.4 12c-1.1 8.4-2.9 14.4-5.3 17.9-2.2 3.1-6.3 10.4-13.9 16.7-1.1.9-3.4 2.1-6.9 3.7 1.4 1 2 1.8 1.6 2.4-.8 1.6-5.6 4.4-4.1 4.5 1.2 0 7.2-4 9.8-4.5 5.2-1 8.3.7 12.6-3.7 4.3-4.3 7.2-7.6 8.6-9.8 1.1-1.9 1.2-3.8.4-5.7-.8-1.8-1.7-9-2.8-21.5z" fill="url(#Path-545_1_)"/><linearGradient id="Path-546_2_" gradientUnits="userSpaceOnUse" x1="-294.415" y1="764.253" x2="-293.782" y2="762.518" gradientTransform="matrix(35.3003 -1.187 -1.2327 -33.9933 11347.945 25919.104)"><stop offset="0" stop-color="#fff"/><stop offset="1" stop-color="#fff" stop-opacity="0"/></linearGradient><path id="Path-546" d="M39.6 316.1c-1.9-.5-5.4 2.4-10.6 9-7.7 9.8-7.5 8.9-10.6 13.9-3.1 4.9-3.3 7.3-4.9 10.6-1.6 3.3 6.5-9.4 8.6-11.8 2-2.4 5.7-4.8 11-7.7s-1.9 7.9-.4 7.7c4.7-.4 18.6-12.9 15.5-15.1-2.8-2-5.7-4.2-8.6-6.6z" fill="url(#Path-546_2_)"/><linearGradient id="Path-547_2_" gradientUnits="userSpaceOnUse" x1="-293.348" y1="763.434" x2="-293.348" y2="761.563" gradientTransform="matrix(31.2313 -1.1468 -1.0906 -32.8411 10040.894 25071.086)"><stop offset="0" stop-color="#b5887d" stop-opacity="0"/><stop offset="1" stop-color="#b5887d"/></linearGradient><path id="Path-547" d="M62 336c2.1 3.6-6.9 27.3-10.2 31.4-1.6 2-4.8.7-7.9-2.9-.8-1-4.1-.3-5.1-1.1-1.1-.8-2.2-3.4-3.1-4.1-1.9-1.5-4-1.4-4.3-2.1-1-1.6-.1-4.3 4.1-4.6 2-.2 5.3 4.2 8.5 1.8 9.8-7.4 15.9-21.9 18-18.4z" fill="url(#Path-547_2_)"/><linearGradient id="Path-546_3_" gradientUnits="userSpaceOnUse" x1="-302.536" y1="765.392" x2="-301.904" y2="763.657" gradientTransform="matrix(-41.3493 -8.4478 7.1156 -31.8707 -18019.1 22133.117)"><stop offset="0" stop-color="#fff"/><stop offset="1" stop-color="#fff" stop-opacity="0"/></linearGradient><path id="Path-546_1_" d="M-96.7 315.6c5.2 4.6 8.7 8.4 10.6 11.4 2.9 4.5 4.9 9.4 7.7 14.3 2.9 4.9 3.9 7.5 4.9 11 1 3.5-8.5-10.4-10.1-13.2-1.6-2.8-4.7-5.7-9.5-9.5s.5 8.1-.9 7.7c-4.6-1.2-19.2-17.6-15.8-19.2 3.1-1.4 7.5-2.2 13.1-2.5z" fill="url(#Path-546_3_)"/><path id="Fill-1" class="st37" d="M-98.7 367.4s.3.1.9.2c.6.1 1.4.3 2.5.5s2.4.5 3.8.9c1.5.3 3.2.7 5 1.2 1.8.5 3.8 1 5.9 1.5 2.1.6 4.3 1.2 6.5 1.9s4.6 1.4 6.9 2.2c2.3.8 4.7 1.7 7 2.6.6.2 1.2.5 1.7.7l.4.2H-57.8l.2.1c.3.1.6.2.8.4 1.2.6 2.2 1.4 3.2 2.2 1 .8 1.9 1.7 2.7 2.5l2.5 2.5c1.7 1.6 3.4 3 5.1 4.2.2.1.4.3.7.4.2.1.5.3.7.4.4.2.9.5 1.3.7.9.4 1.8.8 2.7 1.1 3.5 1.4 6.4 2.3 8.5 3l3.3 1.1s-.3-.1-.9-.2c-.6-.1-1.4-.3-2.5-.6s-2.4-.6-3.8-1c-1.5-.4-3.1-.9-4.9-1.5-.9-.3-1.8-.6-2.8-1-.5-.2-1-.4-1.4-.7-.3-.1-.5-.2-.7-.4-.2-.1-.5-.3-.7-.4-1.9-1.1-3.7-2.5-5.5-4.1-1.8-1.6-3.4-3.4-5.2-4.9-.9-.7-1.9-1.5-2.9-2l-.8-.4-.2-.1h-.2l-.4-.2c-.6-.2-1.1-.5-1.7-.7-2.3-.9-4.6-1.8-6.9-2.6-2.3-.8-4.6-1.6-6.8-2.3-2.2-.7-4.4-1.4-6.4-2.1-2-.6-4-1.2-5.8-1.8-3.6-1.1-6.6-2-8.6-2.7-2.3-.4-3.5-.8-3.5-.8"/><path id="Fill-3" class="st37" d="M-29.4 402s-.2 0-.7.1c-.4.1-1.1.2-1.9.3-.8.1-1.8.2-2.9.3-1.1.1-2.4.1-3.8.1s-2.9 0-4.5-.1-3.3-.2-5.1-.4c-1.7-.2-3.6-.4-5.4-.6-1.8-.3-3.7-.6-5.5-.9-1.8-.3-3.7-.7-5.5-1.1-1.8-.4-3.6-.8-5.3-1.2-1.7-.4-3.3-.9-4.9-1.4-1.5-.5-3-1-4.3-1.4-1.3-.5-2.5-1-3.6-1.4-1.1-.4-2-.9-2.7-1.2-.7-.4-1.3-.7-1.7-.9l-.6-.3s.2.1.6.2c.2.1.5.2.7.3.3.1.6.2 1 .4.8.3 1.7.6 2.8 1 1.1.4 2.3.7 3.6 1.1 1.3.4 2.8.8 4.3 1.2 1.5.4 3.2.8 4.9 1.1 1.7.4 3.5.7 5.3 1.1 1.8.4 3.6.7 5.5 1 1.8.3 3.7.6 5.5.9 1.8.3 3.6.5 5.3.8 1.7.2 3.4.4 5 .6 1.6.2 3.1.3 4.5.4 1.4.1 2.7.2 3.8.2h4.8c.6-.1.8-.2.8-.2"/><path id="Fill-5" class="st37" d="M-32.9 442.6c-.5-.1-1.1-.3-2-.6-1.7-.5-4.1-1.2-7-2.1-1.4-.5-3-1-4.6-1.5-1.6-.6-3.4-1.1-5.1-1.8-1.8-.6-3.6-1.3-5.4-2.1-.9-.4-1.8-.8-2.8-1.2-.9-.4-1.8-.8-2.8-1.4-.1-.1-.2-.2-.4-.3-.1-.1-.3-.2-.4-.4-.1-.1-.2-.2-.2-.5-.1-.2-.1-.5.2-.8.2-.2.3-.3.4-.3.1-.1.2-.1.3-.1.4-.1.6-.1.9-.1h.8c1 0 2 .1 3 .2 2 .2 3.9.5 5.8.8 1.9.3 3.7.6 5.3 1 1.7.3 3.3.7 4.8 1 2.9.6 5.4 1.2 7.1 1.6.9.2 1.5.4 2 .5.5.1.7.2.7.2s-1-.1-2.7-.4c-1.7-.2-4.2-.6-7.2-1-1.5-.2-3.1-.4-4.8-.7-1.7-.2-3.5-.5-5.4-.7-1.9-.3-3.8-.5-5.7-.7-.6-.1-1.6-.1-2.9-.2.6.4 1.2.7 1.8 1l2.7 1.2c1.8.8 3.6 1.5 5.3 2.2 3.5 1.4 6.8 2.7 9.6 3.8 2.8 1.1 5.1 2 6.8 2.7 1.6.7 2.6 1.1 2.6 1.1s-.3-.3-.7-.4z"/><path id="Fill-9" class="st37" d="M12.2 512.1s.2.1.7.2c.5.2 1.1.4 2 .7 1.7.6 4.2 1.5 7.1 2.6 1.5.6 3 1.2 4.7 1.8 1.7.7 3.4 1.4 5.2 2.1 1.8.8 3.7 1.5 5.5 2.3 1.9.8 3.8 1.7 5.7 2.6.5.2.9.5 1.4.7l.7.4.7.4c.9.6 1.8 1.2 2.6 1.8.8.7 1.6 1.4 2.3 2.4.2.3.3.5.4.9.1.4.1.9-.2 1.2-.2.4-.6.6-.9.8l-.9.3c-.1 0-.3.1-.4.1H47.6c-.5 0-1.1-.2-1.5-.3-1-.3-1.8-.7-2.6-1.1-1.6-.8-3.1-1.6-4.5-2.3-1.4-.8-2.6-1.4-3.7-2-1.1-.6-2.1-1.1-2.9-1.5l-2.6-1.3s.2.1.7.3c.5.2 1.1.4 2 .7.9.3 1.9.7 3.1 1.2.6.2 1.2.5 1.9.8.7.3 1.3.6 2 .9 1.4.7 2.9 1.4 4.6 2.1.8.3 1.6.7 2.5.9.4.1.9.2 1.3.2h.7c.2 0 .4-.1.6-.1.2 0 .4-.1.5-.2l.2-.2v-.2c0-.1-.1-.3-.2-.5-.2-.3-.5-.7-.9-1-.3-.3-.7-.6-1.1-.9-.8-.6-1.6-1.2-2.5-1.7l-.7-.4-.7-.4c-.5-.2-.9-.5-1.4-.7-1.9-.9-3.7-1.8-5.6-2.6-1.9-.8-3.7-1.7-5.5-2.5-1.8-.8-3.5-1.6-5.1-2.3-1.6-.7-3.2-1.4-4.6-2.1-2.8-1.3-5.2-2.4-6.8-3.2-.8-.4-1.5-.7-1.9-.9-.4.1-.7 0-.7 0"/><path id="Fill-7" class="st37" d="M-19.2 393.1s.8-.5 2.1-1.3c1.4-.8 3.3-2.1 5.6-3.5 1.1-.7 2.4-1.6 3.7-2.4.6-.4 1.3-.9 2-1.4.3-.2.7-.5 1-.7l.3-.2.3-.2c.2-.1.4-.2.5-.3 1.6-.9 3.3-1.6 5-2.1.4-.1.9-.3 1.3-.4.4-.1.9-.2 1.3-.4.9-.3 1.8-.5 2.7-.7l2.7-.6c.9-.2 1.8-.3 2.7-.5 1.8-.3 3.5-.6 5.3-.8 1.7-.2 3.4-.4 4.9-.6.8-.1 1.5-.2 2.3-.2.7-.1 1.5-.1 2.1-.2 1.4-.1 2.6-.2 3.7-.3 1.1-.1 2.1-.1 2.9-.2 1.6-.1 2.5-.1 2.5-.1s-.9.2-2.5.4c-1.6.3-3.8.6-6.6 1-1.4.2-2.8.5-4.4.7-.8.1-1.6.3-2.4.4-.8.1-1.6.3-2.5.4-.8.1-1.7.3-2.6.5-.9.2-1.7.3-2.6.5-.9.2-1.8.4-2.7.5l-2.7.6c-.9.2-1.8.4-2.6.6-.4.1-.9.2-1.3.3-.4.1-.9.3-1.3.4-1.7.5-3.3 1.1-4.8 1.9l-.6.3-.3.2-.2.2c-.4.2-.7.5-1.1.7-.7.4-1.4.9-2.1 1.3-1.4.8-2.7 1.5-3.9 2.2-2.4 1.3-4.5 2.3-5.9 3-.7.3-1.3.6-1.7.8.1.1-.1.2-.1.2"/><linearGradient id="Path-547_3_" gradientUnits="userSpaceOnUse" x1="-304.415" y1="763.441" x2="-303.397" y2="762.623" gradientTransform="matrix(-26.5994 -1.097 .9289 -31.4143 -8907.56 23985.459)"><stop offset="0" stop-color="#b5887d" stop-opacity="0"/><stop offset="1" stop-color="#b5887d"/></linearGradient><path id="Path-547_1_" d="M-114.6 324.6c-2.1 3.6 12.2 24 15.1 29.3 2.9 5.3 9.6-3.7 11-6.1 1.4-2.4-2.4-3.3-4.8-5.7-2.4-2.4-19.2-21-21.3-17.5z" fill="url(#Path-547_3_)"/><linearGradient id="Path-548_1_" gradientUnits="userSpaceOnUse" x1="-297.421" y1="763.327" x2="-293.298" y2="762.705" gradientTransform="matrix(38.9179 -4.734 -1.359 -135.5667 12407.697 102445.39)"><stop offset="0" stop-color="#fff" stop-opacity=".193"/><stop offset="1" stop-color="#fff" stop-opacity="0"/></linearGradient><path id="Path-548" d="M-104.8 364.6c0 3.2 1 12.5 2.9 27.7 2.8 22.9 1.2 33.8 2.9 46.1 1.6 12.2 8.6 36.3 12.6 46.1 1.1 2.8 2.2 3.6 4.1 6.1 4.7 6.2 10.9 12.3 8.6 8.6-1.7-2.8-2.8-6-3.7-10.6-.8-4.3-1.7-9.7.8-18.3 5.2-18 13-17.5 10.2-23.6-2.9-6.1-19.5-17.4-21.6-21.6-2.1-4.2-5.4-27.8-8.6-33-3.2-5.2 7.6 1.6 2.4-8.6-3.4-6.9-7-13.2-10.6-18.9z" fill="url(#Path-548_1_)"/><g id="Page-1" transform="translate(67.563 339.264)"><path id="Fill-1_1_" class="st40" d="M-159 1.4s.6.3 1.4.8c.8.6 1.7 1.4 2.4 2.5.2.3.3.5.5.8.2.3.3.6.4.8.2.6.4 1.1.5 1.6.2.9.2 1.6.2 1.6l-.3-.3c-.2-.2-.4-.5-.7-.9-.3-.4-.6-.8-.9-1.3-.3-.5-.6-.9-1-1.4-.3-.5-.7-1-1-1.5-.3-.5-.6-.9-.8-1.4l-.5-1c-.2-.1-.2-.3-.2-.3"/><path id="Fill-3_1_" class="st40" d="M-146 16.5v.2c0 .2.1.4.2.7.1.3.3.6.5.9.2.3.5.7.9 1 .4.3.8.6 1.3.8.1 0 .3.1.4.1h1.2c.1 0 .3-.1.4-.2h.1l.2-.1c.1 0 .1-.1.2-.1s.1-.1.1-.1c.1-.1.2-.2.2-.3.3-.4.4-.9.4-1.4 0-.5-.1-1.1-.3-1.7-.1-.3-.2-.6-.3-.8-.1-.1-.1-.3-.2-.4-.1-.1-.1-.2-.2-.3l-.2-.2-.1-.1-.1-.1s-.1 0-.2-.1c-.2-.1-.5-.1-.7-.2-.5 0-1.1.1-1.5.3-.5.2-.9.4-1.2.6-.3.2-.6.5-.8.7-.2.2-.3.5-.3.6v.2m0 0v-.2c0-.2.1-.4.3-.6.2-.2.4-.5.7-.8.3-.3.7-.6 1.2-.8.5-.3 1-.5 1.6-.6.3-.1.7-.1 1.1 0 .1 0 .2 0 .3.1l.3.1h.1l.1.1.2.1.4.4c.1.1.2.3.4.4.2.3.4.6.6 1 .3.7.5 1.5.5 2.3 0 .8-.3 1.7-.9 2.4-.1.1-.1.2-.2.2l-.3.2c-.2.1-.4.2-.5.3l-.3.1H-140.7c-.2 0-.3.1-.5.1-.4.1-.8 0-1.2-.1-.2-.1-.3-.1-.5-.2-.1-.1-.3-.2-.4-.2-.5-.4-.9-.8-1.3-1.2-.3-.4-.6-.8-.8-1.2-.2-.4-.3-.7-.4-1-.1-.3-.1-.5-.2-.7v-.2"/></g></g><g id="Group-2" transform="translate(69.842)"><path id="Oval" d="M-97 137.3c10.3 0 17-6.1 23.1-16.5 4.1-6.9 7-10.4 9-16.8 1.4-4.6 2.1-10.4 2.3-16.7.1-4.4 7.5 7.3 10.2-26.8.1-1.5-2-9.4-8.2-5.1-.8.5-1.8 4.1-3.2 10.6v-2.1C-67.4 29.7-77.9 9.2-98.6 9.2c-22.5 0-44.7 24.7-40.4 64.2.1.6-1.7-7.9-7.1-5.5-4.3 2 0 9.2.8 11 7.8 17.6 10.1 12.4 10.3 13.7 1.2 7.8 3.1 13.8 5.9 19.7 2.6 5.5 6.7 9.5 10.4 13.4 2.8 2.9 5.2 5.6 9 8.2 4.1 3 8 3.4 12.7 3.4z" fill="#fcc9b5" stroke="#935f52" stroke-width="1.564"/><linearGradient id="Path-509_2_" gradientUnits="userSpaceOnUse" x1="-364.575" y1="839.347" x2="-366.122" y2="839.261" gradientTransform="matrix(47.0547 0 0 -106.2615 17098.15 89268.445)"><stop offset="0" stop-color="#fcc9b5"/><stop offset=".509" stop-color="#d8a898"/><stop offset="1" stop-color="#b5887d"/></linearGradient><path id="Path-509" d="M-98.2 69.5c-.7 1.7-.3 5.2 0 7.1.5 3.2 1.9 4.8 2 7.1.2 5.2-.6 4.2-.4 7.4.2 3.2 1.3 2.4.8 6.3-.2 1.6-.4 2.9-.9 3.9-.7 1.4-1.9 2.3-1.9 2.7 0 .8 1.2.8 2.7.4s3.2-3.1 3.5-3.9c.4-.8-.7-1.6 0-2.4.7-.8 1 .3 2 0s1.4-2.1 2-2c.5.1 1.1 1.6.4 3.1-.4.9-1.3.8-2.4 1.2-.7.3-1.6.6-2 1.2-.8 1.1-1.2 1.6-2.7 2.7-.1.1 1.5 3.8 2.7 5.1 1.2 1.3 7.8 1.9 8.6 1.2 0 0-.9.4-1.6 1.6-.8 1.3-1.5 3.4-2.7 5.9-.4.9-1.9 2.3-4.3 4.3 4.7-1.3 7.1.7 7.1 5.9 0 3.7-5.3 6.6-4.4 6.8 1-.3 5.4-1.9 8.7-5.9 6.1-7.2 11.7-17.5 13.4-20.7 1.5-2.5 4-10.9 3.8-16.3 0-1.7.2-2.9.3-3.8 0-1.1-.1-1-1-2.4-.9-1.3-1.4-3.6-2-4.7-1.2-2.4-2.5-5.2-4.3-7.1-2.9-3.1-5.4-3.1-3.9-1.6 3.1 3.1 2 9.4-5.9 10.2-4 .4-8.6-3.9-8.6-4.3 0-.8.8-.4 2.4-.4s5.9-.9 6.3-1.2c.3-.3-3.3.1-4.7 0-.8-.1-1.5-.1-2.2-.2-.9-.1-1.8-1.3-2.5-1.4-2.3-.4-3.5.1-3.9-.4-1.3-1.5 3.8-6.2 5.5-7.8.9-.8 6.6-1.3 12.2 2 3.8 2.3 7.1 6.3 9.8 12.1 1 4.2 1.3 3.9 3.7 4.2 3 .3 6.6-5.3 6.5-6.7.5-11.8-10.7-44.3-14.5-45.3-2.6-.6-17.9-9.4-24.3 0-3.2 4.7-.1 14.7 0 23.1-.1 6.8-3.2 12.7-3.3 13z" fill="url(#Path-509_2_)" enable-background="new"/><linearGradient id="Path-509_3_" gradientUnits="userSpaceOnUse" x1="-359.051" y1="839.355" x2="-360.765" y2="839.26" gradientTransform="matrix(18.0594 0 0 -50.6944 6403.474 42634.531)"><stop offset="0" stop-color="#d8a898"/><stop offset=".326" stop-color="#d2a394"/><stop offset=".747" stop-color="#c29487"/><stop offset="1" stop-color="#b5887d"/></linearGradient><path id="Path-509_1_" d="M-86.8 59.4c-2 0-3.1 3.8-4.3 5.1-2.6 2.8-4 4-4.7 4.7-1.6 1.6-1.7-1.3-2.4.4s-.3 5.2 0 7.1c.5 3.2 1.9 4.8 2 7.1.2 5.2-.6 4.2-.4 7.4.2 3.2 1.3 2.4.8 6.3-.2 1.6-.4 2.9-.9 3.9-.7 1.4-1.9 2.3-1.9 2.7 0 .8 1.2.8 2.7.4s3.2-3.1 3.5-3.9c.4-.8-.7-1.6 0-2.4.7-.8 1 .3 2 0s1.4-2.1 2-2c.5.1 1.1 1.6.4 3.1-.4.9-1.3.8-2.4 1.2-.7.3-1.6.6-2 1.2-.8 1.1-1.2 1.6-2.7 2.7-.1.1 1.5 3.8 2.7 5.1 1.2 1.3 8.7 1.3 8.6-.8-.2-3.9-1.6-3.7-1.6-5.5s1.2-.6 1.6-2.7c.4-2.1-.4-5.3-1.6-9-1.2-3.7-9-12.1-7.5-11.4 1.6.8 6.1 2 5.9 1.2-.2-.8-2.4-2-2.4-2.7s.8-.4 2.4-.4 5.9-.9 6.3-1.2c.3-.3-3.3.1-4.7 0-.8-.1-1.5-.1-2.2-.2-.9-.1-1.8-1.3-2.5-1.4-2.3-.4-3.5.1-3.9-.4-1.3-1.5 3.8-6.2 5.5-7.8s3.2-2 3.5-2.7-.7-2-.8-2.7c-.2-1.7-.1-2.4-1-2.4z" opacity=".795" fill="url(#Path-509_3_)" enable-background="new"/><linearGradient id="Path-506_1_" gradientUnits="userSpaceOnUse" x1="-365.744" y1="839.66" x2="-363.311" y2="839.157" gradientTransform="matrix(36.8929 0 0 -98.2178 13309.648 82513.313)"><stop offset="0" stop-color="#fff"/><stop offset=".103" stop-color="#fff9f6"/><stop offset=".701" stop-color="#fdd6c7"/><stop offset="1" stop-color="#fcc9b5"/></linearGradient><path id="Path-506" d="M-114.3 66.4c1.3-1.3-2.9-6.5.8-9 3.6-2.5 4.8-3.4 3.1-7.1-2.9-6.1-3.9-12.9-11-18-7.5-5.5-13-4.4-16.5 3.1-1.6 20.1-1.6 33.9 0 41.5 1.5 7.4 2.7 11.4 3.5 15.3.4 2 .6 4 1.2 6.3.7 2.8 1.8 6.9 3.5 11 2.4 5.5 5.7 9.6 7.1 11 2.4 2.4 6 7 7.5 6.7 1.5-.4-1.2-10.6 2-8.2 3.1 2.4 10.3 4.7 11 3.9.4-.4-2.2-1.4-3.9-3.1-1.5-1.5-2.8-4.6-3.9-5.1-2.3-1-3.5 2.9-4.3 2.7-.8-.2-1.2-.5-1.2-3.1s.4-4.3 1.6-6.3c1.2-2 1.1-2.1.4-3.9-.4-.9-1.3-3.6-3.1-3.9-1.7-.3-4.1 1.9-5.9 1.2-3.6-1.5-6.7-8.6-6.7-12.5 0-4 11.7-6.1 12.2-6.7.5-.5-5.1 0-5.5-1.6s4.5-.7 3.1-2.4c-.6-.7-2.4-.3-4.3-1.6-.8-.5-1.6-1.2-2.4-2-.8.6-1.3 1-1.6 1.2-.5.4.2-.7 1.2-2 .9-1.1 2.5-2.3 2.4-2.4-.2-.1-1.4.6-2.4 1.6-1.3 1.2-2.4 2.6-2.4 2 0-.4.2-1.1.8-2 1.6-2.4 2.7-3.9 5.5-6.3s6.9 1 8.2-.3z" fill="url(#Path-506_1_)"/><g id="Path-504"><g id="path-30"><linearGradient id="SVGID_1_" gradientUnits="userSpaceOnUse" x1="-366.904" y1="839.819" x2="-366.904" y2="838.794" gradientTransform="matrix(110.578 0 0 -97.5404 40469.398 81911.39)"><stop offset="0" stop-color="#6b5649"/><stop offset="1" stop-color="#fff"/></linearGradient><path d="M-62.1 86.6h.2c1.3-.2 2.5-.3 3.2-.8 1.3-.9 2.2-2.2 3.1-4.3 1.2-3.1 2.3-7.7 2.7-11.3.3-3.2-.2-4.3-.5-4.6-.1-.2-.3-.2-.5-.2h-.2c-1 3.4-1.7 5.7-1.9 7-.1.5-.2 2.3-.4 5.3l-.1 1.7-.8-3.3c-.1.7-.3 1.3-.5 1.7-.6 1.1-1.4 2.4-2.2 3.8-.6 1-1.8 2.7-3.5 5.1l-.8 1.1 1-3.4-1.4 1 .5-.9c.5-.9.9-1.7 1.2-2.3.2-.5.4-1.2.6-2.1-.3.3-.6.6-1 .9-.7.6-1.3.9-1.7.9h-.5l.3-.4c1.8-2.5 2.7-4.9 2.7-7.4 0-2.1-.3-2.7-.6-3.3-.2-.4-.5-.8-.5-1.8-.4-4.7-1.2-9.9-2.3-15.4l-.3 6-3.6-6.7-.3 1.8-.3-.9c-1.4-3.6-2.4-6-2.9-7.4-.4-1-.7-2.1-1.1-3.4v4.7l-1.4-1.8c-.9 1.9-1.3 3.2-1.4 3.8-.1 1.6.2 3.1.8 4.6l.6 1.6-3.5-4.4c-.1 1.2 0 2.7.5 4.4.3 1 .8 2.5 1.3 4.2.6 1.7 1.2 3.6 1.8 5.6l.5 1.9-5.8-9.7-3-6.1c-.1 1.3-.1 2.5.1 3.3.2 1.1.9 3 1.9 5.8l.4 1-.8-.7c-.7-.7-1.3-1.1-1.7-1.4 0 .2 0 .8.2 2l.1.6-.5-.4c-1-.8-1.8-1.8-2.4-2.8-.6-1-1.3-2.5-2-4.4-2.6-5.3-3.6-7-4-7.5 0 .2-.1.4-.1.7 0 .4 0 .8-.1 1.3s-.4 1.3-.8 2.4l-.2.5-1.1-2.2c-.7 3.7-.9 6.6-.6 8.5.3 2.1.9 4.3 1.9 6.6l.6 1.3-1-1.1c-1.4-1.4-2.2-2.4-2.4-3.1-.9-2.5-1.1-4.3-1.1-5.2-.2.6-.3 2-.3 5.1v1.6l-.5-1.6c-.5-1.5-.7-2.8-.8-3.7v-1.6-.3c-.3.4-.9 1.5-2.3 4.3l-.6 1.2.1-1.4c.9-9.1 1.2-15.2.8-18.3-.6-4.3-2.3-8-5.1-10.9 0 .6 0 1.8.5 3.4.3 1 .9 2 1.9 2.9l.6.6-.9-.2c-.7-.1-1.2-.2-1.5-.2h-.2c0 .2-.1.4-.1.6-.1.2-.2.5-.1.8.1.6.3 1.7.7 3.3l.4 1.6-2.5-4.1c.4 2.1.7 4.1.9 5.8 0 .4.1.7.1 1.2.2 2.1.5 5 .3 8.5l-.2 2-.3-1.9c-1.3-7.2-2.3-11.8-3.1-13.7-.4-.9-.8-1.7-1.1-2.5-.3 1.1-.9 4.4-.3 7.9.2 1 .7 2.2 1.5 3.7.4.8.9 1.8 1.4 2.9l.7 1.5-1.1-1.3c-1.7-2-3-4-3.7-6-.6-1.5-.6-3.5-.7-5.5 0-1.6-.1-3.2-.4-4.5-.1.2-.2.5-.4.9-.2.3-.6.9-1.2 1.7l-.4.5-.1-.6c-.3-2.7-.5-4.8-.8-6.2-.3-1.5-1.1-2.8-1.4-3.3-.1.2-.4.7-.5 1.7-.1.7-.1 2.1 0 3.9v1l-.5-.9c-1.1-1.9-1.5-2-1.5-2-.6 1.1-1.5 3.9-1.1 6.8.2 1.6.7 3.7 1.6 6.3l.5 1.5-.9-1.2c-1-1.3-1.7-2.3-2-2.8-.3-.5-.6-1.4-1.1-2.8-.4.6-.7 1.1-.8 1.5-.1.5-.1 1.6 0 3.1l.1 1.3-1.7-3.4c-.2.1-.7.5-1.2 2.1-.3 1-.7 2.7-1 4.5-.2 1.1-.4 2.1-.6 2.9l-.4 1.9-.1-2c-.1-2.4 0-4.9.2-7.3.1-1.8.4-3.6.7-5.6-.9 2.2-1.3 4.3-1.3 6.1 0 2.5-.2 4.1-.7 4.9l-.8 1.3-.5-6.3.3-3.9c-.7.9-1.2 1.6-1.4 2.1-.3.6-.7 1.8-1.2 3.5l-.2.6-.3-.6c-.6-1.2-1-2.5-1.2-4-.1-1.2-.2-2.9-.1-5.2-.9 2.6-1.4 5.1-1.4 7.5v6.9l-.4-1.3c-.5-1.7-.9-2.5-1.1-3 0 1.6-.1 3.6-.2 5.6-.1 2.4-.3 4.9-.2 6.7.2 3.1.4 6.1.7 9.2 0 .2 0 2.2-.8 3.5 0 .1-.1.2-.2.4-.6.8-1.9 2.7-2.1 4.6-.1 1.2.9 2.9 1.1 3.4.5.8 1.1 1.4 1.7 2 .6.6 1.1 1.2 1.4 1.7l.1.1-.1.2-.1.1h-.2c-.4 0-2.3-1.2-3.7-2.7-.2-.2-.4-.5-.6-.7.3.5.6 1.1 1 1.5.7.9 1.7 1.8 2.6 2.6.8.7 1.6 1.4 2.1 2.1 0 .1.2.2.1.4l-.1.1h-.2c-.7 0-6.8-4.6-8.8-7.3-.6-.7-1.3-1.7-1.8-1.8h-.1l-.1-.1h-.3c-.2 0-.6 0-1 .1l-1 .2.8-.6c.4-.3.6-.5.7-.7 0-.1.1-.2.2-.4-.4.3-.6.4-.7.4-.1 0-.3.1-.4.1-.1 0-.3 0-.5-.1l-.4-.1.2-.3c.7-1 .7-1.3.7-1.4-.1-.5-.4-1-1-1.3l-.1-.1c-.1-.1-.6-.4-2.2-.7l-.6-.1.5-.3c.9-.7 1.4-1.3 1.5-1.8.4-2.2-.3-4.7-.4-4.9-.8-1.5-1.4-4.7-2-9.5-1.8-9-2.2-11.1-2.3-11.3-.2 0-.8.2-2.4 1.3l-.7.5.3-.8c1.6-3.9 2.5-6.6 2.8-7.8l.1-.4c.1-.4.1-.8.2-1.1 1.7-6.9 4.5-13 8.3-18.3.5-.6 1.1-.9 1.7-1.2.5-.2 1-.5 1.4-.9.7-.9 1.4-1.7 2.2-2.7 2.1-2.6 4.3-5.3 6.9-7.2 1.5-1 2.9-1.9 4.5-2.7.5-.3.9-.5 1.4-.8.2-.1.4-.2.7-.4.7-.4 1.7-.9 2.3-1.4-.2 0-.5-.1-1.3-.1h-.9l.8-.5c1.6-.9 2.5-1.4 2.8-1.6 1.2-.6 2.4-1.2 3.5-1.8 2.4-1.4 4.7-2.6 7.9-3.3.7-.1 1.3-.3 2-.5.3-.1.7-.2 1-.2-.2-.1-.5-.4-1.1-.8l-1.6-1.1 1.8.6c1.5.5 2.7.8 3.4.8 1.2 0 3.6 0 5.6.8.5.2.9.3 1.2.3.4 0 .7-.2.8-.5l.1-.4.3.2c1.4 1.3 2 1.5 2.2 1.5.1 0 .1-.3-.6-1.6l.4-.3c1.9 2 3.2 3.2 3.8 3.5 0 0 .2-.2.4-1.4l.1-.6.3.5c.3.5.6 1 1.1 1.5.2.2.6.6 1.2 1.1 4.8.4 8.2.9 10.2 1.6 6 2.1 10.9 5.8 14.6 11.1.9 1.3 2.8 3.1 4.9 5.1 2.9 2.8 6.2 5.9 7.3 8.3.3.7.7 1.3 1.1 1.9.9 1.6 1.8 3 2.1 5.6.1.8.4 2.4.9 4.6l.3 1.2-1.9-2.7c.1.3.3.6.4.7l.5.8c.8 1.4 1.2 2.2 1.5 3.5l2 8-.9-1.5c-.6-1.1-1.1-1.9-1.4-2.3-.1-.2-.2-.3-.3-.4.5 3.7.8 6.6.9 8.4 0 .8.1 1.6.2 2.3.1 1.2.3 2.4.3 3.6-.1 2.4-.8 4.7-1.4 7l-.1.2c-.2.7-.4 1.4-.7 2.1-.1.2 0 1.3.5 1.9.4.4.9.8 1.5 1.1l.5.3-.5.2c-.7.3-1.4.4-2 .4-.6 0-1.2-.1-2-.3.1.7.2 1 .3 1.1.1.2.3.5 1 1l.4.3-.9.2c.3.9.6 1.7 1.1 2.4.5.8 1.3 1.5 2.3 2.3l1.4 1-4.3-1.6.2 1.3-1.1-.5c-.2.7-.1 1.5.1 2.3.3 1 .6 1.9 1.1 2.7l.7 1-1-.7c-.9-.6-1.6-1.1-2-1.6-.3-.3-.7-.9-1.1-1.6v.4c0 .7.2 1.3.7 1.8l.6.6-.8-.1c-.8-.1-1.4-.3-1.6-.4-.3-.1-.6-.4-.9-.9-.1 0-.2.1-.4.4-.2.4-.5 1.2-.8 2.3l-.2.9-.4-1.3c-.3.8-.5 1.3-.5 1.4-.5 1.1-1 2.3-1.6 3.5l-.4.8-.1-.9c-.1-1-.1-1.7-.2-2-.4.9-.8 2.1-1.3 3.7l-.5 1.6v-8.8z" fill="url(#SVGID_1_)"/><path d="M-110.4-4.1c1.6.5 2.7.8 3.5.8 1.2 0 3.5 0 5.5.8.5.2 1 .3 1.3.3.5 0 .9-.2 1-.7 1.1 1 1.9 1.5 2.4 1.6h.1c.5 0 .3-.7-.5-2 2 2 3.3 3.2 3.9 3.5h.1c.2 0 .5-.5.7-1.6.3.5.7 1 1.1 1.6.2.2.6.6 1.3 1.2 4.8.4 8.2.9 10.2 1.6 6.9 2.4 11.4 6.6 14.5 11 2.3 3.2 10.2 9.4 12.2 13.3 1.2 2.5 2.7 3.9 3.1 7.4.1.8.4 2.4.9 4.6l-2.5-3.4c.5 1.4.9 2.3 1.2 2.7 1.1 2.1 1.6 2.7 2 4.3.3 1 .8 3.1 1.6 6.3-.6-1.1-1.1-1.9-1.4-2.4-.3-.4-.5-.6-.8-.6h-.1c.5 4 .8 6.9.9 8.8.1 2 .6 4 .5 5.9-.1 2.4-.8 4.8-1.4 7.1-.2.7-.4 1.4-.7 2.1-.1.3-.1 1.5.6 2.2.4.4.9.8 1.6 1.2-.7.3-1.3.4-1.9.4s-1.4-.1-2.4-.4c.1.8.3 1.3.4 1.6.1.3.5.6 1 1.1l-.7.1c.3 1 .7 2 1.2 2.7s1.3 1.6 2.3 2.4l-3.1-1.2.2 1.2-1-.4c-.3.8-.3 1.7 0 2.7s.7 2 1.2 2.7c-.9-.6-1.6-1.1-2-1.6-.4-.5-.9-1.2-1.6-2.4V84c0 .8.3 1.4.8 2-.8-.1-1.3-.3-1.6-.4-.3-.1-.5-.4-.8-.8-.1-.1-.2-.1-.2-.1-.2 0-.4.2-.5.5-.3.5-.5 1.2-.8 2.4l-.4-1.2c-.4 1.2-.7 1.9-.8 2-.5 1.1-1 2.3-1.6 3.4-.1-1.8-.3-2.8-.4-2.8-.5 1-1 2.4-1.6 4.3l-.1-6.6c1.3-.2 2.5-.3 3.3-.8 1.2-.8 2.2-2 3.2-4.4 1.3-3.3 2.3-8 2.7-11.4.4-3.5-.2-5.1-1.2-5.1-.1 0-.3 0-.4.1-1.1 3.5-1.7 5.9-2 7.2-.1.5-.2 2.3-.4 5.3l-.8-3.3c0 1.5-.2 2.6-.6 3.3-.6 1.1-1.4 2.4-2.1 3.8-.6 1-1.8 2.7-3.5 5l.8-2.7-1.2.8c.5-.9.9-1.7 1.2-2.4s.5-1.7.8-3.1c-.4.5-.9 1-1.6 1.6-.7.5-1.2.8-1.6.8 1.8-2.5 2.8-5 2.7-7.5 0-3.7-1-3-1.2-5.1-.4-5.2-1.3-11-2.7-17.2l-.4 7-3.5-6.6-.2 1.7c-1.4-3.5-2.4-6-2.9-7.4s-1-3.1-1.6-5.2V47l-1.2-1.6c-1 2.1-1.5 3.6-1.6 4.3-.1 1.6.2 3.2.8 4.7l-2.7-3.5c-.3 1.3-.1 3 .4 5.1.5 2.1 2 5.8 3.1 9.8l-4.8-8-3.4-6.9c-.2 1.8-.2 3.2 0 4.3.2 1.1.9 3 2 5.9-.9-.8-1.5-1.3-2-1.5-.2 0-.2.8 0 2.4-1-.8-1.8-1.7-2.4-2.7-.6-1-1.3-2.4-1.9-4.3-2.6-5.2-4.1-7.8-4.3-7.8-.3.3-.2 1.2-.4 2.4-.1.4-.3 1.2-.8 2.4l-1.2-2.4c-.8 4.1-1 7.2-.8 9.3.3 2.1.9 4.3 2 6.6-1.3-1.4-2.1-2.4-2.4-3-1.4-3.8-1-5.9-1.2-5.9-.5.1-.8 2.1-.8 5.9-.5-1.5-.7-2.7-.8-3.6-.1-1.2.1-2.2 0-2.3-.3 0-1.2 1.6-2.7 4.7.9-9.2 1.2-15.3.8-18.4-.9-6.9-4.5-10.3-5.5-11.4-.1 0-.3 1.6.4 3.9.3 1 1 2 2 3-.7-.1-1.2-.2-1.5-.2-.3 0-.5.1-.5.2 0 .4-.3.9-.3 1.4.1.6.3 1.7.7 3.4l-2.4-3.9c.6 2.7 1 5.1 1.2 7.2.2 2.1.7 5.5.4 9.6-1.3-7.2-2.3-11.8-3.1-13.8-.5-1.1-.9-2.1-1.3-2.9-.3 0-1.3 4.2-.6 8.5.2 1.6 1.5 3.6 2.9 6.7-1.7-2-2.9-3.9-3.7-5.9-1-2.7-.3-7.4-1.2-10.3 0-.1-.1-.2-.1-.2-.1 0-.2.5-.7 1.4-.2.3-.6.9-1.2 1.7-.3-2.7-.5-4.8-.8-6.3-.3-1.8-1.4-3.4-1.6-3.5-.1 0-.6.5-.8 2-.1.8-.1 2.1 0 3.9-.8-1.4-1.4-2.1-1.7-2.1-.1 0-.2.1-.2.2-.5 1.1-1.6 3.9-1.2 7 .2 1.6.7 3.8 1.6 6.3-1-1.4-1.7-2.3-2-2.7-.3-.5-.7-1.5-1.2-3.1-.7.7-1 1.4-1.2 2-.1.6-.1 1.6 0 3.1l-1.2-2.4c-.5 0-1.1.8-1.6 2.4-.5 1.6-1.1 5.3-1.6 7.4-.1-2.4 0-4.8.2-7.2.2-2.4.5-4.9 1-7.6-1.4 3-2.1 5.7-2.1 8.1 0 2.4-.2 4-.6 4.8l-.4-5.5.4-4.7c-1 1.2-1.6 2.1-2 2.7-.3.6-.7 1.8-1.2 3.5-.6-1.2-1-2.5-1.2-3.9-.2-1.4-.2-3.7 0-6.7-1.3 3.1-2 6.1-2 9v5.5c-.8-2.4-1.3-3.6-1.5-3.6-.1 0-.1.2-.1.5.1 3.5-.6 9.2-.4 12.5.2 3.3.4 6.3.7 9.2 0 .3 0 2.2-.7 3.4-.3.5-2.1 2.7-2.4 5.1-.2 1.3 1 3.2 1.2 3.5 1 1.5 2.5 2.7 3.1 3.8-.2 0-2.1-1.1-3.5-2.6-1.1-1.2-2-2.7-2.2-3.3 0-.1-.1-.1-.1-.2 0 0 0 .1.1.2.5 1.1 1.1 2.9 2.2 4.4 1.5 1.8 3.7 3.3 4.7 4.7.1.1.1.1 0 .1-.5 0-6.5-4.3-8.6-7.2-1.5-2-1.9-1.9-2-2-.1-.1-.2-.1-.5-.1s-.6 0-1.1.1c.4-.3.6-.6.8-.8.1-.2.3-.6.4-1.2-.6.4-1 .7-1.2.8-.1 0-.2.1-.3.1s-.3 0-.4-.1c.6-.8.8-1.3.8-1.6-.1-1-1.1-1.5-1.2-1.6-.2-.3-1-.5-2.4-.8.9-.7 1.5-1.3 1.6-2 .5-2.3-.3-4.9-.4-5.1-.7-1.5-1.4-4.6-2-9.4-1.5-7.5-2.2-11.3-2.3-11.4 0-.1-.1-.1-.3-.1-.4 0-1.3.4-2.5 1.3 1.6-4 2.5-6.6 2.8-7.9l.3-1.5c1.8-7.2 4.7-13.2 8.3-18.2.8-1.1 2.2-1.1 3.1-2.1 2.8-3.3 5.5-7.3 9-9.8C-132 9-130.1 8-128 6.9c.8-.4 2.5-1.2 3.1-2 .2-.3-.3-.4-1.6-.4 1.6-.9 2.5-1.4 2.7-1.6 3.9-1.8 6.7-4.1 11.4-5.1 1.2-.2 2.2-.5 3.3-.8.3 0-.2-.4-1.3-1.1m-3.5-1.7l3.2 2.1c.3.2.5.3.7.5-.2 0-.3.1-.5.1-.6.2-1.3.3-2 .5-3.2.7-5.7 2-8 3.3-1.1.6-2.3 1.3-3.5 1.8-.3.1-1.2.7-2.8 1.6l-1.6.9h2.5c-.5.4-1.2.7-1.8 1-.3.1-.5.3-.7.4-.5.3-1 .5-1.4.8-1.6.9-3 1.7-4.5 2.7-2.7 1.9-4.8 4.6-6.9 7.2-.7.9-1.4 1.8-2.2 2.6-.4.4-.8.6-1.3.9-.6.3-1.3.6-1.8 1.3-3.8 5.3-6.6 11.5-8.4 18.4-.1.4-.2.8-.2 1.2l-.1.4c-.3 1.3-1.2 3.9-2.8 7.8l-.6 1.5 1.4-.9c1.3-.9 1.9-1.1 2.1-1.2.2.8.7 3.4 2.2 11.1.6 4.8 1.2 7.9 2 9.5.1.2.8 2.6.4 4.8-.1.3-.4.9-1.4 1.7l-.9.7 1.1.2c1.8.3 2 .6 2.1.6.1.1.1.1.2.1.2.1.8.5.9 1.2 0 0 0 .3-.7 1.2l-.4.6.7.2c.2 0 .4.1.6.1h.3l-.3.3-1.6 1.2 2-.3c.4-.1.8-.1 1-.1h.2c.1.1.1.1.2.1.3.1.9.8 1.7 1.8 2 2.6 8.2 7.4 9 7.4h.3l.2-.3c.1-.1.1-.4-.1-.6-.5-.7-1.3-1.4-2.1-2.1-.6-.5-1.2-1.1-1.8-1.7 1 .8 2 1.4 2.3 1.4h.3l.2-.3.1-.3-.2-.3c-.3-.6-.9-1.2-1.4-1.8-.6-.6-1.2-1.3-1.7-2-.2-.4-1.2-2.1-1.1-3.2.2-1.9 1.5-3.7 2-4.5.1-.2.2-.3.3-.4.8-1.4.8-3.4.8-3.7-.3-3-.5-6.1-.7-9.2-.1-1.8 0-4.2.2-6.7.1-1.5.2-3 .2-4.3.2.4.4 1 .6 1.7l.9 2.7.1-2.8v-5.5c0-1.9.3-3.8.8-5.8 0 1.5 0 2.6.1 3.5.2 1.5.6 2.9 1.2 4.1l.6 1.1.3-1.2c.5-1.7.8-2.8 1.1-3.4.2-.4.5-.8.9-1.4l-.3 3 .4 5.5.1 1.7.8-1.5c.5-.9.7-2.5.7-5 0-1 .1-2 .4-3.2-.1.9-.2 1.7-.3 2.6-.2 2.4-.3 4.9-.2 7.3l.1 3.9.9-3.8c.2-.8.4-1.8.6-2.9.3-1.7.7-3.5 1-4.4.4-1.1.7-1.6.9-1.8l1 1.9 1.2 2.3-.2-2.6c-.2-1.8-.1-2.6 0-3 .1-.3.2-.6.5-1 .4 1.2.7 1.9 1 2.3.3.5 1 1.4 2 2.8l1.8 2.5-.9-2.9c-.8-2.6-1.3-4.7-1.5-6.3-.3-2.7.5-5.2 1-6.4.2.2.6.7 1.2 1.7l1 1.7-.1-2c-.1-1.8-.1-3.1 0-3.9.1-.6.2-.9.3-1.2.4.6.9 1.6 1.1 2.8.3 1.5.5 3.6.8 6.2l.1 1.2.8-1c.6-.8 1.1-1.4 1.2-1.7 0-.1.1-.1.1-.2.2 1.1.2 2.4.2 3.7.1 2 .1 4.1.7 5.6.8 2 2 4 3.8 6l2.2 2.5-1.4-3.1c-.5-1.1-1-2.1-1.4-2.9-.7-1.5-1.3-2.7-1.5-3.6-.5-2.9-.1-5.7.2-7.2.3.6.6 1.2.8 1.9.8 1.9 1.8 6.5 3.1 13.7l.7 3.9.3-3.9c.3-3.5 0-6.4-.3-8.6 0-.4-.1-.8-.1-1.2-.1-1.3-.3-2.8-.6-4.4l.9 1.4 1.7 2.9-.8-3.3c-.4-1.6-.6-2.7-.7-3.3 0-.2.1-.4.1-.7 0-.1.1-.3.1-.4.3 0 .8.1 1.4.2l1.7.3-1.3-1.2c-1-.9-1.6-1.8-1.9-2.8-.3-1.1-.4-2-.4-2.7 1.4 1.6 3.9 4.8 4.6 10.3.4 3 .1 9.2-.8 18.2l-.3 2.8 1.2-2.5c.8-1.7 1.4-2.8 1.8-3.4v.9c.1.9.3 2.1.8 3.7l1 3.1v-3.3c0-1.3 0-2.3.1-3 .2.9.4 2 .9 3.2.3.7 1.1 1.8 2.5 3.2l2 2.1-1.2-2.7c-1-2.2-1.7-4.4-1.9-6.5-.2-1.8 0-4.4.5-7.7l.5 1 .5 1 .4-1c.5-1.2.7-2 .8-2.4.1-.5.1-.9.1-1.3.5.9 1.6 2.8 3.6 6.9.7 1.9 1.3 3.4 2 4.4.6 1 1.5 2 2.5 2.8l1 .8-.2-1.3c-.1-.7-.1-1.2-.2-1.5.3.2.7.6 1.3 1.1l1.6 1.4-.8-2c-1.1-2.8-1.7-4.8-1.9-5.8-.1-.6-.2-1.4-.1-2.3l2.6 5.3 4.8 8 2 3.3-1.1-3.7c-.6-2-1.2-3.9-1.8-5.6-.6-1.7-1.1-3.2-1.3-4.2-.4-1.4-.5-2.6-.5-3.7l2 2.5 2.1 2.7-1.3-3.2c-.6-1.4-.8-2.9-.7-4.5 0-.4.2-1.3 1.2-3.4l.7.9.9 1.2V44l.6 1.8c.5 1.4 1.5 3.9 2.9 7.4l.7 1.7.3-1.8v-.2l2.8 5.3.8 1.6.1-1.8.2-3.3c1 4.8 1.6 9.4 2 13.5.1 1 .3 1.4.6 1.9s.6 1.1.6 3.2c0 2.4-.9 4.8-2.6 7.2l-.6.9 1.1-.1c.5 0 1-.3 1.8-.9.2-.1.3-.2.4-.4-.1.6-.3 1-.4 1.3-.3.6-.7 1.4-1.2 2.3l-.9 1.7 1.6-1.1-.4 1.4-.7 2.6 1.6-2.1c1.8-2.3 3-4 3.6-5.1.8-1.4 1.5-2.6 2.2-3.8.1-.2.2-.5.3-.7l.1.6.8 3.4.2-3.5c.2-3 .3-4.7.4-5.2.2-1.2.9-3.5 1.9-6.8.1 0 .2 0 .3.1.2.3.7 1.2.4 4.4-.4 3.6-1.4 8.2-2.6 11.3-.8 2.1-1.7 3.4-3 4.2-.7.4-1.8.6-3 .7h-.1l-.4.1v.4l.1 6.6v3.3l1-3.2c.3-1 .6-1.9.9-2.7 0 .3.1.6.1 1l.1 1.9.8-1.7c.6-1.2 1.1-2.3 1.6-3.5 0-.1.1-.3.3-.7l.5 1.5.4-1.7c.3-1.1.5-1.8.7-2.2 0-.1.1-.1.1-.1.3.4.5.6.8.7.2.1.6.2 1.7.4l1.5.3-1.1-1.1c-.4-.4-.6-.8-.6-1.4.3.4.5.7.7.9.4.5 1.1 1 2.1 1.6l2.1 1.4-1.4-2.1c-.5-.7-.9-1.6-1.1-2.6-.2-.7-.2-1.3-.1-1.9l.4.2.8.4-.1-.9-.1-.4 2.3.9 3.2 1.2-2.8-2.1c-1-.7-1.7-1.5-2.2-2.2-.4-.6-.7-1.3-1-2.1h.1l1.1-.2-.9-.7c-.7-.5-.9-.8-.9-.9 0-.1-.1-.3-.2-.7.7.1 1.2.2 1.7.2.7 0 1.4-.1 2.1-.4l1-.4-1-.5c-.6-.3-1.1-.7-1.4-1.1-.5-.5-.5-1.5-.5-1.7.3-.7.5-1.5.7-2.1l.1-.2c.6-2.3 1.3-4.6 1.4-7 0-1.2-.1-2.4-.3-3.6-.1-.8-.2-1.5-.2-2.3-.1-1.7-.4-4.2-.8-7.4.3.5.7 1.1 1.1 1.9l1.8 3-.8-3.4-.8-3.1-.8-3.1c-.2-.8-.4-1.4-.7-2.1l.6.9-.5-2.4c-.5-2.2-.8-3.7-.9-4.6-.3-2.6-1.2-4.1-2.1-5.7-.4-.6-.7-1.2-1.1-1.9-1.2-2.4-4.5-5.5-7.4-8.3-2-1.9-3.9-3.8-4.8-5-3.8-5.3-8.7-9.1-14.8-11.2-2-.7-5.4-1.2-10.2-1.6-.7-.6-1-.9-1.1-1-.4-.5-.8-1-1.1-1.5l-.6-1-.3 1.2c-.1.6-.3.9-.3 1.1-.5-.3-1.5-1.2-3.5-3.3l-.8.6c.3.5.5.9.6 1.1-.3-.2-.8-.5-1.8-1.3l-.6-.5-.2.7c-.1.2-.2.4-.6.4-.3 0-.7-.1-1.1-.3-2-.8-4.5-.8-5.7-.8-.7 0-1.9-.3-3.4-.8l-3.6-.7z" fill="#d3d3d3"/></g></g><linearGradient id="Path-504_3_" gradientUnits="userSpaceOnUse" x1="-366.166" y1="839.958" x2="-366.362" y2="838.79" gradientTransform="matrix(77.2477 0 0 -72.2091 28180.896 60661.367)"><stop offset="0" stop-color="#bcb5b1"/><stop offset="1" stop-color="#fff"/></linearGradient><path id="Path-504_1_" d="M-152.3 60.1c.6 4.8 1.2 7.9 2 9.4.1.2.8 2.8.4 5.1-.1.6-.6 1.3-1.6 2 1.3.2 2.1.5 2.4.8 0 0 1.1.5 1.2 1.6 0 .3-.2.8-.8 1.6.3.1.6.1.8 0s.6-.3 1.2-.8c-.1.6-.3.9-.4 1.2-.1.2-.4.5-.8.8.9-.1 1.4-.1 1.6 0 .1.1.5 0 2 2 2.4 3.1 9.4 8 8.6 7.1-1-1.4-3.2-2.9-4.7-4.7-1.3-1.6-1.8-3.6-2.4-4.6-.1-.2.9 1.9 2.4 3.5 1.6 1.7 3.7 2.9 3.5 2.6-.6-1.1-2.1-2.2-3.1-3.8-.2-.3-1.3-2.2-1.2-3.5.3-2.4 2.1-4.6 2.4-5.1.7-1.2.7-3.1.7-3.4-.3-2.8-.5-5.9-.7-9.2-.2-3.3.5-9 .4-12.5 0-1.2.5-.1 1.6 3.1v-5.5c0-2.9.6-5.9 2-9-.2 3-.2 5.2 0 6.7.2 1.4.6 2.7 1.2 3.9.5-1.7.9-2.9 1.2-3.5.3-.6 1-1.5 2-2.7l-.4 4.7.4 5.5c.4-.8.6-2.4.6-4.8s.7-5.1 2.1-8.1c-.5 2.6-.8 5.2-1 7.6-.2 2.4-.3 4.8-.2 7.2.5-3.3 1.1-5.8 1.6-7.4.5-1.6 1-2.4 1.6-2.4l1.2 2.4c-.1-1.5-.1-2.6 0-3.1.1-.6.5-1.2 1.2-2 .5 1.6.9 2.7 1.2 3.1s1 1.4 2 2.7c-.8-2.6-1.4-4.7-1.6-6.3-.4-3 .6-5.9 1.2-7 .3-.5.9.2 2 2-.1-1.8-.1-3.2 0-3.9.1-1.6.7-2 .8-2 .1.1 1.2 1.7 1.6 3.5.3 1.5.5 3.6.8 6.3.6-.8 1-1.3 1.2-1.7.6-1.2.6-1.7.8-1.2.8 2.9.1 7.6 1.2 10.3.7 2 2 3.9 3.7 5.9-1.3-3.1-2.6-5.1-2.9-6.7-.7-4.5.4-8.9.6-8.5.4.9.9 1.8 1.3 2.9.8 2 1.9 6.6 3.1 13.8.2-4.1-.2-7.5-.4-9.6-.2-2.1-.6-4.5-1.2-7.2l2.4 3.9c-.4-1.7-.7-2.8-.7-3.4-.1-.6.3-1.1.3-1.4 0-.3.6-.3 2 0-1-1-1.7-2-2-3-.7-2.4-.5-4-.3-3.9 1 1 4.6 4.5 5.5 11.4.4 3.1.2 9.2-.8 18.4 1.6-3.3 2.5-4.8 2.7-4.7.1.1-.1 1.1 0 2.3.1.9.3 2.1.8 3.6 0-3.8.3-5.7.8-5.9.1 0-.2 2.1 1.2 5.9.2.6 1 1.7 2.4 3-1-2.3-1.7-4.5-2-6.6s0-5.2.8-9.3l1.2 2.4c.4-1.1.7-1.9.8-2.4.2-1.2.1-2 .4-2.4.2-.2 1.6 2.4 4.3 7.8.7 1.9 1.3 3.3 1.9 4.3.6 1 1.4 1.9 2.4 2.7-.2-1.7-.2-2.5 0-2.4.4.2 1.1.7 2 1.5-1.1-2.8-1.8-4.8-2-5.9-.2-1.1-.2-2.5 0-4.3l3.4 6.9 4.8 8c-2.1-6.1-2.6-7.7-3.1-9.8-.5-2.1-.7-3.8-.4-5.1l2.7 3.5c-.6-1.5-.9-3.1-.8-4.7 0-.7.6-2.2 1.6-4.3l1.2 1.6c-1.3-4.1-2.4-6.8-3.1-8.2-1.1-2.1-2.8-4.1-5-6 1.8 2.9 2.9 5.3 3.4 6.9 1 3.8 1.2 7 .4 9.7l-.8-1.2c-.4.6-.7 1.1-.9 1.6s-.4.9-.7 1.6c-.6-.7-1-1.2-1.2-1.6-1.1-2.9-1.5-6.3-2.4-8.6-3.9-10.4-6.4-15.3-7.1-15.9-.7-.7 3.1 8.5 5.1 16.7 1.5 6.1 1.3 11.7.8 11.4-2.3-1.6-2.8-5-6.3-9-1.5-1.7-4-2.9-6.7-5.1-.9-.7 1.4 10.9.8 10.2-1.4-1.5-1.7-12.5-3.5-15.7-1.6-2.8-4.3-5.6-8.1-8.4-.1 2.7 0 4.7.2 6.1.2 1.4.9 3.5 2 6.3-.7-.7-1.2-1.4-1.6-2-.3-.6-.9-1.9-1.7-3.9l1.1 6.5-1.7-3-.8 3.5c.1-1.3.1-2.3 0-2.7-.1-.5-.4-1.6-1-3.3l-1 3.3c-.5-2.3-.9-3.9-1.2-4.7-.9-2.3-1.9-3.9-3.1-4.7l-2-1.4 2.4 4.1c-1.2-.3-2-.6-2.4-.8-.3-.2-1.3-.9-2.7-2l3.5 6.1c-2.3-2-3.9-3.6-4.7-5-.8-1.3-2.1-4.3-3.9-9l3.1 19.5-1.6-3.8c-1.1 2.2-2.1 3.8-2.9 4.7-.8.9-1.9 2.1-3.4 3.5l-.4-9.4c-2.7 4.2-4.5 7.3-5.5 9.4-.8 1.8-2.1 3.7-2.7 5.5-1.9 5.2-2.3 11.3-4.3 14.5-1.3 2.1-1.5-9.7-3-7.2-1.1.9-2 2.5-3.3 4.7z" fill="url(#Path-504_3_)"/><linearGradient id="Path-504_4_" gradientUnits="userSpaceOnUse" x1="-366.925" y1="839.826" x2="-366.862" y2="837.22" gradientTransform="matrix(110.578 0 0 -64.2435 40469.398 53949.29)"><stop offset="0" stop-color="#6b5649"/><stop offset="1" stop-color="#fff"/></linearGradient><path id="Path-504_2_" d="M-106.8-3.3c-.8 0-2-.3-3.5-.8 1.1.7 1.6 1.1 1.3 1.2-1.1.3-2.1.5-3.3.8-4.7.9-7.5 3.3-11.4 5.1-.3.1-1.2.6-2.7 1.6 1.3 0 1.8.1 1.6.4-.7.8-2.4 1.5-3.1 2-2.1 1.2-4 2.2-5.9 3.5-3.5 2.5-6.2 6.5-9 9.8-.9 1-2.3 1-3.1 2.1-3.4 4.7-6.1 10.2-7.9 16.7-.3 1-.5 2-.7 3.1-.3 1.3-1.2 3.9-2.8 7.9 1.7-1.2 2.6-1.5 2.8-1.2 0 .1-.1 4.7.7 9 .1.6.9-1.2 1-.5.1.6.3 1.6.6 2.9 1.1-3.2 1.7-5.4 2-6.6 1-5.1.7-7.2 1.2-7.4.1 0 .5-1.2 2.8-4.3.4-.5 1.3-1.5 2.7-2.9-.3.8-.6 1.8-.8 2.8s-.3 2-.4 3.1c1.6-3.3 2.8-5.4 3.5-6.3.7-.9 2.2-2.4 4.3-4.7-.5.9-1 1.9-1.3 2.9-.3 1.1-.6 2.2-.6 3.3 1.4-2.1 2.7-3.9 3.9-5.5 2.9-3.7 4.8-7.7 5.9-12.1l-3.1 2c1-1 1.8-2.2 2.4-3.5.6-1.3 1-2.9 1.2-4.7.9 2.3 1.5 3.9 2 4.7 1.5 2.7 3 3.9 3.9 4.7.9.8 1.9 1.6 2.7 2.3.3.3-1.1-1.2-2.3-3.1-1.2-1.8-2.2-4-2.4-4.7-.2-1.3 4.5 3 3.9 1.2-.7-2-2-3.7-2-5.1 0-1 1.7-.3 5.1 2-.5-1.2-.8-2.2-.8-2.7 0-.6 1.2.5 1.2 0 .1-1.2 0-2.6.4-2.7.7-.3 3 1 4.7 4.3 2.3 4.6 4 11.6 3.9 11.4-.4-1.3-.2-4.6-.4-7.4-.1-2.6-.6-4.8-.3-3.9.1.2.7.5 1.8.8.3-3.2.8-4.7 1.6-4.3.3.2 5.9 4.7 11.8 14.5.4.6-.1-2.8-.4-5.1-.1-1.2-.5-2.3 0-2 1 .7 2.5 1.6 4.7 2.9.3.2-.4-2.4-1.2-4.5-.6-1.6-1.9-2.9-1.6-2.7.8.5 2 0 3.5.8.7.3 1.6.8 2.7 1.9 1 1 2.5 4.3 5.6 6.7.3.2-1.8-1.8-2.7-4.7C-85 16-87.6 11.6-91 8.8c4.8 1.1 7.9 3.2 9.5 6.3.6 1.2-1.9-8.6 1.6-5.1.3.3 2.1 5.2 2.7 5.9.4.4-.6-3.4-.4-3.9.2-.5 1.5 2.2 2 3.1 1.3 2.4 2.1 6.6 3.5 8.2.6.8.6-1.5 0-6.7 1.5 2.1 2.7 4.2 3.5 6.3 1.4 3.3 2.5 7 3.1 7.1.7.1.1-6.2.8-5.9 1.1.6 2.2 6 3.1 6.7.5.3 0-3.6.4-3.1 2.4 2.3 4.3 11.4 5.5 14.7 0 .1.2-1.5 0-3.3-.3-2.1-.9-4.4-.8-4.3.5.4 2.1 1.1 2.7 2.6 2.7 6.1 5.6 9.9 5.6 10 .3.5.8 1.2 1.4 2.4-.8-3.1-1.3-5.2-1.6-6.3-.4-1.6-.8-2.2-2-4.3-.2-.4-.6-1.4-1.2-2.7l2.5 3.4c-.5-2.2-.8-3.8-.9-4.6-.4-3.5-1.9-4.9-3.1-7.4-1.9-4.6-9.9-10.8-12.2-14-3.1-4.3-7.7-8.6-14.5-11-2-.7-5.3-1.2-10.2-1.6-.7-.6-1.1-1-1.3-1.2-.4-.6-.8-1.1-1.1-1.6-.3 1.2-.5 1.7-.8 1.6-.7-.3-2-1.5-3.9-3.5.8 1.4 1 2 .4 2-.4 0-1.2-.6-2.4-1.6-.3.8-1 .9-2.4.4-1.8-.7-4.2-.7-5.3-.7z" fill="url(#Path-504_4_)"/><linearGradient id="Path-508_1_" gradientUnits="userSpaceOnUse" x1="-362.673" y1="839.843" x2="-361.305" y2="839.14" gradientTransform="matrix(26.2721 0 0 -11.5168 9420.481 9785.643)"><stop offset="0" stop-color="#fcc9b5"/><stop offset=".738" stop-color="#c06e6a"/><stop offset="1" stop-color="#aa4e4f"/></linearGradient><path id="Path-508" d="M-84.5 111.1c-1 1.9-1.6 3.2-2 4-1.2 2.5-2.3 4.3-3.9 5.4-3.5 2.4-9.4 2.7-12.9 1.2-1.6-.7-2.9-2.1-4.6-4.3-.5-.7-1.5-1.9-2.9-3.6 2 .3 3.5.4 4.3.4 2.1-.1 3.7-.8 4.7-.8 1.4 0 2.5.5 3.5.4 1.3-.1 2.7-.8 4.7-1.2 1.1-.2 3 0 5.5-.4.8-.1 2-.5 3.6-1.1z" fill="url(#Path-508_1_)"/><g id="Oval-16" transform="translate(33.722 75.212)"><linearGradient id="Path-512_1_" gradientUnits="userSpaceOnUse" x1="-390.257" y1="763.74" x2="-391.404" y2="765.643" gradientTransform="matrix(14.1163 0 0 -8.656 5391.403 6656.964)"><stop offset="0" stop-color="#aa4e4f"/><stop offset="1" stop-color="#c06e6a"/></linearGradient><path id="Path-512" d="M-121.7 37c-1.5.3-2.9.1-5.6.4-1.6.2-4.2 1.3-5 3.1 1.3.3 2.5.3 3.5 0 1.6-.4 4.7-2 5.9-2.4s-.4 1.6-1.6 3.1c-1.2 1.6-2.4 2.9-2.4 3.1.1.3 1.6-.8 2.7-2s1.3-1.7 3.5-4.3c.4-.5 1.2-1.2 2.4-2.4-1.3.8-2.5 1.2-3.4 1.4z" fill="url(#Path-512_1_)"/><g id="Mask"><linearGradient id="path-34_2_" gradientUnits="userSpaceOnUse" x1="-144.525" y1="-2.36" x2="-158.895" y2=".043"><stop offset="0" stop-color="#7a3328"/><stop offset=".016" stop-color="#844238"/><stop offset=".062" stop-color="#9d6961"/><stop offset=".113" stop-color="#b58d87"/><stop offset=".17" stop-color="#c9aca8"/><stop offset=".232" stop-color="#dac6c3"/><stop offset=".301" stop-color="#e8dbd9"/><stop offset=".383" stop-color="#f2ebea"/><stop offset=".483" stop-color="#faf7f6"/><stop offset=".623" stop-color="#fefdfd"/><stop offset="1" stop-color="#fff"/></linearGradient><path id="path-34_1_" d="M-144.1.2c0-.7-2.5-1.3-3.5-2-1.8-1.1-2.7-1.8-4.3-2-2.6-.3-5 .8-7.1 3.1 1.7 1 3.4 1.7 5.1 2 1.2.2 3.3-.7 6.4-1 1.1-.1 3.4.6 3.4-.1z" fill="url(#path-34_2_)"/><path class="st52" d="M-143.8.2c0 .4-.3.6-.8.6-.3 0-.6 0-1.3-.1h-.2c-.7-.1-1-.1-1.4-.1-.9.1-1.7.2-2.6.5 0 0-1.7.4-2.2.5-.7.1-1.2.2-1.6.1-1.7-.3-3.5-.9-5.2-2l-.3-.2.2-.2c2.1-2.4 4.6-3.5 7.3-3.2.8.1 1.4.3 2.1.6.3.2.7.3 1.1.6.2.1 1.1.7 1.3.8.2.1.5.3.9.4.2.1.3.1.6.3 1.5.6 2 .9 2.1 1.4z"/></g><defs><filter id="Adobe_OpacityMaskFilter" filterUnits="userSpaceOnUse" x="-156.1" y="-5.9" width="7.2" height="7.2"><feColorMatrix values="1 0 0 0 0 0 1 0 0 0 0 0 1 0 0 0 0 0 1 0"/></filter></defs><mask maskUnits="userSpaceOnUse" x="-156.1" y="-5.9" width="7.2" height="7.2" id="mask-35"><g filter="url(#Adobe_OpacityMaskFilter)"><path id="path-34" class="st54" d="M-144.1.2c0-.7-2.5-1.3-3.5-2-1.8-1.1-2.7-1.8-4.3-2-2.6-.3-5 .8-7.1 3.1 1.7 1 3.4 1.7 5.1 2 1.2.2 3.3-.7 6.4-1 1.1-.1 3.4.6 3.4-.1z"/></g></mask><linearGradient id="SVGID_2_" gradientUnits="userSpaceOnUse" x1="-378.212" y1="765.019" x2="-378.212" y2="764.019" gradientTransform="matrix(6.666 0 0 -6.6594 2368.652 5088.878)"><stop offset="0"/><stop offset="1" stop-color="#8b572a"/></linearGradient><ellipse cx="-152.5" cy="-2.3" rx="3.3" ry="3.3" mask="url(#mask-35)" fill="url(#SVGID_2_)" stroke="#000" stroke-width=".5"/></g><g id="Oval-16_1_" transform="translate(65.876 71.295)"><g id="Mask_1_"><g transform="scale(-1 1) rotate(10 0 -87.34)"><path id="path-37_1_" class="st54" d="M171.5-26.2c0-.7-2.5-1.3-3.5-2-1.8-1.1-2.7-1.8-4.3-2-2.6-.3-5.1 1-7.4 3.7 1.9.7 3.7 1.2 5.4 1.5 1.2.2 4.4 0 7.4-.9.9-.3 2.4.4 2.4-.3z"/></g><path class="st52" d="M171.7-26.2c0 .3-.2.5-.5.6h-1.3c-.3 0-.6 0-.8.1-2.7.8-6 1.2-7.5.9-1.7-.3-3.5-.8-5.5-1.5l-.3-.1.2-.3c2.3-2.8 4.9-4.1 7.6-3.8.8.1 1.4.3 2.1.6.3.2.7.3 1.1.6.2.1 1.1.7 1.3.8.2.1.5.3.9.4.2.1.3.1.6.3 1.6.6 2.1.9 2.1 1.4z" transform="scale(-1 1) rotate(10 0 -87.34)"/></g><linearGradient id="Mask_2_" gradientUnits="userSpaceOnUse" x1="-443.911" y1="763.188" x2="-444.233" y2="763.242" gradientTransform="matrix(-14.9756 2.6406 -.9151 -5.1896 -6109.939 5135.136)"><stop offset="0" stop-color="#7a3328"/><stop offset="1" stop-color="#fff"/></linearGradient><path id="Mask_3_" d="M-158.3 2.6c-.1-.7 2.2-1.7 3.1-2.5 1.5-1.4 2.3-2.2 3.9-2.7 2.5-.7 5.2.1 7.9 2.4-1.8 1-3.5 1.8-5.1 2.4-1.2.4-4.3.8-7.5.4-.8-.2-2.2.7-2.3 0z" fill="url(#Mask_2_)"/><linearGradient id="SVGID_3_" gradientUnits="userSpaceOnUse" x1="-150.168" y1="-3.365" x2="-150.168" y2="2.444"><stop offset="0"/><stop offset="1" stop-color="#8b572a"/></linearGradient><path d="M-150.7-3.3c-.9.2-1.5.7-2.3 1.2-.2.1-.2 0-.4.3 0 .1-.2.7-.1 1.2.2 1.7 1.4 2.5 1.4 2.5 1.1.7 2.3.5 2.6.4.3-.1 1.6-.3 2.3-1.5.4-.6.6-1.6.1-2.8-.6-1.4-2.4-1.5-3.6-1.3z" fill="url(#SVGID_3_)" stroke="#000" stroke-width=".5"/></g><linearGradient id="Path-518_2_" gradientUnits="userSpaceOnUse" x1="-361.675" y1="840.179" x2="-361.675" y2="839.179" gradientTransform="matrix(23.8491 0 0 -7.518 8503.315 6378.959)"><stop offset="0" stop-color="#f5d4c8"/><stop offset="1" stop-color="#9c7461"/></linearGradient><path id="Path-518" d="M-111.2 69.9c-1.3.6-12.5-2.8-17.3-2.7-4 0-4.4.2-4.3 0 .2-.2-1.7.6-1.5.3.3-.4 2.4-2 3.5-1.9 1.8.1 3.7.7 2 0-2.7-1.2-3.7-.1-3.6-.2l.6-.6.3-.3c.1-.1 2.8-.3 2.7-.4-.2-.3-.6-.6-1.2-.8.2-.2.3-.4.4-.4.6-.4.9-.4 1.2-.4 1.6-.1 5.7 2.4 7.8 3.1 3.3 1.2 13 2.7 9.4 4.3z" opacity=".349" fill="url(#Path-518_2_)" enable-background="new"/><linearGradient id="Path-518_3_" gradientUnits="userSpaceOnUse" x1="-356.473" y1="840.715" x2="-356.473" y2="839.715" gradientTransform="matrix(13.3956 0 0 -3.21 4658.034 2765.452)"><stop offset="0" stop-color="#f5d4c8"/><stop offset="0" stop-color="#b18b7a"/><stop offset="1" stop-color="#9c7461"/></linearGradient><path id="Path-518_1_" d="M-111.2 69.9c-.9.4-7.2-1.2-12.3-2.2-1.9-.3 4.1-1 4.5-1 3.1.5 11 1.7 7.8 3.2z" fill="url(#Path-518_3_)"/><linearGradient id="Path-505_1_" gradientUnits="userSpaceOnUse" x1="-359.162" y1="839.398" x2="-358.149" y2="839.583" gradientTransform="matrix(17.3088 0 0 -34.1189 6108.71 28725.326)"><stop offset="0" stop-color="#fcc9b5"/><stop offset="1" stop-color="#fff"/></linearGradient><path id="Path-505" d="M-115.9 69.9c1.2.1 2.2.2 3.1.4 1.5.3 2.9.5 3.9.8 1.4.4 3.3.1 3.9.4 1.1.5 1.2 1.9 1.6 2.4 1.5 1.9-2.6 4-1.6 9.4s4.7 4.8 5.5 9c.5 2.4-.1 5.3-.7 7.4-.4 1.6-2 .8-2.1 1.2-.1.8 1.6 2 0 1.6-1-.3-2.2.7-5.1-.9-1.6-.4-2.5-1.1-2.7-1.4-.4-.5.4-2 0-3.5s-.8-4.3-1.2-6.7-6.7-4.4-5.1-5.5c1.2-.8 1.7-1.3 3.1-2.4 1.6-1.2 3.2-3.8 3.5-4.3.6-1 .4-2.7 0-3.9-.1-.3-.8-.8-2.7-2.4-.4-.4-1.5-.9-3.4-1.6z" fill="url(#Path-505_1_)"/><linearGradient id="Path-507_1_" gradientUnits="userSpaceOnUse" x1="-353.116" y1="840.64" x2="-354.581" y2="839.683" gradientTransform="matrix(11.3764 0 0 -6.2833 3916.518 5355.774)"><stop offset="0" stop-color="#b5887d"/><stop offset="1" stop-color="#fcc9b5"/></linearGradient><path id="Path-507" d="M-113.1 79.9c-.8-.7-5.3 1.2-5.9 1-.5-.2 5.1-2.3 4.7-3.1-.2-.5-2.6-.1-4.3 0-1.1.1-2-.2-2-.4.1-.2 1.7-.1 3.5-.4 1.4-.2 2.9-.8 3.5-.8 1.4-.1 2.1.3 2.7.8.5.3 1.6.4 1.6.8 0 2.8-4.9 4.5-5.5 4.7-.5.1 2.5-1.9 1.7-2.6z" fill="url(#Path-507_1_)"/><path id="Fill-1_2_" class="st40" d="M-108.8 98.1v.3c0 .2.1.5.2.9s.2.8.5 1.3c.1.1.1.2.2.3l.1.1c.1 0 .1.1.2.1.1.1.2.1.4.1.1 0 .3.1.4.1.6.1 1.3.2 2.1.2.2 0 .4 0 .6.1.2 0 .4 0 .7.1.1 0 .1 0 .2.1.1 0 .2.1.3.1l.3.2c.2.1.3.2.5.3.7.5 1.4.9 2.1 1.2.4.1.7.2 1.1.3.2 0 .4 0 .6.1h.4s-.1 0 0 0h.2c.7 0 1.4-.3 2-.8.6-.5 1.2-1.1 1.8-1.7.2-.1.3-.3.5-.4l.1-.1.1-.1.1-.1h.2c.1 0 .2-.1.3-.1.5-.2.9-.2 1.3-.3.8-.1 1.5-.2 2-.4.3-.1.5-.3.7-.4.1-.1.3-.4.3-.6.1-.5.2-1 .2-1.4 0-.4.1-.7.1-.9v-.3s0 .1.1.3c0 .2.1.5.2.9 0 .4.1.9 0 1.5 0 .3-.1.6-.3 1-.2.3-.5.5-.9.7-.7.4-1.4.6-2.2.7-.4.1-.8.2-1 .3l-.1.1.1-.1-.1.1-.1.1c-.1.2-.3.3-.4.5-.6.6-1.1 1.3-1.9 2-.4.3-.8.6-1.3.9-.1.1-.3.1-.4.2-.1 0-.3.1-.4.1-.1 0-.3.1-.4.1H-98.3c-.2 0-.5 0-.8-.1-.5-.1-1-.2-1.5-.4-.9-.4-1.7-1-2.4-1.5-.2-.1-.3-.3-.5-.4l-.2-.2h-.1c-.1-.1-.3-.1-.5-.1s-.4-.1-.6-.1c-.8-.1-1.5-.3-2.2-.5-.2-.1-.3-.1-.5-.2s-.4-.2-.5-.3c-.1 0-.1-.1-.2-.1-.1-.1-.2-.1-.2-.2-.1-.1-.2-.3-.2-.4-.2-.6-.2-1.1-.2-1.5 0-.4 0-.7.1-.9v-.8"/><path id="Fill-3_2_" class="st40" d="M-102.1 123.2s.2 0 .5-.1c.3 0 .8-.1 1.4-.1.6 0 1.3-.1 2-.1s1.5-.1 2.2-.2c.4 0 .7-.1 1.1-.2.4-.1.7-.2 1.1-.2.7-.2 1.3-.4 1.9-.5.6-.2 1-.3 1.4-.4.3-.1.5-.1.5-.1s-.2.1-.4.3-.7.5-1.2.8c-.5.3-1.1.6-1.9.9-.4.1-.7.3-1.1.4-.4.1-.8.2-1.2.2-1.6.2-3.2 0-4.4-.2-.6-.1-1.1-.2-1.4-.3-.4-.1-.5-.2-.5-.2"/><path id="Fill-5_1_" d="M-82.9 111.4v-.4c0-.1-.1-.3-.2-.3h-.5c-.4.1-.9.3-1.3.7-.5.3-1.1.8-1.8 1.1-.7.3-1.5.6-2.3.9-.8.3-1.6.6-2.4 1.1-.8.4-1.7.9-2.6 1.2-.9.4-1.9.7-3 .9l-.4.1h-.4c-.4 0-.6-.1-.9-.1-.5-.1-1-.3-1.4-.4-.4-.1-.9-.2-1.3-.2h-1.5c-1-.1-1.8-.4-2.7-.5-.8-.2-1.6-.3-2.4-.5-.7-.2-1.4-.3-2-.5-.3-.1-.6-.2-.8-.2-.3-.1-.5-.2-.7-.2-.2 0-.4 0-.5.1-.1.1-.2.2-.2.3 0 .1-.1.2-.1.3v-.3c0-.1.1-.3.2-.4.1-.1.4-.2.6-.2.2 0 .5.1.7.1.3 0 .5.1.8.1.6.1 1.3.2 2 .3.7.1 1.6.2 2.4.3.9.1 1.8.3 2.6.4H-101.7c.5 0 1 .1 1.5.2s1 .3 1.4.4c.2.1.4.1.6.1H-97.9l.3-.1c.9-.2 1.9-.4 2.7-.8.9-.4 1.8-.8 2.6-1.1.9-.4 1.8-.7 2.6-.9.8-.3 1.6-.4 2.3-.7.7-.2 1.3-.6 1.8-.8.5-.3 1.1-.5 1.5-.5h.3c.1 0 .2 0 .3.1.2.1.2.3.2.4.4-.2.4-.1.4 0" fill="#6d2920"/><path id="Fill-9_1_" d="M-97.7 116.3c.1.1-.1 3-.1 3s-.1 0-.1-.1c-.1-.1-.1-.2-.2-.4-.2-.3-.2-.7-.2-1.1 0-.4.1-.8.2-1.1.1-.1.2-.3.2-.4l.1-.1s0 .1.1.2z" opacity=".587" fill="#6d2920" enable-background="new"/><path id="Fill-11" class="st40" d="M-75.1 70.3l-.2-.2-.5-.5c-.2-.2-.5-.4-.9-.7-.3-.2-.7-.5-1.2-.7-.4-.2-1-.4-1.5-.6-.6-.2-1.1-.3-1.8-.4-.6-.1-1.3-.1-1.9-.1-.3 0-.7 0-1 .1h-.5l-.5.1c-.6.1-1.3.3-1.9.5-.6.2-1.2.5-1.8.8-.5.3-1.1.6-1.5 1l-.3.3-.3.3c-.2.2-.4.4-.6.5l-.5.5-.5.5c-.3.3-.5.6-.7.8-.4.5-.6.7-.6.7s0-.1.1-.2.2-.4.3-.6c.2-.3.3-.6.6-1 .2-.4.5-.8.9-1.2.3-.4.7-.9 1.2-1.3s1-.8 1.6-1.2c.6-.4 1.2-.7 1.9-1 .7-.3 1.4-.5 2.1-.6l.5-.1H-84c.4 0 .7-.1 1.1-.1.7 0 1.4.1 2.1.2.7.1 1.3.3 1.9.6.6.3 1.1.5 1.6.9.5.3.8.6 1.1.9l.8.8c.2.2.3.5.4.6-.1.3-.1.4-.1.4"/><path id="Fill-13" class="st40" d="M-110 73.5s-.3-.2-.8-.4c-.5-.3-1.2-.7-2.1-1-.4-.2-.9-.4-1.4-.6-.5-.2-1.1-.3-1.6-.5l-1.8-.3c-.3 0-.6-.1-.9-.1h-.9c-.6 0-1.2 0-1.8.1-.6.1-1.2.2-1.7.4s-1.1.4-1.5.7c-.5.2-.9.5-1.3.8-.7.6-1.3 1.2-1.8 1.5-.4.4-.7.6-.7.6s.2-.3.5-.8.8-1.1 1.5-1.9c.3-.4.8-.8 1.3-1.1.5-.3 1-.6 1.6-.9.6-.2 1.2-.4 1.9-.6.7-.1 1.4-.2 2-.2.3 0 .7 0 1 .1.4 0 .7.1 1 .1.7.1 1.3.3 1.9.4 1.2.4 2.3.9 3.1 1.4.4.3.8.5 1.1.8.3.2.6.5.8.7l.5.5c.1.2.1.3.1.3"/><path id="Fill-15" class="st64" d="M-127.6 75.8s.1-.2.4-.6c.1-.2.3-.4.5-.6.2-.2.4-.5.7-.7.5-.5 1.2-1.1 2-1.6.4-.3.8-.5 1.2-.8.4-.2.9-.5 1.4-.7.2-.1.5-.2.8-.3.3-.1.5-.1.8-.1.5-.1 1.1-.1 1.5 0 .5.1 1 .2 1.4.4.4.2.8.4 1.1.6.3.2.6.4.8.6.2.2.4.4.6.5.2.2.3.3.3.4l.1.1-.6-.3c-.2-.1-.4-.2-.7-.3-.3-.1-.6-.3-.9-.4-.2-.1-.3-.1-.5-.2s-.4-.1-.6-.2c-.4-.1-.8-.2-1.2-.2-.4 0-.8 0-1.3.1-.2 0-.4.1-.6.1-.2.1-.4.1-.6.2-.4.2-.9.4-1.3.6l-1.2.6c-.4.2-.8.4-1.1.6-.4.2-.7.4-1 .6-.6.4-1.1.7-1.5 1-.3.5-.5.6-.5.6"/><path id="Fill-17" class="st64" d="M-75.5 72.3l-.6-.3c-.3-.2-.8-.5-1.4-.9-.6-.4-1.3-.8-2-1.2l-1.2-.6c-.4-.2-.8-.3-1.2-.5-.4-.1-.8-.2-1.3-.3-.4 0-.8-.1-1.2 0-.8.1-1.5.4-2.1.6-.2.1-.3.2-.4.2-.1.1-.2.1-.4.2-.2.2-.4.3-.6.4-.3.2-.6.3-.6.3s.1-.2.4-.5c.1-.2.3-.4.5-.6.1-.1.2-.2.3-.4.1-.1.3-.2.4-.3.3-.2.6-.4 1-.6.4-.2.8-.4 1.3-.5.5-.1 1-.1 1.5-.1.2 0 .5 0 .7.1.2.1.5.1.7.2 1 .3 1.8.8 2.6 1.3.4.3.7.5 1 .8.3.3.6.5.9.8.5.5.9.9 1.2 1.3.4.4.5.6.5.6"/><linearGradient id="Path-519_1_" gradientUnits="userSpaceOnUse" x1="-357.533" y1="840.342" x2="-357.421" y2="839.342" gradientTransform="matrix(14.6321 0 0 -5.3966 5143.21 4599.947)"><stop offset="0" stop-color="#b18b7a"/><stop offset=".216" stop-color="#ad8877"/><stop offset=".415" stop-color="#a27d6d"/><stop offset=".606" stop-color="#906c5c"/><stop offset=".793" stop-color="#755444"/><stop offset=".976" stop-color="#543626"/><stop offset="1" stop-color="#4f3121"/></linearGradient><path id="Path-519" d="M-94.7 70.3c.1.2 1.6-.8 3.1-1.6.7-.4 3.1-1.7 5.5-2.4 2.7-.8 5.5-.9 5.9-1.2.8-.5-3.9.1-5.5 0-2.2-.1-3.9-.6-5.5 0-1.3.5-2.1 1.6-2.7 2.4-.7 1-.9 2.6-.8 2.8z" fill="url(#Path-519_1_)"/><path id="Fill-19" class="st66" d="M-79.1 11.7c.1.3.3.6.4.9.1.3.3.6.5.9l.8 1.5c-.1-.3-.2-.6-.2-.7l-1.3-3.7-.8-2.3 1.4 2c.8 1.1 1.5 2.3 2.3 3.4.4.6.7 1.2 1.1 1.8.3.6.7 1.2.9 1.9.4.9.7 1.9 1.1 3l-.4-4.7-.2-2.3 1.4 1.8c1.2 1.6 2.4 3.2 3.4 4.9.5.9 1 1.8 1.3 2.8.1.2.2.5.2.7l.2.7c.1.5.3 1 .4 1.4.1.4.3 1.1.5 2l-.3-6.1-.2-4.4 1.7 4 1.4 3.5.7 1.7.4.9.2.4.1.2.1.2-1.1-5.2c1.1 1.5 2.2 3.1 3.1 4.7.9 1.6 1.7 3.4 2.2 5.1.1.5.3.9.4 1.3.1.4.2.9.4 1.3l.6 2.7c.3 1.2.4 2.1.5 2.6v-.7c0-.6 0-1.2-.1-1.8l-.3-1.8-.7-3.6-.7-3.6c.6 2.4 1.2 4.8 1.7 7.2.1.6.3 1.2.4 1.8.1.6.2 1.2.2 1.9.1 1.2 0 2.5 0 3.7l-.1 2.8-.5-2.8c-.3-1.8-.7-3.6-1.1-5.4-.2-.9-.5-1.8-.7-2.7-.1-.4-.3-.9-.4-1.3-.1-.4-.3-.9-.4-1.3-.4-1.1-1.2-2.8-2.3-4.9l.6 7.5-2.9-7-.1-.2-.1-.2-.2-.4-.4-.9-.7-1.6v12c-1.8-6.3-2.8-10.1-3.1-11.3-.1-.5-.2-.9-.4-1.4l-.2-.7c-.1-.2-.1-.4-.2-.7-.1-.4-.3-.9-.5-1.3s-.4-.8-.7-1.3c-.6-1.1-1.3-2.1-1.9-3l.5 7.5.4 5.6-1.5-5.4c-.4-1.3-.8-2.6-1.1-3.9-.4-1.3-.8-2.6-1.3-3.8-.2-.6-.5-1.2-.8-1.8-.3-.6-.6-1.2-1-1.8-.2-.3-.5-.8-.8-1.4l.4 1.4c.2.6.4 1.3.5 1.9l.1.2v.4c-.1.1-.2.1-.3.1l-.1-.1-.1-.1-.1-.1-.1-.2-.5-.9-.9-1.8c-.2-.3-.3-.6-.4-.9-.1-.3-.2-.6-.4-.9-.5-1.2-.9-2.5-1.3-3.7.4 1.4.8 2.6 1.4 3.8z"/><path id="Fill-23" class="st66" d="M-150.2 52.6c.1-1.4.3-2.8.4-4.3l.3-2.1.3-2.1c.2-1.4.5-2.8.8-4.2.3-1.4.6-2.8 1.1-4.2.1-.3.2-.7.3-1 .1-.3.2-.7.4-1 .3-.7.5-1.3.8-2 .3-.7.6-1.3.9-1.9.3-.6.6-1.3 1-1.9.3-.6.7-1.2 1.1-1.9.4-.6.7-1.2 1.1-1.8.8-1.2 1.6-2.4 2.4-3.5l-1.9 3.8c-.3.6-.6 1.3-.9 1.9-.3.6-.6 1.3-.9 1.9-.6 1.3-1.1 2.6-1.6 3.9-.2.7-.5 1.3-.7 2-.1.3-.2.7-.3 1-.1.3-.2.7-.3 1-.2.7-.3 1.4-.5 2-.2.7-.3 1.4-.4 2.1-.1.7-.3 1.4-.4 2.1-.1.5-.2.9-.2 1.2 0-.1.1-.1.1-.2s.1-.1.1-.2c.3-.5.6-.9 1-1.4.4-.4.7-.8 1.2-1.2-.3.4-1.6 2.4-3 6-.7 1.1-1.4 3.1-2.2 6z"/><path id="Fill-25" class="st40" d="M-75.9 73.5s0 .1-.1.2-.1.3-.3.5c-.1.2-.3.5-.5.8-.2.3-.5.6-.8.9-.3.3-.7.6-1.1.9-.4.3-.9.5-1.4.7-.3.1-.5.2-.8.3-.1 0-.3.1-.4.1l-.2.1H-81.8c-.1 0-.3 0-.4.1h-1.4c-.6 0-1.2-.1-1.7-.2-.6-.1-1.1-.2-1.6-.3-1-.2-2-.4-2.8-.6-.4-.1-.8-.1-1.1-.2-.3 0-.6.1-.8.2-.2.1-.4.2-.5.3-.1.1-.2.1-.2.1s0-.1.1-.2.2-.3.4-.4c.2-.2.5-.3.9-.4.4-.1.8-.1 1.2-.1.4 0 .9 0 1.4.1.5 0 1 .1 1.5.2s1.1.1 1.6.2 1.1.1 1.6.1H-81.7c.1 0 .3 0 .4-.1.3-.1.5-.1.7-.2 1-.3 1.8-.7 2.5-1.2.3-.2.6-.5.9-.7.3-.2.5-.4.6-.6l.4-.4.3-.2"/><linearGradient id="Fill-25_2_" gradientUnits="userSpaceOnUse" x1="-377.948" y1="832.416" x2="-377.229" y2="833.116" gradientTransform="matrix(-16.1092 3.4241 -.9538 -4.4872 -5409.63 5108.372)"><stop offset="0" stop-color="#935f52"/><stop offset="1" stop-color="#fcc9b5"/></linearGradient><path id="Fill-25_1_" d="M-126 77.6s0 .1.1.2.2.3.4.5.4.4.7.6c.3.2.6.5 1 .7.4.2.8.5 1.3.6.5.2 1 .3 1.6.4.3 0 .6.1.8.1h1.3c.2 0 .3 0 .5-.1.3-.1.6-.1.9-.2.6-.2 1.1-.3 1.6-.5l1.5-.6c1-.4 1.9-.8 2.7-1.1.4-.2.8-.3 1.1-.4.3-.1.6-.1.8 0 .2 0 .4.1.5.2.1.1.2.1.2.1s0-.1-.2-.1c-.1-.1-.3-.2-.5-.3-.2-.1-.6-.2-1-.2s-.8.1-1.2.2c-.4.1-.9.2-1.3.4-.5.1-1 .3-1.5.5s-1 .3-1.5.5-1.1.3-1.6.5c-.3.1-.5.1-.8.2l-.4.1H-120.9c-1-.1-1.9-.3-2.7-.6-.4-.2-.7-.3-1-.5-.3-.2-.6-.3-.8-.5-.2-.1-.4-.2-.5-.3 0-.4-.1-.4-.1-.4" fill="url(#Fill-25_2_)"/><linearGradient id="Oval-17_1_" gradientUnits="userSpaceOnUse" x1="-322.099" y1="840.193" x2="-325.885" y2="838.866" gradientTransform="matrix(3.5378 0 0 -5.4842 1044.917 4714.878)"><stop offset="0" stop-color="#fcc9b5"/><stop offset="1" stop-color="#b5887d"/></linearGradient><path id="Oval-17" d="M-98.2 111.8c1.5 0 .4-.6.4-2.4 0-1.7 1.1-3.1-.4-3.1s-2.7 1.4-2.7 3.1c-.1 1.8 1.2 2.4 2.7 2.4z" fill="url(#Oval-17_1_)"/><ellipse id="Oval-18" cx="-118.8" cy="73.3" rx="1.4" ry="1.4"/><ellipse id="Oval-18_1_" cx="-84.3" cy="70.9" rx="1.4" ry="1.4"/><path id="Path-510" class="st54" d="M-123.3 73.5c0 .3 1.2.1 1.6 0s.4-.7 0-.8c-.5-.1-1.6.5-1.6.8z"/><path id="Path-511" class="st54" d="M-121 72.7c-.3.2-.3.7 0 .8.3.1 1.2-.1 1.2-.4 0-.3-.9-.6-1.2-.4z"/><path id="Path-511_1_" class="st54" d="M-86.9 70.4c-.3.2-.3.7.1.8s1.2-.2 1.1-.5-.9-.6-1.2-.3z"/><path id="Fill-1_3_" class="st69" d="M-113.5 69.7s-.6.1-1.6.1c-.5 0-1 0-1.6-.1-.3 0-.6-.1-.9-.1-.3-.1-.6-.1-.9-.2-.3-.1-.6-.1-.9-.2-.3-.1-.6-.2-.9-.2-.6-.2-1.1-.3-1.5-.5-.9-.3-1.4-.7-1.4-.7s.6.1 1.6.2c.5.1 1 .2 1.6.3l1.8.3 1.8.3c.6.1 1.1.2 1.6.3.7.3 1.3.5 1.3.5"/><path id="Fill-3_3_" class="st70" d="M-133.9 70.7s.1-.2.4-.5c.1-.2.3-.3.5-.5.1-.1.2-.2.3-.2.1-.1.2-.1.3-.2.5-.3 1-.4 1.4-.5.4-.1.7-.1.7-.1l-.6.3-1.2.6c-.4.2-.9.5-1.2.7-.4.3-.6.4-.6.4"/><path id="Fill-5_2_" class="st70" d="M-129.6 66.8s-.3 0-.8.1-1 .3-1.6.5l-.9.3c-.3.1-.5.2-.7.3-.4.2-.7.3-.7.3s.2-.3.6-.5c.2-.1.4-.3.7-.4.3-.1.6-.3.9-.4.6-.2 1.2-.3 1.7-.3s.8.1.8.1"/><path id="Fill-7_1_" class="st69" d="M-93.9 67.6h.3c.2 0 .5-.1.8-.1.3 0 .7-.1 1.1-.1.2 0 .4-.1.6-.1.2-.1.4-.1.6-.2.4-.1.9-.2 1.3-.3.4-.1.8-.2 1.1-.2.7-.1 1.1-.1 1.1-.1s-.4.3-1 .5c-.3.1-.7.3-1.1.4-.2.1-.4.1-.6.2-.2.1-.4.1-.7.2-.2.1-.4.1-.7.1-.2 0-.5.1-.7.1-.4 0-.9 0-1.2-.1a4 4 0 0 1-.9-.3"/><path id="Fill-9_2_" class="st71" d="M-115.5 67.6s0 .1-.2.2-.4.1-.7.1c-.3 0-.6 0-.9-.1-.3-.1-.7-.1-1-.3-.7-.2-1.3-.6-1.7-.9-.4-.3-.6-.6-.6-.6l.8.2c.5.1 1.1.3 1.7.6l.9.3c.3.1.6.2.8.3.2.1.4.1.6.2h.3"/><path id="Fill-11_1_" class="st71" d="M-119 68h-.8c-.2 0-.5-.1-.8-.2-.1 0-.3-.1-.4-.2-.1-.1-.3-.1-.4-.2-.6-.3-1.1-.7-1.4-1.1-.3-.4-.4-.7-.4-.7s.3.1.7.3c.4.2.9.5 1.5.8.5.3 1 .6 1.4.8.2.1.4.2.5.3 0 .1.1.2.1.2"/><path id="Fill-13_1_" class="st69" d="M-90.8 65.6s.6-.1 1.5-.1h4.1c.3 0 .6 0 .8-.1.5-.1 1.1-.1 1.5-.2.4 0 .8-.1 1.1-.1h.4s-.5.3-1.4.6c-.4.1-.9.3-1.5.4-.3.1-.6.1-.9.1-.3 0-.6.1-.9.1h-.9c-.3 0-.6-.1-.9-.1-.6-.1-1.1-.2-1.5-.3-.8-.1-1.4-.3-1.4-.3"/><path id="Fill-1_4_" class="st66" d="M-70.8 61.3s-.2.1-.5.2c-.2 0-.4.1-.6.1-.2 0-.5.1-.8 0-.6 0-1.4-.3-2.1-.7-.8-.4-1.5-1-2.3-1.7-.8-.7-1.5-1.6-2.2-2.6-.2-.2-.4-.5-.5-.7-.2-.2-.4-.5-.5-.8-.2-.3-.3-.5-.5-.8-.2-.3-.3-.6-.5-.8-.7-1.1-1.3-2.3-1.8-3.6-.5-1.3-.9-2.6-1.3-4-.3-1.4-.6-2.7-1-4-.4-1.3-.8-2.6-1.2-3.8-1-2.4-1.9-4.6-2.7-6.5-.8-1.9-1.6-3.5-2.1-4.6-.5-1.1-.8-1.7-.8-1.7s.1.2.3.4c.2.3.4.7.7 1.2.6 1.1 1.4 2.6 2.3 4.5.5.9 1 1.9 1.5 3s1 2.2 1.5 3.4c.5 1.2 1 2.5 1.3 3.8.4 1.3.7 2.7 1 4 .3 1.3.7 2.6 1.2 3.9.2.6.5 1.2.8 1.8.3.6.6 1.2.9 1.7.2.3.3.6.5.8.2.3.3.5.5.8.2.3.3.5.5.8.2.3.3.5.5.7.7 1 1.4 1.8 2.1 2.6.7.7 1.4 1.4 2.1 1.8.7.4 1.4.7 2 .8.3.1.6 0 .8 0 .2 0 .4 0 .6-.1.2.2.3.1.3.1"/><path id="Fill-3_4_" class="st66" d="M-91.6 45.2s-.1-.1-.3-.2c-.2-.2-.5-.4-.8-.7-.7-.6-1.7-1.5-2.8-2.6-.6-.6-1.1-1.2-1.7-1.9-.6-.7-1.2-1.4-1.8-2.2-.3-.4-.6-.8-.8-1.3-.2-.4-.5-.9-.7-1.4-.4-.9-.8-1.9-1.2-2.9-.4-1-.8-2-1.1-2.9-.4-1-.7-1.9-1.1-2.8-.7-1.8-1.3-3.6-1.8-5.1l-1.2-3.6c-.3-.9-.4-1.4-.4-1.4s.2.5.6 1.3c.3.8.9 2 1.5 3.5s1.3 3.2 2 5c.4.9.7 1.9 1.1 2.8.4 1 .8 1.9 1.2 2.9.4 1 .8 1.9 1.2 2.9.2.5.4.9.6 1.4.2.4.5.8.7 1.2 1.1 1.6 2.3 3 3.3 4.2 1 1.2 1.9 2.1 2.5 2.8l1 1"/><path id="Fill-3_5_" class="st72" d="M-102.6 62.1s.9-4.7 1.3-6.2c.2-.8.4-1.6.5-2.5.1-.9.3-1.8.3-2.8 0-.5.3-7.2-.9-13.5s-6.7-16.8-6.7-16.8 4.7 16.3 5.1 18.3c.2 1 .4 2 .5 3 .1.4.7 2.6.7 7 0 2-.2 6.6-.8 13.5z"/><path id="Fill-5_3_" class="st66" d="M-63.3 84.8l.5-.5c.3-.3.7-.9 1.2-1.5s1-1.4 1.4-2.2c.2-.4.4-.9.6-1.3.2-.5.3-.9.5-1.4.1-.5.3-1 .3-1.5.1-.5.2-1 .2-1.5.1-1 .2-1.9.2-2.7.1-1.6.1-2.6.1-2.6s0 .3.1.7c.1.5.1 1.1.2 1.9v2.7c0 .5-.1 1-.2 1.5s-.2 1-.3 1.6c-.1.5-.3 1-.5 1.5s-.5 1-.7 1.4c-.3.4-.5.8-.8 1.2-.3.4-.6.7-.8 1l-.8.8c-.2.2-.5.4-.6.5-.2.1-.3.2-.4.3l-.2.1"/><path id="Fill-7_2_" class="st66" d="M-65.3 53.9s.1.3.2.9c.1.6.3 1.4.4 2.4.2 1 .4 2.2.6 3.5.1.6.2 1.3.3 1.9.1.7.2 1.3.3 2 .1.7.2 1.3.4 2 .1.7.3 1.3.4 1.9.1.6.3 1.2.5 1.7.1.3.2.6.2.9 0 .3.1.6.1.8 0 1-.1 1.9-.1 2.5-.1.6-.1.9-.1.9v-.9c0-.6 0-1.5-.1-2.5 0-.2-.1-.5-.1-.8-.1-.2-.2-.5-.3-.8-.2-.5-.4-1.2-.6-1.8-.2-.6-.3-1.3-.5-1.9-.1-.7-.3-1.3-.4-2-.1-.7-.2-1.4-.3-2-.1-.7-.2-1.3-.2-2-.1-1.3-.3-2.5-.3-3.5-.4-1.9-.4-3.2-.4-3.2"/><path id="Fill-9_3_" class="st66" d="M-66.9 58.2s-.3-.5-.8-1.4c-.5-.9-1.2-2.2-1.9-3.8-.4-.8-.8-1.7-1.2-2.6-.2-.5-.4-.9-.6-1.4-.2-.5-.3-1-.5-1.5-.3-1-.7-2.1-1-3.2-.3-1.1-.7-2.2-1-3.3-.3-1.1-.7-2.2-1-3.3-.3-1.1-.6-2.2-1-3.2-.6-2.1-1.2-4.1-1.6-5.8-.5-1.7-.8-3.1-1.1-4.1-.3-1-.4-1.6-.4-1.6s.2.5.5 1.5.8 2.3 1.4 4c.6 1.7 1.2 3.6 1.9 5.7.3 1 .7 2.1 1 3.2.3 1.1.7 2.2 1 3.3.3 1.1.7 2.2 1 3.3.3 1.1.6 2.2 1 3.2.2.5.3 1 .5 1.5s.3 1 .5 1.4c.4.9.7 1.8 1 2.6.7 1.6 1.2 3 1.6 3.9.5 1 .7 1.6.7 1.6"/><path id="Fill-11_2_" class="st66" d="M-64.5 80.5s.1-.1.2-.1c.1-.1.3-.2.5-.4s.5-.4.8-.7c.3-.3.6-.6.9-1 .6-.7 1.2-1.7 1.6-2.8.2-.5.4-1.1.5-1.7.1-.6.2-1.2.2-1.9V70c0-.6-.1-1.2-.1-1.8-.1-1.2-.3-2.3-.4-3.3-.3-1.9-.5-3.2-.5-3.2s.1.3.3.8c.2.5.4 1.3.6 2.3.2.9.5 2.1.7 3.3.1.6.2 1.2.2 1.9 0 .6.1 1.3.1 2s-.1 1.3-.2 2c-.1.6-.3 1.3-.6 1.8a8.6 8.6 0 0 1-1.9 2.8c-.4.4-.7.6-1 .9l-.9.6c-.2.2-.4.3-.6.3-.3.1-.4.1-.4.1"/><path id="Fill-13_2_" class="st66" d="M-64.9 21.4s.2.3.7.9c.4.5 1 1.3 1.7 2.3.3.5.7 1 1.1 1.6.4.6.8 1.2 1.1 1.8.4.6.8 1.3 1.1 2 .3.7.7 1.4 1 2.2.1.4.3.8.4 1.2l.1.6c0 .2.1.4.1.6.2.8.3 1.6.3 2.3.1 1.5.2 2.9.1 4.1 0 1.2-.1 2.2-.2 2.9 0 .3-.1.6-.1.8v-.8c0-.7 0-1.7-.1-2.9s-.2-2.6-.4-4c-.1-.7-.2-1.5-.4-2.2 0-.2-.1-.4-.1-.6l-.1-.6c-.1-.4-.2-.7-.4-1.1l-.9-2.1c-.3-.7-.7-1.4-1-2-.4-.6-.7-1.3-1-1.9-.3-.6-.7-1.1-1-1.7-1.2-2.1-2-3.4-2-3.4"/><path id="Path-513" class="st72" d="M-134.5 30c-4.4 5-7.4 9-8.9 11.8-.9 1.7-2.3 4.6-2.9 7.8-.3 1.5-.4 3.9-.3 7.3l1.4-6.9c.2.8.6 1.5 1 1.9s.9.9 1.6 1.4c-1.5-2-1.8-4.4-.8-7.3 1.4-3.9 4.4-9.2 8.9-16z"/><path id="Path-514" class="st72" d="M-150.4 37.4c-2.9 3.8-5 6.8-6.3 9-1.2 2.2-2 4.3-2.4 6.3l3.1-2.7c.1 2.8.1 5.1 0 6.7-.1 1.6 0 3.8.4 6.7.5-1.2.9-2.2 1.2-2.7s.7-1.1 1.2-1.6c-.1 3.1-.1 5.5 0 7.1.1 1.6.4 2.9.8 3.9l2-4.3c-.1 3-.1 5.1 0 6.3s.4 2.2.8 3.1c-.1-2.1 0-3.8.4-5.1s1.3-3.5 2.7-6.7l-2.7 2.7-.4-5.5-2 3.5c-.3-1.9-.4-3.4-.4-4.3 0-1 .3-3 .8-6.3l-2.7 3.9 1.2-10.2c-.7-.1-1.2-.1-1.6 0-.4.1-1 .5-2 1.2L-150 37"/><path id="Path-515" class="st72" d="M-139.8 69.9c-1.5 3.1-2.4 5.6-2.7 7.4s-.3 4.2 0 7.1c-1.6-2.5-2.1-5.3-1.6-8.2.6-2.9 2-5 4.3-6.3z"/><path id="Path-516" class="st72" d="M-139.4 52.7c-2.4 3.1-3.5 7.1-3.5 11.8s-1.4 9.5-4.3 14.5c1-3.1 1.8-6.5 2.4-10.2.9-5.5 0-7.4 1.6-11.4.9-2.7 2.2-4.2 3.8-4.7z"/><path id="Path-541" class="st73" d="M-125.6 75.3c1.6 1.3 3.4 2 5.4 2.1 1 .1 2.1-.1 3.3-.4.8-.2 2-.5 3.7-1-1.8.7-3 1.2-3.7 1.4-1.3.4-2.1.6-3.4.5-2.2-.1-4-1-5.3-2.6z"/><path id="Path-542" class="st73" d="M-88.4 74.5c2.2.2 4.5 0 6.7-.6 2.3-.6 3.9-1.6 5-2.7-.8 1.7-2.5 2.9-5.1 3.4-2.5.4-4.7.4-6.6-.1z"/><linearGradient id="Path-543_1_" gradientUnits="userSpaceOnUse" x1="-352.957" y1="840.186" x2="-350.577" y2="838.815" gradientTransform="matrix(9.8036 0 0 -6.0972 3348.552 5238.249)"><stop offset="0" stop-color="#fcc9b5"/><stop offset="1" stop-color="#fff"/></linearGradient><path id="Path-543" d="M-108.4 115c2.1 1.6 3.8 2.8 5.1 3.5 2 1.1 4.8 2 4.7 2.4 0 .4-2.4.4-4.9-.8-1.7-.8-3.3-2.5-4.9-5.1z" fill="url(#Path-543_1_)"/><linearGradient id="Path-544_1_" gradientUnits="userSpaceOnUse" x1="-344.453" y1="841.687" x2="-343.139" y2="841.687" gradientTransform="matrix(6.5194 0 0 -1.2461 2138.762 1149.163)"><stop offset="0" stop-color="#fcc9b5"/><stop offset="1" stop-color="#fff"/></linearGradient><path id="Path-544" d="M-100.6 99.7c.6.1 0 .6 0 .8.1.3-1 .5-1.6.4-1.6-.4-4.8-.3-4.7-.6.1-.2 2.4-.5 4.3-.6h2z" fill="url(#Path-544_1_)"/></g><path id="Path-555" class="st37" d="M-22 615.3c-3.2 6.2-5.8 10.4-7.9 12.6-4.1 4.4-10.8 6.3-10.5 7.6.6 2.2 8 .5 22.3-5.3-17.5 4.8-23.2 5.9-17.1 3.3 6.1-2.6 10.5-8.7 13.2-18.2z"/><path id="Path-556" class="st37" d="M-54.7 751c.8 2 3.9 3.6 9.2 5 5.3 1.4 12.9 1.7 22.7.8-8.5 2-15.7 2.4-21.9 1.3-6-1.1-9.3-3.5-10-7.1z"/><path id="Path-557" class="st37" d="M29.8 687.2c2 10.2 3.7 17 5 20.6 2.9 7.7 8.2 11.7 8.4 13.9.3 3.6-4.2 5.2-13.4 4.6 7.3 0 10.8-1.5 10.5-4.6-.2-1.8-5.2-6.2-7.6-13.9-1.1-3.6-2-10.5-2.9-20.6z"/></g></g></g></svg>
